<svg width="64" height="64" viewBox="0 0 64 64" fill="none" xmlns="http://www.w3.org/2000/svg">
<ellipse cx="31.8873" cy="32" rx="31.251" ry="32" fill="#00C2FF" fill-opacity="0.15"/>
<path d="M24.0511 23.9182C23.7845 23.6516 23.3511 23.6516 23.0846 23.9182C22.8173 24.1855 22.8173 24.6182 23.0846 24.8848C23.3512 25.1521 23.7846 25.1521 24.0511 24.8848C24.3183 24.6182 24.3183 24.1855 24.0511 23.9182Z" fill="#00C2FF"/>
<path d="M33.3087 42.6059C33.6101 42.1977 33.773 41.7058 33.773 41.1887C33.773 39.8695 32.6997 38.7961 31.3804 38.7961H19.7597C19.1203 38.7961 18.5195 39.045 18.0678 39.4968C17.616 39.9485 17.3671 40.5493 17.3671 41.1887C17.3671 41.7184 17.5405 42.2083 17.833 42.6051C16.7445 43.1774 16 44.319 16 45.6319V46.3155C16 46.693 16.3061 46.9991 16.6836 46.9991H34.4565C34.834 46.9991 35.1401 46.693 35.1401 46.3155V45.6319C35.1401 44.3196 34.3963 43.1785 33.3087 42.6059ZM19.0345 40.4634C19.228 40.2698 19.4856 40.1632 19.7597 40.1632H31.3804C31.9458 40.1632 32.4058 40.6232 32.4058 41.1885C32.4058 41.4627 32.2991 41.7202 32.1055 41.9138C31.912 42.1074 31.6544 42.2139 31.3804 42.2139H19.7597C19.1943 42.2139 18.7343 41.7539 18.7343 41.1886C18.7343 40.9145 18.8409 40.657 19.0345 40.4634ZM17.3671 45.6319C17.3671 44.5011 18.2871 43.5811 19.4179 43.5811H19.7597H31.3804H31.7222C32.853 43.5811 33.773 44.5011 33.773 45.6319H17.3671Z" fill="#00C2FF"/>
<path d="M50.3642 40.7196C50.132 40.3598 49.855 40.0416 49.5408 39.7739L46.3467 36.9881C46.3218 36.9506 46.2929 36.9151 46.2599 36.882C46.2044 36.8266 46.1415 36.7833 46.0747 36.7509L44.143 35.0662L35.2022 27.267C35.5682 26.8843 35.7698 26.384 35.7698 25.852C35.7698 25.3039 35.5564 24.7888 35.1686 24.401C34.9995 24.2321 34.8073 24.0993 34.6018 24.002L35.429 23.1749C35.6602 23.2363 35.8977 23.2678 36.1355 23.2678C36.8356 23.2677 37.5357 23.0012 38.0686 22.4683C38.5853 21.9517 38.8698 21.265 38.8698 20.5347C38.8698 19.8044 38.5853 19.1178 38.0687 18.6012L32.2685 12.8011C31.7519 12.2845 31.0652 12 30.3347 12C29.6045 12 28.918 12.2845 28.4015 12.8011C27.6875 13.5151 27.4525 14.5288 27.6949 15.4408L19.4421 23.6935C19.2141 23.6329 18.9768 23.6009 18.7344 23.6009C18.0038 23.6009 17.3174 23.8852 16.8012 24.4013C15.7351 25.4674 15.7351 27.2022 16.8012 28.2684L22.6013 34.0686C23.1345 34.6017 23.8347 34.8682 24.5349 34.8682C25.2352 34.8682 25.9354 34.6017 26.4685 34.0686C27.1825 33.3546 27.4175 32.341 27.1751 31.4289L28.0005 30.6034C28.0997 30.8105 28.2343 31.0017 28.4015 31.1688C28.7889 31.5561 29.3038 31.7695 29.8518 31.7695C30.3833 31.7695 30.8834 31.5683 31.2666 31.2027L40.7895 42.144C40.8158 42.185 40.8464 42.224 40.8822 42.2599C40.8944 42.2721 40.9074 42.2832 40.9203 42.2943L43.758 45.5547C43.8286 45.6379 43.904 45.7198 43.9823 45.7981C44.7616 46.5772 45.7911 47 46.8718 47C47.0623 47 47.2546 46.9869 47.4472 46.9602C48.7344 46.7821 49.8468 46.0121 50.4991 44.8473C51.2136 43.5709 51.1604 41.9503 50.3642 40.7196ZM29.3683 13.7679C29.6266 13.5095 29.9699 13.3672 30.3347 13.3672C30.7001 13.3672 31.0436 13.5095 31.3018 13.7679L37.102 19.568C37.3604 19.8263 37.5026 20.1697 37.5026 20.5348C37.5026 20.8999 37.3604 21.2433 37.102 21.5016C36.5691 22.0346 35.7019 22.0346 35.169 21.5016L29.3686 15.7012C29.3685 15.7011 29.3684 15.701 29.3683 15.7009C28.8353 15.1679 28.8353 14.3008 29.3683 13.7679ZM25.5018 33.1019C24.9687 33.635 24.1011 33.635 23.5681 33.1019L17.7679 27.3018C17.2348 26.7686 17.2348 25.9013 17.7679 25.3681C18.0258 25.1101 18.3691 24.9681 18.7344 24.9681C19.0997 24.9681 19.4428 25.1101 19.7005 25.3678L25.5017 31.1689C26.0348 31.7018 26.0348 32.569 25.5018 33.1019ZM28.3799 28.2907L26.4684 30.2022L20.6677 24.4014L28.4015 16.6675L34.2021 22.4683L32.2872 24.3833C32.281 24.3891 32.2749 24.3949 32.2684 24.4014L28.4034 28.2664C28.3954 28.2742 28.3877 28.2824 28.3799 28.2907ZM30.8207 29.7168C30.8193 29.7181 30.818 29.7194 30.8167 29.7208L30.3353 30.2022C30.2062 30.3313 30.0345 30.4024 29.8517 30.4024C29.669 30.4024 29.4973 30.3313 29.3682 30.2021C29.2389 30.0729 29.1678 29.9011 29.1678 29.7182C29.1678 29.5392 29.2361 29.3709 29.36 29.2439L33.2429 25.3609C33.509 25.1021 33.9393 25.1053 34.2023 25.3681C34.3315 25.4973 34.4026 25.6691 34.4026 25.852C34.4026 26.0347 34.3317 26.2061 34.2022 26.3352L33.7236 26.8138C33.7203 26.817 33.7171 26.8203 33.7138 26.8236L30.8207 29.7168ZM32.2363 30.2346L34.2342 28.2367L42.6932 35.6151L39.6065 38.7019L32.2363 30.2346ZM40.5061 39.7357L43.7258 36.5159L44.7585 37.4167L41.4058 40.7695L40.5061 39.7357ZM49.3063 44.1795C48.8651 44.9672 48.1192 45.4871 47.2598 45.606C46.4025 45.7247 45.5601 45.4423 44.9488 44.8313C44.8962 44.7788 44.8459 44.724 44.799 44.6685C44.7968 44.6659 44.7946 44.6633 44.7924 44.6608L42.3055 41.8032L45.7912 38.3174L48.6452 40.8069C48.6473 40.8088 48.6495 40.8106 48.6518 40.8125C48.8654 40.9942 49.055 41.2123 49.2158 41.4615C49.7328 42.2603 49.769 43.3527 49.3063 44.1795Z" fill="#00C2FF"/>
<path d="M28.8847 19.0845C28.6177 18.8175 28.185 18.8175 27.918 19.0845L25.0176 21.9849C24.7506 22.2518 24.7506 22.6847 25.0176 22.9515C25.1511 23.085 25.326 23.1518 25.501 23.1518C25.6759 23.1518 25.8508 23.085 25.9843 22.9515L28.8847 20.0512C29.1517 19.7843 29.1517 19.3515 28.8847 19.0845Z" fill="#00C2FF"/>
</svg>
