<svg width="22" height="24" viewBox="0 0 22 24" fill="none" xmlns="http://www.w3.org/2000/svg">
<path d="M3.66667 23.2982H18.3333C19.3058 23.2982 20.2384 22.9223 20.9261 22.2531C21.6137 21.584 22 20.6765 22 19.7303V5.45882C22 4.51256 21.6137 3.60506 20.9261 2.93595C20.2384 2.26685 19.3058 1.89095 18.3333 1.89095H17.1111C17.1111 1.57553 16.9823 1.27303 16.7531 1.04999C16.5239 0.82696 16.213 0.70166 15.8889 0.70166C15.5647 0.70166 15.2539 0.82696 15.0246 1.04999C14.7954 1.27303 14.6667 1.57553 14.6667 1.89095H7.33333C7.33333 1.57553 7.20456 1.27303 6.97535 1.04999C6.74614 0.82696 6.43526 0.70166 6.11111 0.70166C5.78696 0.70166 5.47608 0.82696 5.24687 1.04999C5.01766 1.27303 4.88889 1.57553 4.88889 1.89095H3.66667C2.69421 1.89095 1.76158 2.26685 1.07394 2.93595C0.386309 3.60506 0 4.51256 0 5.45882V19.7303C0 20.6765 0.386309 21.584 1.07394 22.2531C1.76158 22.9223 2.69421 23.2982 3.66667 23.2982ZM2.44444 5.45882C2.44444 5.1434 2.57321 4.8409 2.80243 4.61786C3.03164 4.39483 3.34251 4.26953 3.66667 4.26953H4.88889V5.45882C4.88889 5.77424 5.01766 6.07674 5.24687 6.29977C5.47608 6.52281 5.78696 6.64811 6.11111 6.64811C6.43526 6.64811 6.74614 6.52281 6.97535 6.29977C7.20456 6.07674 7.33333 5.77424 7.33333 5.45882V4.26953H14.6667V5.45882C14.6667 5.77424 14.7954 6.07674 15.0246 6.29977C15.2539 6.52281 15.5647 6.64811 15.8889 6.64811C16.213 6.64811 16.5239 6.52281 16.7531 6.29977C16.9823 6.07674 17.1111 5.77424 17.1111 5.45882V4.26953H18.3333C18.6575 4.26953 18.9684 4.39483 19.1976 4.61786C19.4268 4.8409 19.5556 5.1434 19.5556 5.45882V9.02668H2.44444V5.45882ZM2.44444 11.4053H19.5556V19.7303C19.5556 20.0457 19.4268 20.3482 19.1976 20.5712C18.9684 20.7943 18.6575 20.9196 18.3333 20.9196H3.66667C3.34251 20.9196 3.03164 20.7943 2.80243 20.5712C2.57321 20.3482 2.44444 20.0457 2.44444 19.7303V11.4053Z" fill="#FF0099"/>
</svg>
