<svg width="12" height="12" viewBox="0 0 12 12" fill="none" xmlns="http://www.w3.org/2000/svg">
<rect x="12" y="12" width="12" height="12" rx="6" transform="rotate(-180 12 12)" fill="#FF5B5B" fill-opacity="0.15"/>
<path d="M4.51493 6.60253L5.75023 7.83783C5.81641 7.90399 5.90617 7.94116 5.99976 7.94116C6.09335 7.94116 6.1831 7.90399 6.24929 7.83783L7.48458 6.60253C7.54887 6.53597 7.58445 6.44681 7.58364 6.35427C7.58284 6.26173 7.54572 6.17321 7.48028 6.10777C7.41484 6.04233 7.32632 6.00522 7.23378 6.00441C7.14124 6.00361 7.05209 6.03918 6.98552 6.10347L6.3527 6.7363L6.3527 4.41183C6.3527 4.31822 6.31551 4.22845 6.24933 4.16226C6.18314 4.09607 6.09336 4.05889 5.99976 4.05889C5.90615 4.05889 5.81638 4.09607 5.75019 4.16226C5.684 4.22845 5.64682 4.31822 5.64682 4.41183L5.64682 6.7363L5.01399 6.10347C4.94743 6.03918 4.85827 6.00361 4.76573 6.00441C4.67319 6.00522 4.58467 6.04233 4.51923 6.10777C4.4538 6.17321 4.41668 6.26173 4.41587 6.35427C4.41507 6.44681 4.45064 6.53597 4.51493 6.60253Z" fill="#FF5B5B"/>
</svg>
