<svg width="12" height="12" viewBox="0 0 12 12" fill="none" xmlns="http://www.w3.org/2000/svg">
<path d="M3.00001 5.77783V8.35556C3.00001 8.52647 3.06776 8.69038 3.18834 8.81124C3.30893 8.93209 3.47247 8.99999 3.64301 8.99999H6.215C6.29962 9.00048 6.38351 8.98422 6.46185 8.95215C6.54019 8.92008 6.61144 8.87283 6.67152 8.8131L11.359 4.12164C11.7697 3.70438 12 3.14181 12 2.55567C12 1.96952 11.7697 1.40695 11.359 0.989695L10.9925 0.622368C10.57 0.222661 10.011 0 9.42998 0C8.84899 0 8.28999 0.222661 7.8675 0.622368L3.18648 5.32028C3.12689 5.3805 3.07974 5.45191 3.04774 5.53043C3.01574 5.60894 2.99952 5.69302 3.00001 5.77783ZM4.28601 6.04204L8.78699 1.53102C8.96108 1.36699 9.19104 1.27567 9.42998 1.27567C9.66893 1.27567 9.89888 1.36699 10.073 1.53102L10.4331 1.8919C10.6027 2.06329 10.6979 2.29492 10.6979 2.53633C10.6979 2.77774 10.6027 3.00937 10.4331 3.18076L5.93208 7.69179H4.28601V6.04204Z" fill="#7E7E7E"/>
<path d="M11.3333 6C11.1565 6 10.987 6.07024 10.8619 6.19526C10.7369 6.32029 10.6667 6.48986 10.6667 6.66667V10C10.6667 10.1768 10.5964 10.3464 10.4714 10.4714C10.3464 10.5964 10.1768 10.6667 10 10.6667H2C1.82319 10.6667 1.65362 10.5964 1.5286 10.4714C1.40357 10.3464 1.33333 10.1768 1.33333 10V2C1.33333 1.82319 1.40357 1.65362 1.5286 1.5286C1.65362 1.40357 1.82319 1.33333 2 1.33333H5.33333C5.51014 1.33333 5.67971 1.2631 5.80474 1.13807C5.92976 1.01305 6 0.843478 6 0.666667C6 0.489856 5.92976 0.320286 5.80474 0.195262C5.67971 0.0702379 5.51014 0 5.33333 0H2C1.46957 0 0.960859 0.210714 0.585787 0.585787C0.210714 0.960859 0 1.46957 0 2V10C0 10.5304 0.210714 11.0391 0.585787 11.4142C0.960859 11.7893 1.46957 12 2 12H10C10.5304 12 11.0391 11.7893 11.4142 11.4142C11.7893 11.0391 12 10.5304 12 10V6.66667C12 6.48986 11.9298 6.32029 11.8047 6.19526C11.6797 6.07024 11.5101 6 11.3333 6Z" fill="#7E7E7E"/>
</svg>
