<svg width="11" height="12" viewBox="0 0 11 12" fill="none" xmlns="http://www.w3.org/2000/svg">
<rect x="11" y="12" width="11" height="12" rx="5.5" transform="rotate(-180 11 12)" fill="#2ED6A3" fill-opacity="0.15"/>
<path d="M4.1387 5.89657C4.19937 5.96274 4.28164 5.99991 4.36743 5.99991C4.45322 5.99991 4.53549 5.96274 4.59617 5.89657L5.17625 5.26375L5.17625 7.58822C5.17625 7.68183 5.21034 7.7716 5.27101 7.83779C5.33169 7.90398 5.41398 7.94116 5.49978 7.94116C5.58559 7.94116 5.66788 7.90398 5.72855 7.83779C5.78923 7.7716 5.82331 7.68183 5.82331 7.58822L5.82331 5.26375L6.4034 5.89657C6.46442 5.96086 6.54614 5.99644 6.63097 5.99564C6.7158 5.99483 6.79695 5.95771 6.85693 5.89227C6.91692 5.82684 6.95094 5.73831 6.95168 5.64577C6.95242 5.55323 6.91981 5.46408 6.86087 5.39752L5.72852 4.16222C5.66785 4.09605 5.58557 4.05888 5.49978 4.05888C5.414 4.05888 5.33172 4.09605 5.27105 4.16222L4.1387 5.39752C4.07804 5.4637 4.04397 5.55346 4.04397 5.64704C4.04397 5.74063 4.07804 5.83039 4.1387 5.89657Z" fill="#00A389"/>
</svg>
