<svg width="14" height="13" viewBox="0 0 14 13" fill="none" xmlns="http://www.w3.org/2000/svg">
<path d="M12.6484 5.79688L7.70312 0.851562C7.51562 0.664062 7.16406 0.5 6.90625 0.5H2.125C1.49219 0.5 1 1.01562 1 1.625V6.42969C1 6.6875 1.14062 7.03906 1.32812 7.22656L6.27344 12.1719C6.71875 12.6172 7.44531 12.6172 7.86719 12.1719L12.6484 7.39062C13.0938 6.96875 13.0938 6.24219 12.6484 5.79688ZM12.1328 6.875L7.35156 11.6562C7.1875 11.7969 6.95312 11.7969 6.8125 11.6562L1.84375 6.6875C1.79688 6.61719 1.75 6.5 1.75 6.42969V1.625C1.75 1.4375 1.91406 1.25 2.125 1.25H6.90625C7 1.25 7.09375 1.29688 7.16406 1.36719L12.1328 6.33594C12.2734 6.47656 12.2734 6.71094 12.1328 6.875ZM4.375 3.40625C4.63281 3.40625 4.84375 3.61719 4.84375 3.875C4.84375 4.15625 4.63281 4.34375 4.375 4.34375C4.09375 4.34375 3.90625 4.15625 3.90625 3.875C3.90625 3.61719 4.09375 3.40625 4.375 3.40625ZM4.375 2.75C3.74219 2.75 3.25 3.26562 3.25 3.875C3.25 4.50781 3.74219 5 4.375 5C4.98438 5 5.5 4.50781 5.5 3.875C5.5 3.26562 4.98438 2.75 4.375 2.75Z" fill="#7E7E7E"/>
<path d="M7.86719 12.1719L7.72571 12.0304L7.722 12.0343L7.86719 12.1719ZM12.6484 7.39062L12.5108 7.24538L12.507 7.2492L12.6484 7.39062ZM12.1328 6.875L12.2742 7.01642L12.2797 7.01099L12.2847 7.00516L12.1328 6.875ZM7.35156 11.6562L7.48172 11.8081L7.48755 11.8031L7.49298 11.7977L7.35156 11.6562ZM1.84375 6.6875L1.67734 6.79844L1.68833 6.81492L1.70233 6.82892L1.84375 6.6875ZM12.7899 5.65545L7.84455 0.710141L7.5617 0.992984L12.507 5.9383L12.7899 5.65545ZM7.84455 0.710141C7.72981 0.595409 7.57318 0.494946 7.41297 0.423015C7.25382 0.351557 7.07274 0.3 6.90625 0.3V0.7C6.99758 0.7 7.12118 0.730474 7.24914 0.787923C7.37603 0.844897 7.48894 0.920216 7.5617 0.992984L7.84455 0.710141ZM6.90625 0.3H2.125V0.7H6.90625V0.3ZM2.125 0.3C1.37903 0.3 0.8 0.907891 0.8 1.625H1.2C1.2 1.12336 1.60535 0.7 2.125 0.7V0.3ZM0.8 1.625V6.42969H1.2V1.625H0.8ZM0.8 6.42969C0.8 6.5911 0.843038 6.76949 0.90858 6.93007C0.974109 7.09062 1.06906 7.25034 1.1867 7.36798L1.46955 7.08514C1.39969 7.01528 1.33058 6.90548 1.27892 6.77891C1.22727 6.65238 1.2 6.52609 1.2 6.42969H0.8ZM1.1867 7.36798L6.13202 12.3133L6.41486 12.0305L1.46955 7.08514L1.1867 7.36798ZM6.13202 12.3133C6.65325 12.8345 7.50955 12.8402 8.01238 12.3094L7.722 12.0343C7.38107 12.3942 6.78425 12.3998 6.41486 12.0305L6.13202 12.3133ZM8.00861 12.3133L12.7899 7.53205L12.507 7.2492L7.72577 12.0305L8.00861 12.3133ZM12.786 7.53582C13.3167 7.03299 13.3111 6.17669 12.7899 5.65545L12.507 5.9383C12.8764 6.30768 12.8708 6.90451 12.5109 7.24543L12.786 7.53582ZM11.9914 6.73358L7.21014 11.5148L7.49298 11.7977L12.2742 7.01642L11.9914 6.73358ZM7.2214 11.5044C7.12588 11.5863 7.01099 11.5719 6.95392 11.5148L6.67108 11.7977C6.89526 12.0219 7.24912 12.0075 7.48172 11.8081L7.2214 11.5044ZM6.95392 11.5148L1.98517 6.54608L1.70233 6.82892L6.67108 11.7977L6.95392 11.5148ZM2.01016 6.57656C1.9966 6.55622 1.97973 6.52347 1.96656 6.48837C1.9602 6.4714 1.95563 6.45633 1.95282 6.4443C1.94978 6.43126 1.95 6.42686 1.95 6.42969H1.55C1.55 6.50047 1.57143 6.57387 1.59203 6.62882C1.61402 6.68747 1.64403 6.74847 1.67734 6.79844L2.01016 6.57656ZM1.95 6.42969V1.625H1.55V6.42969H1.95ZM1.95 1.625C1.95 1.53985 2.03246 1.45 2.125 1.45V1.05C1.79567 1.05 1.55 1.33515 1.55 1.625H1.95ZM2.125 1.45H6.90625V1.05H2.125V1.45ZM6.90625 1.45C6.93495 1.45 6.9804 1.46637 7.02264 1.50861L7.30548 1.22577C7.2071 1.12738 7.06505 1.05 6.90625 1.05V1.45ZM7.02264 1.50861L11.9914 6.47736L12.2742 6.19452L7.30548 1.22577L7.02264 1.50861ZM11.9914 6.47736C12.0485 6.53443 12.0628 6.64932 11.981 6.74484L12.2847 7.00516C12.484 6.77256 12.4984 6.4187 12.2742 6.19452L11.9914 6.47736ZM4.375 3.60625C4.52236 3.60625 4.64375 3.72764 4.64375 3.875H5.04375C5.04375 3.50673 4.74327 3.20625 4.375 3.20625V3.60625ZM4.64375 3.875C4.64375 4.03924 4.52903 4.14375 4.375 4.14375V4.54375C4.7366 4.54375 5.04375 4.27326 5.04375 3.875H4.64375ZM4.375 4.14375C4.27982 4.14375 4.21605 4.1129 4.17658 4.07342C4.1371 4.03395 4.10625 3.97018 4.10625 3.875H3.70625C3.70625 4.06107 3.76915 4.23168 3.89373 4.35627C4.01832 4.48085 4.18893 4.54375 4.375 4.54375V4.14375ZM4.10625 3.875C4.10625 3.72097 4.21076 3.60625 4.375 3.60625V3.20625C3.97674 3.20625 3.70625 3.5134 3.70625 3.875H4.10625ZM4.375 2.55C3.62903 2.55 3.05 3.15789 3.05 3.875H3.45C3.45 3.37336 3.85535 2.95 4.375 2.95V2.55ZM3.05 3.875C3.05 4.61827 3.63173 5.2 4.375 5.2V4.8C3.85264 4.8 3.45 4.39736 3.45 3.875H3.05ZM4.375 5.2C5.09211 5.2 5.7 4.62097 5.7 3.875H5.3C5.3 4.39465 4.87664 4.8 4.375 4.8V5.2ZM5.7 3.875C5.7 3.15517 5.09483 2.55 4.375 2.55V2.95C4.87392 2.95 5.3 3.37608 5.3 3.875H5.7Z" fill="#7E7E7E"/>
</svg>
