<svg width="64" height="64" viewBox="0 0 64 64" fill="none" xmlns="http://www.w3.org/2000/svg">
<ellipse cx="32.166" cy="32" rx="31.3755" ry="32" fill="#00C2FF" fill-opacity="0.15"/>
<path d="M35.4573 32.5963C35.8122 32.1389 35.5755 32.4831 39.5927 25.5339C40.0891 24.675 39.7949 23.5779 38.9356 23.0818C38.1595 22.6336 37.1843 22.8329 36.6394 23.511V18.3262C36.6394 17.3365 35.8341 16.5312 34.8444 16.5312C34.5682 16.5312 34.3064 16.5939 34.0724 16.7058C34.0257 15.7573 33.2394 15 32.2796 15C31.3197 15 30.5335 15.7573 30.4867 16.7058C30.2528 16.5939 29.991 16.5312 29.7148 16.5312C28.725 16.5312 27.9198 17.3365 27.9198 18.3262V18.418C27.6864 18.3067 27.4254 18.2445 27.1501 18.2445C26.1603 18.2445 25.3551 19.0497 25.3551 20.0395V26.1523C25.3551 26.4354 25.5846 26.665 25.8678 26.665C26.1509 26.665 26.3805 26.4354 26.3805 26.1523V20.0395C26.3805 19.6151 26.7257 19.2699 27.1501 19.2699C27.5745 19.2699 27.9198 19.6151 27.9198 20.0395V23.391C27.9198 23.6741 28.1493 23.9037 28.4325 23.9037C28.7156 23.9037 28.9452 23.6741 28.9452 23.391V18.3262C28.9452 17.9018 29.2904 17.5566 29.7148 17.5566C30.1392 17.5566 30.4845 17.9018 30.4845 18.3262V23.391C30.4845 23.6741 30.714 23.9037 30.9972 23.9037C31.2803 23.9037 31.5099 23.6741 31.5099 23.391V16.795C31.5099 16.3707 31.8551 16.0254 32.2795 16.0254C32.7039 16.0254 33.0492 16.3707 33.0492 16.795V23.391C33.0492 23.6741 33.2787 23.9037 33.5619 23.9037C33.845 23.9037 34.0746 23.6741 34.0746 23.391V18.3262C34.0746 17.9018 34.4198 17.5566 34.8442 17.5566C35.2686 17.5566 35.6139 17.9018 35.6139 18.3262V25.2434L35.2689 25.8403C34.311 25.5094 33.2249 25.7437 32.4875 26.4813C31.4386 27.5302 31.4386 29.2368 32.4875 30.2857C32.6876 30.486 33.0123 30.486 33.2125 30.2857C33.4127 30.0855 33.4127 29.7609 33.2125 29.5607C32.5634 28.9116 32.5634 27.8554 33.2125 27.2064C33.7455 26.6734 34.5724 26.5647 35.2235 26.942C35.4685 27.0841 35.7826 27.0004 35.9245 26.755C36.112 26.4306 35.9268 26.7511 37.357 24.2764L37.3716 24.2513C37.5839 23.884 38.0553 23.7578 38.4228 23.9699C38.7902 24.1821 38.9168 24.6538 38.7045 25.0213C34.6719 32 34.9358 31.5955 34.647 31.9678C34.1616 32.5935 33.8942 33.3771 33.8941 34.1744V35.37H28.1V34.1752C28.1 33.3728 27.8362 32.5938 27.3576 31.9816C26.7182 31.1638 26.3802 30.1814 26.3802 29.1407V28.5448C26.3802 28.2617 26.1507 28.0321 25.8676 28.0321C25.5844 28.0321 25.3549 28.2617 25.3549 28.5448V29.1407C25.3549 30.4125 25.768 31.6133 26.5497 32.6132C26.8881 33.0459 27.0745 33.6007 27.0746 34.1753V35.3701H26.9818C26.6987 35.3701 26.4691 35.5996 26.4691 35.8828V38.2652C26.2753 38.3384 26.1374 38.5256 26.1374 38.745V49.4872C26.1374 49.7703 26.367 49.9999 26.6501 49.9999H35.3439C35.627 49.9999 35.8565 49.7703 35.8565 49.4872V38.745C35.8565 38.5256 35.7187 38.3384 35.5249 38.2652V35.8828C35.5249 35.5996 35.2953 35.3701 35.0122 35.3701H34.9194V34.1746C34.9197 33.6036 35.1107 33.0431 35.4573 32.5963ZM34.4068 36.3955H34.4997V38.2324H27.4946V36.3955H34.4068ZM34.8314 48.9745H27.163V39.2577H34.8314V48.9745Z" fill="#00C2FF"/>
<path d="M48.253 34.4356C47.6915 34.1114 47.0157 34.1958 46.5551 34.5757V30.8987C46.5551 30.0746 45.8847 29.4042 45.0606 29.4042C44.8896 29.4042 44.7254 29.4331 44.5723 29.4862C44.4569 28.7759 43.8393 28.2319 43.0971 28.2319C42.3548 28.2319 41.7372 28.7759 41.6219 29.4862C41.4687 29.4331 41.3044 29.4042 41.1334 29.4042C40.3451 29.4042 39.6973 30.0178 39.6427 30.7926C39.494 30.7429 39.335 30.716 39.1698 30.716C38.3458 30.716 37.6754 31.3864 37.6754 32.2104V39.1783C37.6754 40.1791 38.0005 41.1241 38.6156 41.9109C38.8582 42.2212 38.992 42.6197 38.992 43.0329V43.8297C38.7318 43.8544 38.5284 44.0735 38.5284 44.3401V46.0888C38.3765 46.1778 38.2745 46.3427 38.2745 46.5314V49.4874C38.2745 49.7705 38.5041 50 38.7872 50H45.4432C45.7263 50 45.9558 49.7705 45.9558 49.4874V46.5314C45.9558 46.3427 45.8539 46.1778 45.702 46.0888V44.34C45.702 44.0734 45.4985 43.8544 45.2384 43.8297V43.0322C45.2385 42.6216 45.3758 42.2186 45.6248 41.8976C45.9029 41.5392 45.7258 41.7952 48.7999 36.4771C49.2133 35.762 48.9684 34.8487 48.253 34.4356ZM44.9305 48.9746H39.2999V47.0441H44.9305V48.9746ZM47.9119 35.9644C44.8264 41.3041 45.0277 40.9945 44.8147 41.2691C44.4269 41.769 44.2131 42.3952 44.213 43.0321V43.8274H43.9274C43.6442 43.8274 43.4147 44.057 43.4147 44.3401C43.4147 44.6232 43.6442 44.8528 43.9274 44.8528H44.6765V46.0187H39.5538V44.8527H41.5348C41.8179 44.8527 42.0475 44.6232 42.0475 44.34C42.0475 44.0569 41.8179 43.8273 41.5348 43.8273H40.0173V43.0327C40.0173 42.3917 39.8063 41.769 39.4234 41.2793C38.9506 40.6745 38.7007 39.948 38.7007 39.1782V32.2104C38.7007 31.9517 38.9112 31.7413 39.1698 31.7413C39.4284 31.7413 39.6388 31.9517 39.6388 32.2104V34.7762C39.6388 35.0594 39.8684 35.2889 40.1515 35.2889C40.4347 35.2889 40.6642 35.0594 40.6642 34.7762C40.6642 34.0274 40.6642 31.6891 40.6642 30.8986C40.6642 30.64 40.8747 30.4295 41.1333 30.4295C41.3919 30.4295 41.6024 30.64 41.6024 30.8986V34.7762C41.6024 35.0594 41.8319 35.2889 42.1151 35.2889C42.3982 35.2889 42.6278 35.0594 42.6278 34.7762C42.6278 33.0931 42.6278 31.1603 42.6278 29.7264C42.6278 29.4677 42.8382 29.2573 43.0969 29.2573C43.3555 29.2573 43.5659 29.4678 43.5659 29.7264V34.7762C43.5659 35.0594 43.7955 35.2889 44.0786 35.2889C44.3618 35.2889 44.5913 35.0594 44.5913 34.7762V30.8986C44.5913 30.64 44.8017 30.4295 45.0604 30.4295C45.3191 30.4295 45.5295 30.64 45.5295 30.8986V36.1622L45.3299 36.5075C44.5778 36.2857 43.7444 36.4839 43.1711 37.0572C42.3212 37.9071 42.3212 39.29 43.1711 40.1398C43.3713 40.3401 43.696 40.3401 43.8961 40.1398C44.0963 39.9396 44.0963 39.615 43.8961 39.4148C43.446 38.9647 43.446 38.2323 43.8961 37.7823C44.2657 37.4126 44.8391 37.3373 45.2906 37.5989C45.5356 37.741 45.8497 37.6572 45.9915 37.4119C45.9915 37.4119 46.4821 36.5642 46.4861 36.5573C46.4921 36.5468 46.4152 36.68 47.0992 35.4955L47.0998 35.4944C47.2293 35.2713 47.5151 35.1938 47.74 35.3237C47.9648 35.4533 48.0417 35.7399 47.9119 35.9644Z" fill="#00C2FF"/>
<path d="M23.0351 29.4393C22.8985 29.4393 22.7664 29.4589 22.6414 29.4952C22.564 28.7901 21.9647 28.2396 21.2392 28.2396C21.0958 28.2396 20.9573 28.2612 20.8267 28.3011C20.6977 27.6555 20.1264 27.1675 19.4434 27.1675C18.7603 27.1675 18.1891 27.6555 18.0601 28.3011C17.9295 28.2612 17.7909 28.2396 17.6475 28.2396C16.8697 28.2396 16.2369 28.8724 16.2369 29.6503V32.9252C15.8001 32.6108 15.2013 32.5611 14.7059 32.8472C14.0307 33.237 13.7994 34.0991 14.1896 34.7741C16.9997 39.6351 16.8386 39.4038 17.0968 39.7367C17.3187 40.0227 17.441 40.3817 17.4411 40.7475V41.4386C17.2002 41.4807 17.0171 41.6907 17.0171 41.9437V43.5187C16.8772 43.6102 16.7849 43.7682 16.7849 43.9479V49.4873C16.7849 49.7705 17.0144 50 17.2976 50H23.385C23.6682 50 23.8977 49.7705 23.8977 49.4873V48.4446C23.8977 48.1614 23.6682 47.9319 23.385 47.9319C23.1019 47.9319 22.8724 48.1614 22.8724 48.4446V48.9746H17.8103V44.4606H22.8724V46.0519C22.8724 46.3351 23.1019 46.5646 23.385 46.5646C23.6682 46.5646 23.8977 46.3351 23.8977 46.0519V43.9479C23.8977 43.7682 23.8053 43.6103 23.6655 43.5187V41.9437C23.6655 41.6908 23.4825 41.4807 23.2416 41.4386V40.7481C23.2416 40.38 23.3606 40.0251 23.5765 39.7489C24.1451 39.0215 24.4457 38.148 24.4457 37.2227V30.85C24.4458 30.0721 23.813 29.4393 23.0351 29.4393ZM18.0425 43.4352V42.4564H22.6401V43.4352H18.0425ZM23.4204 37.2227C23.4204 37.9168 23.195 38.572 22.7687 39.1173C22.4125 39.5729 22.2162 40.152 22.2162 40.7479V41.4309H18.4665V40.7473C18.4663 40.1551 18.2676 39.5729 17.907 39.1081C17.7137 38.859 17.908 39.1582 15.0776 34.2613C14.971 34.077 15.0341 33.8416 15.2185 33.7351C15.4024 33.629 15.6384 33.6924 15.7447 33.876C16.032 34.3735 16.2983 34.8347 16.758 35.6291C16.8998 35.8742 17.2138 35.9583 17.4589 35.8161C17.8547 35.5868 18.3573 35.6528 18.6814 35.9769C19.0768 36.3723 19.0769 37.0124 18.6814 37.4081C18.4812 37.6083 18.4812 37.933 18.6814 38.1331C18.8816 38.3333 19.2062 38.3333 19.4064 38.1331C20.2026 37.3369 20.2028 36.0481 19.4064 35.2518C18.8789 34.7244 18.116 34.5367 17.4218 34.7286L17.2623 34.4526V29.6503C17.2623 29.4379 17.4351 29.265 17.6475 29.265C17.8599 29.265 18.0328 29.4378 18.0328 29.6503V33.1967C18.0328 33.4798 18.2623 33.7094 18.5455 33.7094C18.8286 33.7094 19.0582 33.4798 19.0582 33.1967C19.0582 31.9519 19.0582 30.4794 19.0582 28.5781C19.0582 28.3657 19.231 28.1929 19.4434 28.1929C19.6558 28.1929 19.8287 28.3657 19.8287 28.5781V33.1967C19.8287 33.4798 20.0582 33.7094 20.3414 33.7094C20.6245 33.7094 20.854 33.4798 20.854 33.1967V29.6503C20.854 29.4379 21.0269 29.265 21.2392 29.265C21.4516 29.265 21.6245 29.4378 21.6245 29.6503V33.1967C21.6245 33.4798 21.8541 33.7094 22.1372 33.7094C22.4204 33.7094 22.6499 33.4798 22.6499 33.1967V30.8499C22.6499 30.6375 22.8227 30.4647 23.0351 30.4647C23.2475 30.4647 23.4204 30.6375 23.4204 30.8499V37.2227Z" fill="#00C2FF"/>
<path d="M43.6441 22.0928C43.4874 22.0957 43.3284 22.1258 43.174 22.1861C42.4717 22.46 42.1231 23.2542 42.397 23.9566C42.7256 24.7992 43.394 25.4378 44.2278 25.7263V25.9814C44.2278 26.7352 44.8411 27.3485 45.595 27.3485C46.3488 27.3485 46.9621 26.7352 46.9621 25.9814V25.724C48.165 25.3026 49.0003 24.1549 49.0003 22.8509C49.0003 21.724 48.3847 20.7381 47.4722 20.2119C47.6593 20.2165 47.8506 20.1818 48.034 20.1043C48.7283 19.8106 49.0543 19.0069 48.7606 18.3126C48.4226 17.5135 47.7667 16.9047 46.9621 16.6239V16.3672C46.9621 15.6133 46.3488 15 45.595 15C44.8411 15 44.2278 15.6133 44.2278 16.3672V16.6246C43.0249 17.046 42.1896 18.1937 42.1896 19.4978C42.1896 20.5941 42.7722 21.5569 43.6441 22.0928ZM44.8401 17.5177C45.0802 17.4702 45.2532 17.2595 45.2532 17.0148V16.3672C45.2532 16.1787 45.4065 16.0254 45.595 16.0254C45.7834 16.0254 45.9368 16.1787 45.9368 16.3672V17.0147C45.9368 17.2596 46.1099 17.4703 46.3502 17.5177C47.0066 17.6473 47.5547 18.0937 47.8162 18.712C47.8896 18.8855 47.8082 19.0865 47.6345 19.1599C47.461 19.2334 47.26 19.1519 47.1866 18.9782C46.9771 18.483 46.4943 18.1629 45.9566 18.1629H45.2333C44.4973 18.1629 43.8986 18.7617 43.8986 19.4977C43.8986 20.2337 44.4973 20.8325 45.2333 20.8325H45.9566C47.0695 20.8325 47.975 21.738 47.975 22.8509C47.975 23.8115 47.2914 24.6441 46.3498 24.8307C46.1097 24.8783 45.9368 25.0889 45.9368 25.3337V25.9814C45.9368 26.1698 45.7834 26.3232 45.595 26.3232C45.4065 26.3232 45.2532 26.1698 45.2532 25.9814V25.3345C45.2532 25.0892 45.0794 24.8783 44.8386 24.8314C44.161 24.6992 43.6054 24.2329 43.3523 23.584C43.2838 23.4084 43.371 23.2098 43.5466 23.1413C43.7221 23.0728 43.9207 23.16 43.9892 23.3356C44.1906 23.852 44.6789 24.1856 45.2333 24.1856H45.9566C46.6926 24.1856 47.2914 23.5869 47.2914 22.8509C47.2914 22.1148 46.6926 21.5161 45.9566 21.5161H45.2333C44.1204 21.5161 43.215 20.6107 43.215 19.4977C43.215 18.5371 43.8984 17.7044 44.8401 17.5177ZM46.604 19.8764C46.3953 19.831 46.1787 19.8071 45.9566 19.8071H45.2333C45.0627 19.8071 44.9239 19.6683 44.9239 19.4977C44.9239 19.3271 45.0628 19.1883 45.2333 19.1883H45.9566C46.0815 19.1883 46.1936 19.2626 46.2422 19.3777C46.3261 19.5759 46.4514 19.7441 46.604 19.8764ZM44.6245 22.4803C44.8213 22.5205 45.0248 22.5415 45.2333 22.5415H45.9566C46.1272 22.5415 46.266 22.6804 46.266 22.8509C46.266 23.0215 46.1272 23.1603 45.9566 23.1603H45.2333C45.1026 23.1603 44.992 23.0848 44.9445 22.9631C44.8712 22.7751 44.7606 22.6125 44.6245 22.4803Z" fill="#00C2FF"/>
</svg>
