<svg width="823" height="328" viewBox="-20 0 823 328" fill="none" xmlns="http://www.w3.org/2000/svg">
<path opacity="0.3" d="M313.33 327.5H313.83V327V1V0.5H313.33H211.213H210.713V1V165.994L103.536 0.727944L103.388 0.5H103.117H1H0.5V1V327V327.5H1H103.117H103.617V327V164.746L210.796 327.275L210.944 327.5H211.213H313.33ZM568.349 0.5H341.066H340.566V1V327V327.5H341.066H443.183H443.683V327V204.559H535.18H535.68V204.059V127.164V126.664H535.18H443.683V82.5395H568.349H568.849H571.059H571.559H653.906V327V327.5H654.406H756.523H757.023V327V82.5395H843H843.5V82.0395V1V0.5H843H571.559H571.059H568.849H568.349Z" stroke="url(#paint0_linear)"/>
<defs>
<linearGradient id="paint0_linear" x1="550.105" y1="0.99999" x2="505.581" y2="293.718" gradientUnits="userSpaceOnUse">
<stop stop-color="#FF0099"/>
<stop offset="0.223307" stop-color="#6A2FE7"/>
<stop offset="0.885417" stop-color="#6A2FE7" stop-opacity="0"/>
</linearGradient>
</defs>
</svg>
