<svg width="13" height="14" viewBox="0 0 13 14" fill="none" xmlns="http://www.w3.org/2000/svg">
<path d="M2.52828 13.1515H10.4717C11.8659 13.1515 13 12.1937 13 11.0164V4.63397C13 4.42576 12.7983 4.25541 12.5517 4.25541H9.86207V3.68758C9.86207 2.12226 8.35362 0.848419 6.5 0.848419C4.64638 0.848419 3.13793 2.12226 3.13793 3.68758V4.25541H0.448276C0.201724 4.25541 0 4.42576 0 4.63397V11.0164C0 12.1937 1.13414 13.1515 2.52828 13.1515ZM4.03448 3.68758C4.03448 2.53867 5.13948 1.60553 6.5 1.60553C7.86052 1.60553 8.96552 2.53867 8.96552 3.68758V4.25541H4.03448V3.68758ZM0.896552 5.01252H3.13793V5.95891C3.13793 6.16711 3.33966 6.33746 3.58621 6.33746C3.83276 6.33746 4.03448 6.16711 4.03448 5.95891V5.01252H8.96552V5.95891C8.96552 6.16711 9.16724 6.33746 9.41379 6.33746C9.66035 6.33746 9.86207 6.16711 9.86207 5.95891V5.01252H12.1034V11.0164C12.1034 11.7754 11.3705 12.3943 10.4717 12.3943H2.52828C1.62948 12.3943 0.896552 11.7754 0.896552 11.0164V5.01252Z" fill="#7E7E7E"/>
</svg>
