<svg width="13" height="16" viewBox="0 0 13 16" fill="none" xmlns="http://www.w3.org/2000/svg">
<path d="M1.7931 6.71267V8.89108C1.7931 9.54658 1.19017 10.0793 0.448276 10.0793C0.201724 10.0793 0 10.2575 0 10.4754V12.8518C0 13.0697 0.201724 13.2479 0.448276 13.2479H4.26983C4.3819 14.248 5.33897 15.0302 6.5 15.0302C7.66103 15.0302 8.6181 14.248 8.73017 13.2479H12.5517C12.7983 13.2479 13 13.0697 13 12.8518V10.4754C13 10.2575 12.7983 10.0793 12.5517 10.0793C11.8098 10.0793 11.2069 9.54658 11.2069 8.89108V6.80377C11.2069 5.08877 10.0369 3.58171 8.38052 2.91631C8.39621 2.82917 8.40517 2.74203 8.40517 2.65292C8.40517 1.72413 7.55121 0.969604 6.5 0.969604C5.44879 0.969604 4.59483 1.72413 4.59483 2.65292C4.59483 2.73807 4.60379 2.82125 4.61724 2.90443C4.11069 3.10048 3.64224 3.36981 3.23207 3.72034C2.30414 4.5105 1.7931 5.57396 1.7931 6.71267ZM6.5 14.2381C5.83431 14.2381 5.28293 13.8083 5.17534 13.2479H7.82466C7.71707 13.8083 7.16569 14.2381 6.5 14.2381ZM6.5 1.76175C7.05586 1.76175 7.50862 2.16179 7.50862 2.65292V2.65688C7.23741 2.60143 6.95724 2.56578 6.67034 2.55786C6.2669 2.54598 5.87241 2.58162 5.49138 2.6549C5.49138 2.6549 5.49138 2.6549 5.49138 2.65292C5.49138 2.16179 5.94414 1.76175 6.5 1.76175ZM5.21345 3.54606C5.25379 3.5421 5.29414 3.53418 5.33224 3.52032C5.34569 3.51438 5.35914 3.50844 5.37259 3.50052C5.77828 3.38962 6.20414 3.33615 6.64121 3.35001C8.66293 3.4114 10.3103 4.96203 10.3103 6.80377V8.89108C10.3103 9.8476 11.0814 10.6477 12.1034 10.8318V12.4557H0.896552V10.8318C1.91862 10.6477 2.68966 9.8476 2.68966 8.89108V6.71267C2.68966 5.78982 3.10431 4.93034 3.85517 4.29068C4.24966 3.95402 4.71138 3.70449 5.21345 3.54606Z" fill="#7E7E7E"/>
<path d="M4.14655 10.6734H8.85345C9.1 10.6734 9.30172 10.4952 9.30172 10.2773C9.30172 10.0595 9.1 9.88126 8.85345 9.88126H4.14655C3.9 9.88126 3.69828 10.0595 3.69828 10.2773C3.69828 10.4952 3.9 10.6734 4.14655 10.6734Z" fill="#7E7E7E"/>
</svg>
