<svg width="64" height="64" viewBox="0 0 64 64" fill="none" xmlns="http://www.w3.org/2000/svg">
<ellipse cx="32.1937" cy="32" rx="31.3755" ry="32" fill="#00C2FF" fill-opacity="0.15"/>
<path d="M43.6032 41.1182C43.6032 40.0822 42.9694 39.1914 42.0694 38.8131C42.2518 38.4663 42.3551 38.0716 42.3551 37.6534C42.3551 36.2755 41.234 35.1544 39.8559 35.1544H36.5323V30.9094C40.8225 29.7977 44 25.893 44 21.2601C44 15.7645 39.529 11.2935 34.0333 11.2935C32.6601 11.2935 31.3289 11.5684 30.0766 12.1106C29.688 12.2789 29.5095 12.7303 29.6777 13.1188C29.8459 13.5074 30.2975 13.6861 30.6859 13.5177C31.7446 13.0592 32.8709 12.8268 34.0333 12.8268C38.6835 12.8268 42.4667 16.61 42.4667 21.2601C42.4667 25.9102 38.6835 29.6934 34.0333 29.6934C29.3832 29.6934 25.6 25.9102 25.6 21.2601C25.6 20.0973 25.8325 18.971 26.2911 17.9122C26.4594 17.5237 26.2809 17.0723 25.8924 16.904C25.5041 16.7357 25.0524 16.9142 24.8842 17.3028C24.3417 18.555 24.0666 19.8865 24.0666 21.2601C24.0666 25.893 27.2442 29.7976 31.5343 30.9094V34.374H31.4071C29.1623 34.374 27.0303 35.3064 25.5024 36.9441H21.7666C21.5632 36.9441 21.3682 37.0249 21.2244 37.1688C21.0806 37.3127 20.9998 37.5078 21 37.7112L21.0053 47.2104C21.0056 47.6336 21.3487 47.9766 21.772 47.9766H25.5064C27.0383 49.6144 29.1689 50.5467 31.4071 50.5467L39.2654 50.5467C40.6434 50.5467 41.7645 49.4256 41.7645 48.0476C41.7645 47.6198 41.6565 47.2168 41.4662 46.8643C42.3372 46.4734 42.9454 45.5978 42.9454 44.5829C42.9454 44.0636 42.7861 43.5807 42.514 43.1806C43.1711 42.7301 43.6032 41.9736 43.6032 41.1182ZM34.0333 31.2267C34.3591 31.2267 34.6812 31.2105 34.999 31.1798V35.1544H33.0677V35.1407V31.1798C33.3854 31.2105 33.7075 31.2267 34.0333 31.2267ZM41.1041 42.0841H40.4465C40.0231 42.0841 39.6798 42.4273 39.6798 42.8507C39.6798 43.2742 40.0231 43.6174 40.4465 43.6174C40.9789 43.6174 41.412 44.0506 41.412 44.583C41.412 45.1155 40.9789 45.5487 40.4465 45.5487H39.2654C38.8421 45.5487 38.4988 45.8919 38.4988 46.3154C38.4988 46.7387 38.842 47.082 39.2654 47.082C39.798 47.082 40.2312 47.5153 40.2312 48.0478C40.2312 48.5803 39.798 49.0136 39.2654 49.0136L31.4071 49.0133C29.498 49.0133 27.6843 48.1742 26.4312 46.7112C26.2856 46.5411 26.0728 46.4432 25.8489 46.4432H22.5383L22.5338 38.4774H25.8454C26.0699 38.4774 26.2829 38.3792 26.4286 38.2085C27.6768 36.7461 29.4914 35.9073 31.4071 35.9073H31.5342V35.921C31.5342 36.3444 31.8775 36.6877 32.3008 36.6877H39.8559C40.3884 36.6877 40.8217 37.1208 40.8217 37.6534C40.8217 38.1859 40.3885 38.6191 39.8559 38.6191C39.4325 38.6191 39.0892 38.9624 39.0892 39.3858C39.0892 39.8092 39.4325 40.1525 39.8559 40.1525H41.104C41.6365 40.1525 42.0697 40.5857 42.0697 41.1181C42.0698 41.6507 41.6367 42.0841 41.1041 42.0841Z" fill="#00C2FF"/>
<path d="M35.2539 21.625L34.1225 20.4936L32.9968 21.6194L34.1169 22.7507L35.2539 21.625ZM37.0117 19.8672L35.9264 18.6915L35.9029 18.7132L35.8803 18.7358L37.0117 19.8672ZM37.0117 19.0938L35.8803 20.2251L35.9029 20.2477L35.9264 20.2694L37.0117 19.0938ZM36.625 18.707L35.4493 19.7923L35.471 19.8158L35.4936 19.8384L36.625 18.707ZM35.8515 18.707L36.9829 19.8384L37.0055 19.8158L37.0272 19.7923L35.8515 18.707ZM34.0937 20.4648L32.968 21.6018L34.0993 22.722L35.2251 21.5962L34.0937 20.4648ZM32.3183 18.707L31.1427 19.7923L31.167 19.8187L31.1926 19.844L32.3183 18.707ZM31.5449 18.707L32.6763 19.8384L32.6989 19.8158L32.7206 19.7923L31.5449 18.707ZM31.1582 19.0938L32.2434 20.2694L32.2669 20.2477L32.2896 20.2251L31.1582 19.0938ZM31.1582 19.8672L32.2896 18.7358L32.2669 18.7132L32.2434 18.6915L31.1582 19.8672ZM32.916 21.625L34.053 22.7507L35.1731 21.6194L34.0474 20.4936L32.916 21.625ZM31.1582 23.4004L32.2434 24.5761L32.2699 24.5517L32.2952 24.5261L31.1582 23.4004ZM31.1582 24.1738L32.2896 23.0425L32.2669 23.0198L32.2434 22.9981L31.1582 24.1738ZM31.5449 24.5605L32.7206 23.4753L32.6989 23.4518L32.6763 23.4292L31.5449 24.5605ZM32.3183 24.5605L31.1926 23.4236L31.167 23.4489L31.1427 23.4753L32.3183 24.5605ZM34.0937 22.8027L35.2251 21.6714L34.0993 20.5456L32.968 21.6657L34.0937 22.8027ZM35.8515 24.5605L37.0272 23.4753L37.0055 23.4518L36.9829 23.4292L35.8515 24.5605ZM36.625 24.5605L35.4936 23.4292L35.471 23.4518L35.4493 23.4753L36.625 24.5605ZM37.0117 24.1738L35.9264 22.9981L35.9029 23.0198L35.8803 23.0425L37.0117 24.1738ZM37.0117 23.4004L35.8747 24.5261L35.9 24.5517L35.9264 24.5761L37.0117 23.4004ZM36.3853 22.7564L38.1431 20.9986L35.8803 18.7358L34.1225 20.4936L36.3853 22.7564ZM38.0969 21.0429C39.0118 20.1984 39.0118 18.7625 38.0969 17.9181L35.9264 20.2694C35.4686 19.8468 35.4686 19.1141 35.9264 18.6915L38.0969 21.0429ZM38.1431 17.9624L37.7564 17.5757L35.4936 19.8384L35.8803 20.2251L38.1431 17.9624ZM37.8007 17.6218C36.9562 16.7069 35.5203 16.7069 34.6759 17.6218L37.0272 19.7923C36.6046 20.2501 35.8719 20.2501 35.4493 19.7923L37.8007 17.6218ZM34.7202 17.5757L32.9624 19.3335L35.2251 21.5962L36.9829 19.8384L34.7202 17.5757ZM35.2195 19.3279L33.4441 17.57L31.1926 19.844L32.968 21.6018L35.2195 19.3279ZM33.494 17.6218C32.6495 16.7069 31.2137 16.7069 30.3692 17.6218L32.7206 19.7923C32.298 20.2501 31.5653 20.2501 31.1427 19.7923L33.494 17.6218ZM30.4135 17.5757L30.0268 17.9624L32.2896 20.2251L32.6763 19.8384L30.4135 17.5757ZM30.0729 17.9181C29.1581 18.7625 29.1581 20.1984 30.0729 21.0429L32.2434 18.6915C32.7013 19.1141 32.7013 19.8468 32.2434 20.2694L30.0729 17.9181ZM30.0268 20.9986L31.7846 22.7564L34.0474 20.4936L32.2896 18.7358L30.0268 20.9986ZM31.779 20.4993L30.0212 22.2747L32.2952 24.5261L34.053 22.7507L31.779 20.4993ZM30.0729 22.2247C29.1581 23.0692 29.1581 24.505 30.0729 25.3495L32.2434 22.9981C32.7013 23.4207 32.7013 24.1535 32.2434 24.5761L30.0729 22.2247ZM30.0268 25.3052L30.4135 25.6919L32.6763 23.4292L32.2896 23.0425L30.0268 25.3052ZM30.3692 25.6458C31.2137 26.5606 32.6495 26.5606 33.494 25.6458L31.1427 23.4753C31.5653 23.0175 32.298 23.0175 32.7206 23.4753L30.3692 25.6458ZM33.4441 25.6975L35.2195 23.9397L32.968 21.6657L31.1926 23.4236L33.4441 25.6975ZM32.9624 23.9341L34.7202 25.6919L36.9829 23.4292L35.2251 21.6714L32.9624 23.9341ZM34.6759 25.6458C35.5203 26.5606 36.9562 26.5606 37.8007 25.6458L35.4493 23.4753C35.8719 23.0175 36.6046 23.0175 37.0272 23.4753L34.6759 25.6458ZM37.7564 25.6919L38.1431 25.3052L35.8803 23.0425L35.4936 23.4292L37.7564 25.6919ZM38.0969 25.3495C39.0118 24.505 39.0118 23.0692 38.0969 22.2247L35.9264 24.5761C35.4686 24.1535 35.4686 23.4207 35.9264 22.9981L38.0969 25.3495ZM38.1487 22.2747L36.3909 20.4993L34.1169 22.7507L35.8747 24.5261L38.1487 22.2747Z" fill="#00C2FF"/>
<path d="M27.5279 15.5212C27.7242 15.5212 27.9206 15.4463 28.0703 15.2965C28.3697 14.9972 28.3697 14.5117 28.0703 14.2123C27.7708 13.9129 27.2855 13.9129 26.986 14.2123L26.9856 14.2127C26.6862 14.5121 26.6865 14.9973 26.9859 15.2967C27.1356 15.4464 27.3318 15.5212 27.5279 15.5212Z" fill="#00C2FF"/>
</svg>
