<svg width="11" height="13" viewBox="0 0 11 13" fill="none" xmlns="http://www.w3.org/2000/svg">
<path d="M5.5 0.5C2.85156 2.89062 1 5.67969 1 7.55469C1 10.4609 2.85156 12.5 5.5 12.5C8.14844 12.5 10 10.4609 10 7.55469C10 5.67969 8.10156 2.86719 5.5 0.5ZM3.29688 9.54688C3.29688 9.21875 3.41406 8.09375 5.5 5.75C7.5625 8.09375 7.67969 9.21875 7.67969 9.54688C7.67969 10.6719 7 11.5156 5.96875 11.7031C5.80469 11.7266 5.66406 11.75 5.5 11.75C5.3125 11.75 5.17188 11.7266 5.00781 11.7031C3.97656 11.5156 3.29688 10.6719 3.29688 9.54688ZM8.26562 10.4609C8.35938 10.1797 8.42969 9.875 8.42969 9.54688C8.42969 7.64844 5.78125 4.95312 5.5 4.625C5.19531 4.97656 2.54688 7.64844 2.54688 9.54688C2.54688 9.875 2.61719 10.1797 2.71094 10.4609C2.10156 9.73438 1.75 8.72656 1.75 7.55469C1.75 5.42188 4.60938 2.49219 5.5 1.64844C6.36719 2.49219 9.25 5.42188 9.25 7.55469C9.25 8.72656 8.875 9.73438 8.26562 10.4609Z" fill="#7E7E7E"/>
<path d="M5.5 0.5L5.6346 0.352072L5.50054 0.230087L5.36599 0.351537L5.5 0.5ZM5.5 5.75L5.65014 5.61787L5.50085 5.44822L5.3506 5.61703L5.5 5.75ZM5.96875 11.7031L5.99705 11.9013L6.00453 11.8999L5.96875 11.7031ZM5.00781 11.7031L4.97201 11.9L4.97953 11.9011L5.00781 11.7031ZM8.26562 10.4609L8.07589 10.3977L8.41886 10.5895L8.26562 10.4609ZM5.5 4.625L5.65185 4.49484L5.50084 4.31866L5.34886 4.49401L5.5 4.625ZM2.71094 10.4609L2.5577 10.5895L2.90067 10.3977L2.71094 10.4609ZM5.5 1.64844L5.63947 1.50509L5.50185 1.37119L5.36245 1.50325L5.5 1.64844ZM5.36599 0.351537C4.03116 1.55643 2.8939 2.86448 2.08878 4.11227C1.28738 5.35429 0.8 6.55982 0.8 7.55469H1.2C1.2 6.67455 1.6384 5.54805 2.42489 4.32914C3.20766 3.11599 4.3204 1.8342 5.63401 0.648463L5.36599 0.351537ZM0.8 7.55469C0.8 9.05023 1.27681 10.3368 2.10887 11.2517C2.94219 12.1681 4.12167 12.7 5.5 12.7V12.3C4.2299 12.3 3.15937 11.8124 2.4048 10.9826C1.64897 10.1515 1.2 8.96539 1.2 7.55469H0.8ZM5.5 12.7C6.87833 12.7 8.05781 12.1681 8.89113 11.2517C9.72319 10.3368 10.2 9.05023 10.2 7.55469H9.8C9.8 8.96539 9.35103 10.1515 8.5952 10.9826C7.84063 11.8124 6.7701 12.3 5.5 12.3V12.7ZM10.2 7.55469C10.2 6.55896 9.70011 5.34715 8.89339 4.1031C8.08264 2.85282 6.9457 1.54506 5.6346 0.352072L5.3654 0.647928C6.65586 1.82213 7.76892 3.10421 8.55778 4.32073C9.35068 5.54348 9.8 6.67542 9.8 7.55469H10.2ZM3.49688 9.54688C3.49688 9.28748 3.58001 8.20812 5.6494 5.88297L5.3506 5.61703C3.24812 7.97938 3.09687 9.15002 3.09687 9.54688H3.49688ZM5.34986 5.88213C7.39592 8.20719 7.47969 9.2868 7.47969 9.54688H7.87969C7.87969 9.1507 7.72908 7.98031 5.65014 5.61787L5.34986 5.88213ZM7.47969 9.54688C7.47969 10.5832 6.86149 11.3375 5.93297 11.5064L6.00453 11.8999C7.13851 11.6937 7.87969 10.7606 7.87969 9.54688H7.47969ZM5.94047 11.5051C5.77056 11.5294 5.64649 11.55 5.5 11.55V11.95C5.68164 11.95 5.83882 11.9237 5.99703 11.9011L5.94047 11.5051ZM5.5 11.55C5.32961 11.55 5.20423 11.5292 5.0361 11.5051L4.97953 11.9011C5.13952 11.924 5.29539 11.95 5.5 11.95V11.55ZM5.04359 11.5064C4.11507 11.3375 3.49688 10.5832 3.49688 9.54688H3.09687C3.09687 10.7606 3.83806 11.6937 4.97204 11.8999L5.04359 11.5064ZM8.45536 10.5242C8.5532 10.2307 8.62969 9.90366 8.62969 9.54688H8.22969C8.22969 9.84634 8.16555 10.1287 8.07589 10.3977L8.45536 10.5242ZM8.62969 9.54688C8.62969 9.02936 8.45034 8.4735 8.19167 7.9363C7.93181 7.39662 7.58443 6.86062 7.23167 6.37891C6.52862 5.41885 5.78177 4.64642 5.65185 4.49484L5.34815 4.75516C5.49948 4.93171 6.21747 5.67099 6.90895 6.61524C7.25346 7.08567 7.58577 7.59997 7.83128 8.10984C8.07798 8.6222 8.22969 9.11517 8.22969 9.54688H8.62969ZM5.34886 4.49401C5.20688 4.65785 4.45447 5.42973 3.74823 6.38714C3.39395 6.86742 3.04574 7.40128 2.78542 7.93925C2.52628 8.47478 2.34687 9.02926 2.34687 9.54688H2.74688C2.74688 9.11527 2.89852 8.62385 3.14548 8.11348C3.39127 7.60555 3.72421 7.09352 4.07013 6.62458C4.76428 5.68355 5.48844 4.94372 5.65114 4.75599L5.34886 4.49401ZM2.34687 9.54688C2.34687 9.90366 2.42336 10.2307 2.5212 10.5242L2.90067 10.3977C2.81101 10.1287 2.74688 9.84634 2.74688 9.54688H2.34687ZM2.86418 10.3324C2.28948 9.6472 1.95 8.68702 1.95 7.55469H1.55C1.55 8.76611 1.91365 9.82155 2.5577 10.5895L2.86418 10.3324ZM1.95 7.55469C1.95 7.06337 2.11557 6.51135 2.39102 5.93722C2.66551 5.36505 3.04278 4.78392 3.45117 4.23796C4.26803 3.14592 5.19674 2.21124 5.63755 1.79363L5.36245 1.50325C4.91263 1.92939 3.96635 2.88143 3.13086 3.99837C2.71308 4.5569 2.31984 5.16083 2.03037 5.7642C1.74185 6.3656 1.55 6.97959 1.55 7.55469H1.95ZM5.36053 1.79178C5.79149 2.21109 6.72038 3.14604 7.54025 4.23823C7.95017 4.78431 8.32962 5.36549 8.60591 5.93767C8.88317 6.51187 9.05 7.0637 9.05 7.55469H9.45C9.45 6.97927 9.25648 6.36509 8.96611 5.76374C8.67478 5.16039 8.27932 4.55651 7.86014 3.9981C7.02181 2.88131 6.0757 1.92953 5.63947 1.50509L5.36053 1.79178ZM9.05 7.55469C9.05 8.68381 8.68893 9.64499 8.11239 10.3324L8.41886 10.5895C9.06107 9.82376 9.45 8.76932 9.45 7.55469H9.05Z" fill="#7E7E7E"/>
</svg>
