<svg width="15" height="13" viewBox="0 0 15 13" fill="none" xmlns="http://www.w3.org/2000/svg">
<path d="M3.625 6.5H11.875C12.0625 6.5 12.25 6.33594 12.25 6.125V0.875C12.25 0.6875 12.0625 0.5 11.875 0.5H3.625C3.41406 0.5 3.25 0.6875 3.25 0.875V6.125C3.25 6.33594 3.41406 6.5 3.625 6.5ZM7 1.25H8.5V3.05469L7.75 2.67969L7 3.05469V1.25ZM4 1.25H6.25V4.25L7.75 3.5L9.25 4.25V1.25H11.5V5.75H4V1.25ZM14.0781 8.32812C13.8438 8.11719 13.5625 8.02344 13.2578 8.02344C12.9531 8.02344 12.6719 8.11719 12.4375 8.30469L10.9844 9.45312C10.9609 9.5 10.8906 9.5 10.8438 9.5H9.85938C9.97656 9.28906 10.0234 9.03125 9.97656 8.75C9.88281 8.09375 9.27344 7.625 8.61719 7.625H5.24219C4.75 7.625 4.28125 7.78906 3.88281 8.09375L2.99219 8.75H1.1875C1.07031 8.75 1 8.84375 1 8.9375V9.3125C1 9.42969 1.07031 9.5 1.1875 9.5H3.25L4.32812 8.67969C4.60938 8.49219 4.91406 8.375 5.24219 8.375H8.6875C8.99219 8.375 9.25 8.63281 9.25 8.9375C9.25 9.26562 8.99219 9.5 8.6875 9.5H6.625C6.41406 9.5 6.25 9.6875 6.25 9.875C6.25 10.0859 6.41406 10.25 6.625 10.25H10.8438C11.0547 10.25 11.2891 10.1797 11.4531 10.0391L12.9062 8.89062C13 8.82031 13.1406 8.77344 13.2578 8.77344C13.375 8.77344 13.4922 8.79688 13.5625 8.89062C13.8203 9.10156 13.7969 9.45312 13.5625 9.66406L11.1953 11.5391C11.0078 11.6797 10.7969 11.7734 10.5625 11.7734H1.1875C1.07031 11.7734 1 11.8438 1 11.9609V12.3359C1 12.4297 1.07031 12.5234 1.1875 12.5234H10.5625C10.9609 12.5234 11.3359 12.3828 11.6641 12.125L14.0312 10.2266C14.3125 10.0156 14.4766 9.66406 14.5 9.28906C14.5 8.9375 14.3594 8.58594 14.0781 8.32812Z" fill="#7E7E7E"/>
<path d="M7 1.25V1.05H6.8V1.25H7ZM8.5 1.25H8.7V1.05H8.5V1.25ZM8.5 3.05469L8.41056 3.23357L8.7 3.37829V3.05469H8.5ZM7.75 2.67969L7.83944 2.5008L7.75 2.45608L7.66056 2.5008L7.75 2.67969ZM7 3.05469H6.8V3.37829L7.08944 3.23357L7 3.05469ZM4 1.25V1.05H3.8V1.25H4ZM6.25 1.25H6.45V1.05H6.25V1.25ZM6.25 4.25H6.05V4.57361L6.33944 4.42889L6.25 4.25ZM7.75 3.5L7.83944 3.32111L7.75 3.27639L7.66056 3.32111L7.75 3.5ZM9.25 4.25L9.16056 4.42889L9.45 4.57361V4.25H9.25ZM9.25 1.25V1.05H9.05V1.25H9.25ZM11.5 1.25H11.7V1.05H11.5V1.25ZM11.5 5.75V5.95H11.7V5.75H11.5ZM4 5.75H3.8V5.95H4V5.75ZM14.0781 8.32812L14.2133 8.18069L14.2119 8.17947L14.0781 8.32812ZM12.4375 8.30469L12.5615 8.4616L12.5624 8.46086L12.4375 8.30469ZM10.9844 9.45312L10.8604 9.29621L10.8254 9.32384L10.8055 9.36368L10.9844 9.45312ZM9.85938 9.5L9.68454 9.40287L9.51947 9.7H9.85938V9.5ZM9.97656 8.75L9.77852 8.77829L9.77928 8.78288L9.97656 8.75ZM3.88281 8.09375L4.00147 8.25479L4.0043 8.25262L3.88281 8.09375ZM2.99219 8.75V8.95H3.05791L3.11083 8.91101L2.99219 8.75ZM3.25 9.5V9.7H3.31744L3.3711 9.65917L3.25 9.5ZM4.32812 8.67969L4.21697 8.51295L4.20702 8.52052L4.32812 8.67969ZM11.4531 10.0391L11.329 9.88203L11.323 9.88721L11.4531 10.0391ZM12.9062 8.89062L12.7862 8.73057L12.7822 8.73371L12.9062 8.89062ZM13.5625 8.89062L13.4025 9.01062L13.4171 9.03004L13.4359 9.04542L13.5625 8.89062ZM13.5625 9.66406L13.6869 9.82115L13.6963 9.81272L13.5625 9.66406ZM11.1953 11.5391L11.3154 11.6991L11.3195 11.6958L11.1953 11.5391ZM11.6641 12.125L11.7876 12.2823L11.7892 12.281L11.6641 12.125ZM14.0312 10.2266L13.9112 10.0665L13.9061 10.0705L14.0312 10.2266ZM14.5 9.28906L14.7 9.30156V9.28906H14.5ZM3.625 6.7H11.875V6.3H3.625V6.7ZM11.875 6.7C12.1648 6.7 12.45 6.45433 12.45 6.125H12.05C12.05 6.21754 11.9602 6.3 11.875 6.3V6.7ZM12.45 6.125V0.875H12.05V6.125H12.45ZM12.45 0.875C12.45 0.716204 12.3726 0.574148 12.2742 0.475766C12.1759 0.377384 12.0338 0.3 11.875 0.3V0.7C11.9037 0.7 11.9491 0.716366 11.9914 0.758609C12.0336 0.800852 12.05 0.846296 12.05 0.875H12.45ZM11.875 0.3H3.625V0.7H11.875V0.3ZM3.625 0.3C3.29567 0.3 3.05 0.58515 3.05 0.875H3.45C3.45 0.78985 3.53246 0.7 3.625 0.7V0.3ZM3.05 0.875V6.125H3.45V0.875H3.05ZM3.05 6.125C3.05 6.44639 3.30361 6.7 3.625 6.7V6.3C3.52452 6.3 3.45 6.22548 3.45 6.125H3.05ZM7 1.45H8.5V1.05H7V1.45ZM8.3 1.25V3.05469H8.7V1.25H8.3ZM8.58944 2.8758L7.83944 2.5008L7.66056 2.85857L8.41056 3.23357L8.58944 2.8758ZM7.66056 2.5008L6.91056 2.8758L7.08944 3.23357L7.83944 2.85857L7.66056 2.5008ZM7.2 3.05469V1.25H6.8V3.05469H7.2ZM4 1.45H6.25V1.05H4V1.45ZM6.05 1.25V4.25H6.45V1.25H6.05ZM6.33944 4.42889L7.83944 3.67889L7.66056 3.32111L6.16056 4.07111L6.33944 4.42889ZM7.66056 3.67889L9.16056 4.42889L9.33944 4.07111L7.83944 3.32111L7.66056 3.67889ZM9.45 4.25V1.25H9.05V4.25H9.45ZM9.25 1.45H11.5V1.05H9.25V1.45ZM11.3 1.25V5.75H11.7V1.25H11.3ZM11.5 5.55H4V5.95H11.5V5.55ZM4.2 5.75V1.25H3.8V5.75H4.2ZM14.2119 8.17947C13.9368 7.93187 13.6062 7.82344 13.2578 7.82344V8.22344C13.5188 8.22344 13.7507 8.3025 13.9443 8.47678L14.2119 8.17947ZM13.2578 7.82344C12.9104 7.82344 12.5844 7.93103 12.3126 8.14851L12.5624 8.46086C12.7593 8.30334 12.9959 8.22344 13.2578 8.22344V7.82344ZM12.3135 8.14778L10.8604 9.29621L11.1084 9.61004L12.5615 8.4616L12.3135 8.14778ZM10.8055 9.36368C10.8185 9.33757 10.8376 9.32024 10.8536 9.3103C10.8679 9.30141 10.8785 9.29911 10.8795 9.2989C10.8808 9.29861 10.8787 9.29916 10.8714 9.29956C10.8641 9.29996 10.8561 9.3 10.8438 9.3V9.7C10.8632 9.7 10.9148 9.70081 10.9662 9.68938C11.017 9.6781 11.112 9.64499 11.1633 9.54257L10.8055 9.36368ZM10.8438 9.3H9.85938V9.7H10.8438V9.3ZM10.0342 9.59713C10.1747 9.3443 10.2277 9.04029 10.1738 8.71712L9.77928 8.78288C9.81917 9.02221 9.77846 9.23382 9.68454 9.40287L10.0342 9.59713ZM10.1746 8.72172C10.0651 7.95531 9.36076 7.425 8.61719 7.425V7.825C9.18612 7.825 9.70056 8.23219 9.77857 8.77828L10.1746 8.72172ZM8.61719 7.425H5.24219V7.825H8.61719V7.425ZM5.24219 7.425C4.70419 7.425 4.1931 7.60469 3.76132 7.93488L4.0043 8.25262C4.3694 7.97343 4.79581 7.825 5.24219 7.825V7.425ZM3.76417 7.93274L2.87355 8.58899L3.11083 8.91101L4.00145 8.25476L3.76417 7.93274ZM2.99219 8.55H1.1875V8.95H2.99219V8.55ZM1.1875 8.55C0.94383 8.55 0.8 8.75003 0.8 8.9375H1.2C1.2 8.9389 1.19977 8.93971 1.19957 8.94024C1.19935 8.94081 1.19876 8.94207 1.19724 8.94374C1.19556 8.94557 1.19305 8.94752 1.18999 8.94888C1.18674 8.95032 1.18536 8.95 1.1875 8.95V8.55ZM0.8 8.9375V9.3125H1.2V8.9375H0.8ZM0.8 9.3125C0.8 9.4112 0.830395 9.51363 0.908383 9.59162C0.986372 9.66961 1.0888 9.7 1.1875 9.7V9.3C1.17804 9.3 1.17533 9.29857 1.17735 9.29931C1.17982 9.30021 1.1854 9.30295 1.19123 9.30877C1.19705 9.3146 1.19979 9.32018 1.20069 9.32265C1.20143 9.32467 1.2 9.32196 1.2 9.3125H0.8ZM1.1875 9.7H3.25V9.3H1.1875V9.7ZM3.3711 9.65917L4.44923 8.83885L4.20702 8.52052L3.1289 9.34083L3.3711 9.65917ZM4.43906 8.8461C4.69715 8.67404 4.96377 8.575 5.24219 8.575V8.175C4.86435 8.175 4.5216 8.31033 4.21719 8.51328L4.43906 8.8461ZM5.24219 8.575H8.6875V8.175H5.24219V8.575ZM8.6875 8.575C8.88173 8.575 9.05 8.74327 9.05 8.9375H9.45C9.45 8.52236 9.10264 8.175 8.6875 8.175V8.575ZM9.05 8.9375C9.05 9.14974 8.88724 9.3 8.6875 9.3V9.7C9.09714 9.7 9.45 9.38151 9.45 8.9375H9.05ZM8.6875 9.3H6.625V9.7H8.6875V9.3ZM6.625 9.3C6.29567 9.3 6.05 9.58515 6.05 9.875H6.45C6.45 9.78985 6.53246 9.7 6.625 9.7V9.3ZM6.05 9.875C6.05 10.1964 6.30361 10.45 6.625 10.45V10.05C6.52452 10.05 6.45 9.97548 6.45 9.875H6.05ZM6.625 10.45H10.8438V10.05H6.625V10.45ZM10.8438 10.45C11.0928 10.45 11.3763 10.3684 11.5833 10.1909L11.323 9.88721C11.2019 9.99101 11.0166 10.05 10.8438 10.05V10.45ZM11.5771 10.196L13.0303 9.04754L12.7822 8.73371L11.3291 9.88215L11.5771 10.196ZM13.0262 9.05062C13.0854 9.00628 13.1839 8.97344 13.2578 8.97344V8.57344C13.0974 8.57344 12.9146 8.63435 12.7863 8.73063L13.0262 9.05062ZM13.2578 8.97344C13.3048 8.97344 13.3398 8.97839 13.3645 8.98661C13.3867 8.99402 13.3964 9.0025 13.4025 9.01062L13.7225 8.77063C13.5927 8.59758 13.3898 8.57344 13.2578 8.57344V8.97344ZM13.4359 9.04542C13.585 9.16747 13.5858 9.37406 13.4287 9.5154L13.6963 9.81272C14.008 9.53219 14.0556 9.03565 13.6891 8.73583L13.4359 9.04542ZM13.4383 9.50729L11.0711 11.3823L11.3195 11.6958L13.6867 9.82084L13.4383 9.50729ZM11.0753 11.3791C10.9106 11.5026 10.7408 11.5734 10.5625 11.5734V11.9734C10.8529 11.9734 11.1051 11.8568 11.3153 11.6991L11.0753 11.3791ZM10.5625 11.5734H1.1875V11.9734H10.5625V11.5734ZM1.1875 11.5734C1.0888 11.5734 0.986372 11.6038 0.908383 11.6818C0.830395 11.7598 0.8 11.8622 0.8 11.9609H1.2C1.2 11.9515 1.20143 11.9488 1.20069 11.9508C1.19979 11.9533 1.19705 11.9588 1.19123 11.9647C1.1854 11.9705 1.17982 11.9732 1.17735 11.9741C1.17533 11.9749 1.17804 11.9734 1.1875 11.9734V11.5734ZM0.8 11.9609V12.3359H1.2V11.9609H0.8ZM0.8 12.3359C0.8 12.5234 0.94383 12.7234 1.1875 12.7234V12.3234C1.18536 12.3234 1.18674 12.3231 1.18999 12.3246C1.19305 12.3259 1.19556 12.3279 1.19724 12.3297C1.19876 12.3314 1.19935 12.3326 1.19957 12.3332C1.19977 12.3337 1.2 12.3345 1.2 12.3359H0.8ZM1.1875 12.7234H10.5625V12.3234H1.1875V12.7234ZM10.5625 12.7234C11.0104 12.7234 11.4281 12.5647 11.7876 12.2823L11.5405 11.9677C11.2437 12.2009 10.9114 12.3234 10.5625 12.3234V12.7234ZM11.7892 12.281L14.1564 10.3826L13.9061 10.0705L11.5389 11.969L11.7892 12.281ZM14.1512 10.3866C14.488 10.134 14.6733 9.72324 14.6996 9.30154L14.3004 9.27659C14.2799 9.60488 14.137 9.89727 13.9113 10.0666L14.1512 10.3866ZM14.7 9.28906C14.7 8.88425 14.5379 8.47824 14.2133 8.18069L13.943 8.47556C14.1809 8.69363 14.3 8.99075 14.3 9.28906H14.7Z" fill="#7E7E7E"/>
</svg>
