<svg width="14" height="13" viewBox="0 0 14 13" fill="none" xmlns="http://www.w3.org/2000/svg">
<path d="M13.9806 12.6958V12.6953H13.9841V8.22423C13.9841 6.03695 13.4355 4.35205 10.4564 4.35205C9.02424 4.35205 8.06315 5.02662 7.67079 5.66614H7.62936V4.55625H4.80469V12.6953H7.74594V8.66514C7.74594 7.60401 7.9803 6.57793 9.51129 6.57793C11.0198 6.57793 11.0423 7.78891 11.0423 8.7332V12.6958H13.9806Z" fill="#C4C4C4"/>
<path d="M0.03125 4.35205H2.96869V12.6958H0.03125V4.35205Z" fill="#C4C4C4"/>
<path d="M1.68359 0.527832C0.771422 0.527832 0.03125 1.22537 0.03125 2.08499C0.03125 2.94462 0.771422 3.65674 1.68359 3.65674C2.59577 3.65674 3.33594 2.94462 3.33594 2.08499C3.33536 1.22537 2.59519 0.527832 1.68359 0.527832V0.527832Z" fill="#C4C4C4"/>
</svg>
