<svg width="234" height="234" viewBox="0 0 234 234" fill="none" xmlns="http://www.w3.org/2000/svg">
<path d="M143.454 117.644C145.826 114.586 144.244 116.888 171.101 70.4282C174.42 64.6862 172.453 57.3515 166.708 54.0345C161.519 51.0383 155 52.3709 151.357 56.9041V22.2411C151.357 15.624 145.973 10.2403 139.356 10.2403C137.51 10.2403 135.76 10.6594 134.195 11.4075C133.883 5.06638 128.626 0.00354004 122.209 0.00354004C115.792 0.00354004 110.535 5.06638 110.223 11.4075C108.659 10.6594 106.909 10.2403 105.062 10.2403C98.445 10.2403 93.0613 15.624 93.0613 22.2411V22.8544C91.5011 22.1109 89.7562 21.6945 87.9158 21.6945C81.2986 21.6945 75.9149 27.0782 75.9149 33.6954V74.5623C75.9149 76.4553 77.4496 77.99 79.3426 77.99C81.2355 77.99 82.7702 76.4553 82.7702 74.5623V33.6954C82.7702 30.8582 85.0786 28.5498 87.9158 28.5498C90.7529 28.5498 93.0613 30.8582 93.0613 33.6954V56.1016C93.0613 57.9945 94.596 59.5292 96.489 59.5292C98.3819 59.5292 99.9166 57.9945 99.9166 56.1016V22.2411C99.9166 19.4039 102.225 17.0956 105.062 17.0956C107.899 17.0956 110.208 19.4039 110.208 22.2411V56.1016C110.208 57.9945 111.742 59.5292 113.635 59.5292C115.528 59.5292 117.063 57.9945 117.063 56.1016V12.0044C117.063 9.1672 119.371 6.85881 122.209 6.85881C125.046 6.85881 127.354 9.1672 127.354 12.0044V56.1016C127.354 57.9945 128.889 59.5292 130.782 59.5292C132.675 59.5292 134.209 57.9945 134.209 56.1016V22.2411C134.209 19.4039 136.518 17.0956 139.355 17.0956C142.192 17.0956 144.501 19.4039 144.501 22.2411V68.4858L142.194 72.4765C135.79 70.2645 128.529 71.8312 123.599 76.762C116.586 83.7745 116.586 95.1844 123.599 102.197C124.937 103.535 127.107 103.535 128.446 102.197C129.785 100.858 129.785 98.6883 128.446 97.3497C124.107 93.0099 124.107 85.949 128.446 81.6096C132.009 78.0462 137.538 77.3195 141.891 79.8423C143.529 80.792 145.629 80.2326 146.577 78.5919C147.831 76.4233 146.592 78.5658 156.154 62.0213L156.252 61.8531C157.671 59.398 160.823 58.5539 163.279 59.9721C165.736 61.3906 166.582 64.5445 165.163 67.001C138.203 113.657 139.967 110.953 138.036 113.442C134.792 117.625 133.004 122.864 133.003 128.194V136.188H94.2665V128.2C94.266 122.836 92.5029 117.628 89.3028 113.535C85.0283 108.067 82.7688 101.499 82.7688 94.5413V90.558C82.7688 88.665 81.2342 87.1303 79.3412 87.1303C77.4482 87.1303 75.9136 88.665 75.9136 90.558V94.5413C75.9136 103.044 78.6758 111.072 83.9018 117.757C86.164 120.65 87.4103 124.359 87.4108 128.201V136.188H86.7906C84.8976 136.188 83.363 137.723 83.363 139.616V155.544C82.0673 156.033 81.1455 157.285 81.1455 158.751V230.569C81.1455 232.462 82.6802 233.996 84.5731 233.996H142.695C144.588 233.996 146.123 232.462 146.123 230.569V158.751C146.123 157.284 145.201 156.033 143.905 155.544V139.616C143.905 137.723 142.371 136.188 140.478 136.188H139.858V128.196C139.86 124.379 141.137 120.632 143.454 117.644ZM136.431 143.044H137.052V155.324H90.2191V143.044H136.431ZM139.269 227.141H88.0022V162.179H139.269V227.141Z" fill="url(#paint0_linear)"/>
<path d="M229 129.94C225.246 127.773 220.728 128.337 217.648 130.876V106.294C217.648 100.785 213.166 96.3026 207.657 96.3026C206.514 96.3026 205.416 96.4955 204.392 96.8506C203.621 92.1022 199.492 88.4652 194.53 88.4652C189.567 88.4652 185.438 92.1022 184.667 96.8506C183.644 96.4955 182.545 96.3026 181.402 96.3026C176.131 96.3026 171.8 100.405 171.435 105.585C170.441 105.252 169.379 105.072 168.274 105.072C162.765 105.072 158.283 109.554 158.283 115.064V161.647C158.283 168.339 160.456 174.656 164.569 179.916C166.191 181.991 167.085 184.655 167.085 187.417V192.745C165.346 192.91 163.986 194.375 163.986 196.157V207.848C162.97 208.443 162.288 209.545 162.288 210.807V230.569C162.288 232.462 163.823 233.997 165.716 233.997H210.215C212.108 233.997 213.642 232.462 213.642 230.569V210.807C213.642 209.545 212.96 208.443 211.945 207.848V196.156C211.945 194.374 210.585 192.91 208.846 192.744V187.413C208.846 184.668 209.764 181.974 211.429 179.827C213.288 177.432 212.104 179.143 232.656 143.588C235.42 138.808 233.783 132.702 229 129.94ZM206.787 227.141H169.144V214.234H206.787V227.141ZM226.72 140.161C206.091 175.86 207.437 173.79 206.013 175.626C203.42 178.968 201.991 183.154 201.99 187.412V192.729H200.081C198.188 192.729 196.653 194.264 196.653 196.157C196.653 198.05 198.188 199.585 200.081 199.585H205.089V207.379H170.841V199.584H184.085C185.978 199.584 187.513 198.049 187.513 196.156C187.513 194.263 185.978 192.729 184.085 192.729H173.94V187.416C173.94 183.131 172.529 178.968 169.97 175.693C166.808 171.65 165.138 166.793 165.138 161.647V115.063C165.138 113.334 166.545 111.927 168.274 111.927C170.002 111.927 171.41 113.334 171.41 115.063V132.217C171.41 134.11 172.944 135.645 174.837 135.645C176.73 135.645 178.265 134.11 178.265 132.217C178.265 127.211 178.265 111.578 178.265 106.293C178.265 104.564 179.672 103.157 181.401 103.157C183.13 103.157 184.537 104.564 184.537 106.293V132.217C184.537 134.11 186.072 135.645 187.965 135.645C189.858 135.645 191.392 134.11 191.392 132.217C191.392 120.965 191.392 108.043 191.392 98.4565C191.392 96.7272 192.799 95.3205 194.528 95.3205C196.258 95.3205 197.664 96.7276 197.664 98.4565V132.217C197.664 134.11 199.199 135.645 201.092 135.645C202.985 135.645 204.52 134.11 204.52 132.217V106.293C204.52 104.564 205.926 103.157 207.656 103.157C209.385 103.157 210.792 104.564 210.792 106.293V141.483L209.458 143.792C204.429 142.309 198.858 143.634 195.025 147.467C189.343 153.149 189.343 162.394 195.025 168.076C196.363 169.414 198.534 169.414 199.872 168.076C201.21 166.737 201.21 164.567 199.872 163.229C196.863 160.22 196.863 155.323 199.872 152.314C202.343 149.843 206.176 149.34 209.195 151.089C210.832 152.038 212.932 151.478 213.881 149.838C213.881 149.838 217.161 144.171 217.187 144.125C217.227 144.055 216.713 144.945 221.286 137.026L221.29 137.018C222.156 135.527 224.067 135.009 225.57 135.877C227.073 136.744 227.587 138.66 226.72 140.161Z" fill="url(#paint1_linear)"/>
<path d="M60.4049 96.5375C59.4918 96.5375 58.6084 96.6682 57.773 96.9114C57.2552 92.1972 53.2485 88.5169 48.3986 88.5169C47.4394 88.5169 46.5134 88.6608 45.6405 88.9282C44.7781 84.6116 40.9588 81.349 36.3923 81.349C31.8258 81.349 28.007 84.6116 27.1441 88.9282C26.2712 88.6608 25.3448 88.5169 24.386 88.5169C19.1861 88.5169 14.9554 92.7475 14.9554 97.9479V119.842C12.0351 117.74 8.03162 117.408 4.71961 119.321C0.205645 121.927 -1.3409 127.691 1.26776 132.203C20.0548 164.702 18.9781 163.155 20.7043 165.381C22.1877 167.293 23.0054 169.693 23.0058 172.139V176.759C21.3953 177.04 20.1714 178.445 20.1714 180.136V190.665C19.2363 191.277 18.6189 192.334 18.6189 193.535V230.569C18.6189 232.462 20.1536 233.997 22.0465 233.997H62.7444C64.6374 233.997 66.1721 232.462 66.1721 230.569V223.598C66.1721 221.705 64.6374 220.17 62.7444 220.17C60.8515 220.17 59.3168 221.705 59.3168 223.598V227.141H25.4742V196.963H59.3168V207.602C59.3168 209.495 60.8515 211.029 62.7444 211.029C64.6374 211.029 66.1721 209.495 66.1721 207.602V193.535C66.1721 192.334 65.5542 191.278 64.6196 190.665V180.136C64.6196 178.445 63.3957 177.04 61.7851 176.759V172.143C61.7856 169.681 62.5808 167.309 64.0241 165.463C67.826 160.6 69.8355 154.76 69.8355 148.574V105.969C69.836 100.768 65.6054 96.5375 60.4049 96.5375ZM27.0267 190.107V183.563H57.7638V190.107H27.0267ZM62.9807 148.574C62.9807 153.214 61.4739 157.594 58.6235 161.24C56.2424 164.286 54.9303 168.157 54.9299 172.142V176.708H29.8611V172.137C29.8602 168.178 28.5316 164.286 26.1208 161.179C24.8284 159.513 26.1277 161.514 7.20442 128.775C6.49238 127.543 6.91421 125.969 8.14679 125.257C9.37617 124.548 10.9542 124.971 11.6649 126.199C13.5853 129.525 15.3658 132.609 18.4388 137.919C19.3871 139.558 21.4862 140.12 23.1251 139.17C25.7712 137.637 29.1312 138.078 31.2979 140.244C33.9418 142.888 33.9422 147.168 31.2979 149.813C29.9593 151.152 29.9593 153.322 31.2979 154.66C32.6365 155.999 34.8069 155.999 36.1451 154.66C41.468 149.337 41.4693 140.721 36.1451 135.397C32.6187 131.871 27.5179 130.616 22.8769 131.899L21.8107 130.054V97.9479C21.8107 96.5279 22.9661 95.3721 24.386 95.3721C25.806 95.3721 26.9618 96.5275 26.9618 97.9479V121.658C26.9618 123.55 28.4964 125.085 30.3894 125.085C32.2824 125.085 33.817 123.55 33.817 121.658C33.817 113.335 33.817 103.491 33.817 90.78C33.817 89.3601 34.9724 88.2043 36.3923 88.2043C37.8123 88.2043 38.9681 89.3596 38.9681 90.78V121.658C38.9681 123.55 40.5027 125.085 42.3957 125.085C44.2887 125.085 45.8233 123.55 45.8233 121.658V97.9479C45.8233 96.5279 46.9787 95.3721 48.3986 95.3721C49.8186 95.3721 50.9744 96.5275 50.9744 97.9479V121.658C50.9744 123.55 52.5091 125.085 54.402 125.085C56.295 125.085 57.8297 123.55 57.8297 121.658V105.968C57.8297 104.548 58.985 103.393 60.4049 103.393C61.8249 103.393 62.9807 104.548 62.9807 105.968V148.574Z" fill="url(#paint2_linear)"/>
<path d="M198.187 47.4224C197.139 47.4416 196.077 47.6432 195.044 48.0458C190.349 49.8771 188.019 55.1867 189.849 59.8826C192.046 65.5162 196.515 69.7857 202.089 71.7143V73.4194C202.089 78.4594 206.19 82.5598 211.23 82.5598C216.27 82.5598 220.37 78.4594 220.37 73.4194V71.6988C228.412 68.8812 233.997 61.2084 233.997 52.4903C233.997 44.9564 229.881 38.3652 223.78 34.8476C225.031 34.8782 226.31 34.6465 227.536 34.1282C232.178 32.1649 234.357 26.7913 232.394 22.1493C230.134 16.8073 225.749 12.7371 220.37 10.8601V9.14353C220.37 4.10354 216.27 0.00317383 211.23 0.00317383C206.19 0.00317383 202.089 4.10354 202.089 9.14353V10.8642C194.047 13.6817 188.463 21.3546 188.463 30.0731C188.463 37.4028 192.358 43.8399 198.187 47.4224ZM206.183 16.8356C207.788 16.5175 208.945 15.1094 208.945 13.4733V9.14353C208.945 7.88353 209.97 6.85844 211.23 6.85844C212.49 6.85844 213.515 7.88353 213.515 9.14353V13.4724C213.515 15.1099 214.672 16.5184 216.279 16.8351C220.668 17.7016 224.331 20.6864 226.08 24.8197C226.571 25.9801 226.026 27.3237 224.865 27.8145C223.705 28.3058 222.361 27.7606 221.87 26.5998C220.47 23.2887 217.242 21.1489 213.647 21.1489H208.812C203.891 21.1489 199.888 25.152 199.888 30.0727C199.888 34.9934 203.891 38.9964 208.812 38.9964H213.647C221.088 38.9964 227.141 45.05 227.141 52.4903C227.141 58.9128 222.572 64.4792 216.276 65.7269C214.671 66.045 213.515 67.4531 213.515 69.0892V73.4194C213.515 74.6794 212.49 75.7045 211.23 75.7045C209.97 75.7045 208.945 74.6794 208.945 73.4194V69.0951C208.945 67.4549 207.783 66.0445 206.173 65.731C201.643 64.8476 197.928 61.7303 196.236 57.3918C195.778 56.2177 196.361 54.8901 197.535 54.4322C198.709 53.9742 200.036 54.5569 200.494 55.731C201.841 59.1833 205.105 61.414 208.812 61.414H213.647C218.568 61.414 222.571 57.411 222.571 52.4903C222.571 47.5696 218.568 43.5666 213.647 43.5666H208.812C201.371 43.5666 195.318 37.5134 195.318 30.0727C195.318 23.6506 199.887 18.0833 206.183 16.8356ZM217.976 32.6045C216.58 32.3011 215.132 32.1411 213.647 32.1411H208.812C207.671 32.1411 206.744 31.2134 206.744 30.0727C206.744 28.9319 207.672 28.0042 208.812 28.0042H213.647C214.482 28.0042 215.232 28.501 215.557 29.2706C216.118 30.5955 216.956 31.7202 217.976 32.6045ZM204.741 50.0133C206.057 50.2815 207.418 50.4223 208.812 50.4223H213.647C214.788 50.4223 215.716 51.3505 215.716 52.4908C215.716 53.631 214.788 54.5592 213.647 54.5592H208.812C207.938 54.5592 207.198 54.0542 206.881 53.2407C206.391 51.9839 205.652 50.8967 204.741 50.0133Z" fill="url(#paint3_linear)"/>
<defs>
<linearGradient id="paint0_linear" x1="54.4023" y1="-108.636" x2="156.207" y2="-105.297" gradientUnits="userSpaceOnUse">
<stop stop-color="#6A2FE7"/>
<stop offset="1" stop-color="#FF0099"/>
</linearGradient>
<linearGradient id="paint1_linear" x1="141.457" y1="20.897" x2="221.039" y2="24.1793" gradientUnits="userSpaceOnUse">
<stop stop-color="#6A2FE7"/>
<stop offset="1" stop-color="#FF0099"/>
</linearGradient>
<linearGradient id="paint2_linear" x1="-15.519" y1="10.4769" x2="57.9094" y2="13.1399" gradientUnits="userSpaceOnUse">
<stop stop-color="#6A2FE7"/>
<stop offset="1" stop-color="#FF0099"/>
</linearGradient>
<linearGradient id="paint3_linear" x1="178.344" y1="-38.3267" x2="226.192" y2="-36.2347" gradientUnits="userSpaceOnUse">
<stop stop-color="#6A2FE7"/>
<stop offset="1" stop-color="#FF0099"/>
</linearGradient>
</defs>
</svg>
