<svg width="192" height="202" viewBox="0 0 192 202" fill="none" xmlns="http://www.w3.org/2000/svg">
<path d="M169.191 0H62.4452C49.8679 0 39.6359 10.2105 39.6359 22.7656V138.665C39.6359 140.299 40.9632 141.624 42.6012 141.624C44.2393 141.624 45.5665 140.299 45.5665 138.665V22.7605C45.5665 13.4732 53.138 5.91797 62.4452 5.91797C71.7524 5.91797 79.3239 13.4736 79.3239 22.7605C79.3239 32.0478 71.7524 39.6034 62.4452 39.6034C60.8072 39.6034 59.4799 40.9283 59.4799 42.5624C59.4799 44.1966 60.8072 45.5214 62.4452 45.5214H82.2395C83.8775 45.5214 85.2048 44.1966 85.2048 42.5624C85.2048 40.9283 83.8775 39.6034 82.2395 39.6034H77.7713C82.3656 35.4368 85.2546 29.4285 85.2546 22.7605C85.2546 16.0925 82.366 10.0846 77.7717 5.91797H169.191C178.498 5.91797 186.069 13.4736 186.069 22.7605C186.069 32.0478 178.498 39.6034 169.191 39.6034H96.0777C94.4396 39.6034 93.1124 40.9283 93.1124 42.5624C93.1124 44.1966 94.4396 45.5214 96.0777 45.5214H162.67V179.239C162.67 188.526 155.098 196.082 145.791 196.082H38.0836C42.6775 191.915 45.5665 185.907 45.5665 179.239C45.5665 173.694 45.5665 158.487 45.5665 152.473C45.5665 150.839 44.2393 149.514 42.6012 149.514C40.9632 149.514 39.6359 150.839 39.6359 152.473V156.478H2.96534C1.32728 156.478 0 157.803 0 159.437V179.239C0 191.766 10.194 201.961 22.739 202C22.7453 202 145.791 202 145.791 202C158.369 202 168.601 191.79 168.601 179.239V45.5214H169.191C181.768 45.5214 192 35.3109 192 22.7605C192 10.2105 181.768 0 169.191 0V0ZM22.7833 196.082C13.4883 196.067 5.93067 188.518 5.93067 179.239V162.397H39.6355V179.239C39.6355 188.518 32.0786 196.067 22.7833 196.082Z" fill="url(#paint0_linear)"/>
<path d="M149.048 61H58.9515C57.3211 61 56 62.3225 56 63.9538V81.0462C56 82.6775 57.3211 84 58.9515 84H124.755C126.386 84 127.707 82.6775 127.707 81.0462C127.707 79.4149 126.386 78.0924 124.755 78.0924H61.903V66.9076H146.097V78.0924H138.529C136.899 78.0924 135.578 79.4149 135.578 81.0462C135.578 82.6775 136.899 84 138.529 84H149.048C150.679 84 152 82.6775 152 81.0462V63.9538C152 62.3225 150.679 61 149.048 61Z" fill="url(#paint1_linear)"/>
<path d="M145.05 100C146.68 100 148 98.6568 148 97C148 95.3432 146.68 94 145.05 94H77.9498C76.3204 94 75 95.3432 75 97C75 98.6568 76.3204 100 77.9498 100H145.05Z" fill="url(#paint2_linear)"/>
<path d="M60 111C60 112.657 61.3342 114 62.9807 114H146.019C147.666 114 149 112.657 149 111C149 109.343 147.666 108 146.019 108H62.9807C61.3342 108 60 109.343 60 111Z" fill="url(#paint3_linear)"/>
<path d="M149 125C149 123.343 147.666 122 146.019 122H62.9807C61.3342 122 60 123.343 60 125C60 126.657 61.3342 128 62.9807 128H146.019C147.665 128 149 126.657 149 125Z" fill="url(#paint4_linear)"/>
<path d="M90.0583 142C91.6833 142 93 140.657 93 139C93 137.343 91.6833 136 90.0583 136H62.9417C61.3167 136 60 137.343 60 139C60 140.657 61.3167 142 62.9417 142H90.0583Z" fill="url(#paint5_linear)"/>
<path d="M128.149 186.597L138 180.97L147.851 186.597C149.83 187.728 152.363 186.331 152.363 184.03V158.74C154.032 156.145 155 153.07 155 149.775C155 140.525 147.374 133 138 133C128.626 133 121 140.525 121 149.775C121 153.069 121.967 156.145 123.637 158.739V184.03C123.637 186.308 126.142 187.743 128.149 186.597ZM139.506 174.976C138.575 174.443 137.425 174.443 136.494 174.976L129.648 178.886V164.382C132.197 165.807 135.059 166.55 138 166.55C140.94 166.55 143.803 165.807 146.351 164.382V178.886L139.506 174.976ZM138 138.932C144.059 138.932 148.988 143.796 148.988 149.775C148.988 155.773 144.041 160.618 138 160.618C131.941 160.618 127.012 155.754 127.012 149.775C127.012 143.796 131.941 138.932 138 138.932Z" fill="url(#paint6_linear)"/>
<path d="M60.0778 173.311C61.341 174.375 63.2041 174.184 64.2388 172.897L71.0843 164.386L71.8513 167.119C72.4252 169.164 74.8346 169.982 76.4892 168.687L79.9498 165.977L80.6648 170.53C80.8954 171.996 82.1322 173.074 83.5835 173.074H98.0439C99.6768 173.074 101 171.72 101 170.05C101 168.379 99.6768 167.025 98.0439 167.025H86.1025L85.002 160.018C84.648 157.764 82.0625 156.705 80.2868 158.096L76.3375 161.188L75.215 157.189C74.5571 154.847 71.5987 154.227 70.0911 156.101L59.673 169.054C58.6364 170.343 58.8173 172.25 60.0778 173.311Z" fill="url(#paint7_linear)"/>
<defs>
<linearGradient id="paint0_linear" x1="-42.6667" y1="-93.7858" x2="158.336" y2="-78.6404" gradientUnits="userSpaceOnUse">
<stop stop-color="#6A2FE7"/>
<stop offset="1" stop-color="#FF0099"/>
</linearGradient>
<linearGradient id="paint1_linear" x1="34.6667" y1="50.3214" x2="125.765" y2="80.4641" gradientUnits="userSpaceOnUse">
<stop stop-color="#6A2FE7"/>
<stop offset="1" stop-color="#FF0099"/>
</linearGradient>
<linearGradient id="paint2_linear" x1="58.7778" y1="91.2143" x2="98.5947" y2="129.618" gradientUnits="userSpaceOnUse">
<stop stop-color="#6A2FE7"/>
<stop offset="1" stop-color="#FF0099"/>
</linearGradient>
<linearGradient id="paint3_linear" x1="40.2222" y1="105.214" x2="79.5479" y2="151.457" gradientUnits="userSpaceOnUse">
<stop stop-color="#6A2FE7"/>
<stop offset="1" stop-color="#FF0099"/>
</linearGradient>
<linearGradient id="paint4_linear" x1="40.2222" y1="119.214" x2="79.5479" y2="165.457" gradientUnits="userSpaceOnUse">
<stop stop-color="#6A2FE7"/>
<stop offset="1" stop-color="#FF0099"/>
</linearGradient>
<linearGradient id="paint5_linear" x1="52.6667" y1="133.214" x2="81.8604" y2="145.943" gradientUnits="userSpaceOnUse">
<stop stop-color="#6A2FE7"/>
<stop offset="1" stop-color="#FF0099"/>
</linearGradient>
<linearGradient id="paint6_linear" x1="113.444" y1="107.929" x2="149.152" y2="109.711" gradientUnits="userSpaceOnUse">
<stop stop-color="#6A2FE7"/>
<stop offset="1" stop-color="#FF0099"/>
</linearGradient>
<linearGradient id="paint7_linear" x1="49.6667" y1="146.179" x2="92.5682" y2="153.696" gradientUnits="userSpaceOnUse">
<stop stop-color="#6A2FE7"/>
<stop offset="1" stop-color="#FF0099"/>
</linearGradient>
</defs>
</svg>
