<svg width="210" height="202" viewBox="0 0 210 202" fill="none" xmlns="http://www.w3.org/2000/svg">
<path d="M200.756 8.60062H127.276C127.127 8.20564 126.893 7.83527 126.575 7.5174C125.372 6.31564 123.425 6.31646 122.225 7.5174L121.472 8.27003L121.206 8.14534C121.122 6.14788 120.283 4.22302 118.864 2.8047L118.41 2.35066C115.276 -0.783347 110.203 -0.783758 107.069 2.35066L100.818 8.60062H9.24369C4.14668 8.60062 0 12.7473 0 17.8447V138.855C0 143.952 4.14668 148.099 9.24369 148.099H79.8176L73.6444 180.379H69.3365C63.5406 180.379 58.825 185.095 58.825 190.891V195.88C58.825 198.925 61.3028 201.402 64.3482 201.402H145.652C148.698 201.402 151.175 198.925 151.175 195.88V190.891C151.175 185.095 146.46 180.379 140.664 180.379H136.356L130.183 148.099H200.757C205.854 148.099 210 143.952 210 138.855V17.8447C210 12.7473 205.853 8.60062 200.756 8.60062ZM147.511 41.7097L127.307 61.9136C124.214 58.8206 104.815 39.4222 101.918 36.5245L122.122 16.3206C128.27 22.4692 143.497 37.6959 147.511 41.7097ZM156.676 49.3185L157.13 49.7725C157.858 50.5005 157.858 51.6855 157.13 52.4131L138.01 71.5334C137.283 72.261 136.097 72.261 135.37 71.5334L134.916 71.0793C134.559 70.7233 134.36 70.2299 134.369 69.7274C134.398 68.072 133.67 66.5188 132.442 65.4795L151.077 46.8452C152.115 48.0728 153.661 48.7898 155.324 48.7717C155.841 48.7652 156.321 48.9625 156.676 49.3185ZM49.7675 114.065C48.8008 113.098 48.8008 111.524 49.7675 110.557L68.2561 92.0682C69.4575 90.8669 69.4575 88.9191 68.2561 87.7181C67.0544 86.5168 65.107 86.5168 63.9056 87.7181L45.417 106.207C43.0976 108.526 42.3769 111.848 43.2543 114.791H18.457V27.4169H85.6037C85.6722 29.4558 86.4983 31.3631 87.9478 32.8121L88.4018 33.2662C89.8209 34.6849 91.745 35.5241 93.7429 35.6082L93.8671 35.874L93.1145 36.6266C91.9131 37.8279 91.9131 39.7758 93.1145 40.9767C94.3163 42.1781 96.2637 42.1781 97.465 40.9767L97.5672 40.8746L104.158 47.465L90.1257 61.4968C89.6052 61.1219 88.9772 60.916 88.3276 60.916C87.5118 60.916 86.7296 61.2401 86.1521 61.8172L78.8583 69.111C77.7759 70.1934 77.6688 71.8824 78.5375 73.0846L74.0123 77.6098C72.8109 78.8112 72.8109 80.759 74.0123 81.9599C75.214 83.1613 77.1615 83.1613 78.3628 81.9599L82.8602 77.4626L86.3678 80.9702L53.2748 114.063C52.3076 115.031 50.7343 115.031 49.7675 114.065ZM92.5448 78.4474L85.3843 71.2868L88.3276 68.3436L95.4881 75.5041L92.5448 78.4474ZM98.0122 69.3271L94.5049 65.8195L108.508 51.8159L112.016 55.3236L98.0122 69.3271ZM111.419 6.70077C111.771 6.34804 112.24 6.15404 112.738 6.15404C113.238 6.15404 113.706 6.34804 114.059 6.70077L114.513 7.15523C114.869 7.51124 115.069 8.00384 115.059 8.50833C115.031 10.1637 115.759 11.7162 116.986 12.7551L98.3522 31.3889C97.3325 30.1851 95.9023 29.4804 94.0734 29.4628C93.5808 29.4628 93.101 29.2647 92.7523 28.9161L92.2979 28.4616C91.9455 28.1093 91.7511 27.6405 91.7511 27.1413C91.7511 26.6426 91.9455 26.1738 92.2983 25.821L111.419 6.70077ZM130.092 180.379H99.8505C98.1512 180.379 96.7743 181.756 96.7743 183.455C96.7743 185.154 98.1512 186.531 99.8505 186.531H140.663C143.067 186.531 145.023 188.487 145.023 190.89V195.25H64.9774V190.89C64.9774 188.487 66.933 186.531 69.3365 186.531H85.495C87.1943 186.531 88.5712 185.154 88.5712 183.455C88.5712 181.756 87.1943 180.379 85.495 180.379H79.9075L86.0807 148.098H123.918L130.092 180.379ZM203.848 138.855C203.848 140.559 202.461 141.946 200.756 141.946C195.145 141.946 14.8583 141.946 9.24369 141.946C7.53908 141.946 6.15234 140.559 6.15234 138.855V17.8447C6.15234 16.1401 7.53908 14.7534 9.24369 14.7534H94.6657L88.1545 21.2646H15.3809C13.6816 21.2646 12.3047 22.6419 12.3047 24.3408V117.867C12.3047 119.566 13.6816 120.943 15.3809 120.943H194.619C196.318 120.943 197.695 119.566 197.695 117.867V90.7303C197.695 89.0314 196.318 87.6541 194.619 87.6541C192.92 87.6541 191.543 89.0314 191.543 90.7303V114.791H145.488V106.535C145.488 104.836 144.111 103.459 142.412 103.459H139.6L138.408 98.5745C137.643 95.4393 134.855 93.2499 131.628 93.2499H94.1735C90.9464 93.2499 88.1582 95.4397 87.3932 98.575L86.2013 103.459H83.3897C81.6904 103.459 80.3135 104.836 80.3135 106.535V114.791H61.2495L90.7463 85.2941C91.2815 85.6809 91.9131 85.8741 92.5448 85.8741C93.3319 85.8741 94.1194 85.5738 94.7203 84.9729L102.014 77.6791C102.591 77.1025 102.915 76.3199 102.915 75.5041C102.915 74.8544 102.709 74.226 102.334 73.706L116.366 59.6741L122.956 66.2645L122.854 66.367C121.652 67.5684 121.652 69.5162 122.854 70.7171C124.055 71.9185 126.003 71.9185 127.204 70.7171L127.957 69.9645L128.223 70.0888C128.307 72.0862 129.146 74.0111 130.565 75.4294L131.019 75.8835C134.153 79.0175 139.225 79.0183 142.36 75.8835L161.481 56.7632C164.607 53.6362 164.607 48.5486 161.481 45.422L161.027 44.9679C159.608 43.5492 157.683 42.71 155.685 42.626L155.561 42.3602L156.314 41.6075C157.515 40.4062 157.515 38.4584 156.314 37.2574C155.112 36.0561 153.165 36.0561 151.963 37.2574L151.861 37.3595L141.919 27.4169H191.543V76.3748C191.543 78.0737 192.92 79.451 194.619 79.451C196.318 79.451 197.695 78.0737 197.695 76.3748V24.3408C197.695 22.6419 196.318 21.2646 194.619 21.2646H135.767L129.255 14.753H200.756C202.461 14.753 203.848 16.1397 203.848 17.8443V138.855ZM86.4659 109.611H139.335V114.79H86.4659V109.611ZM92.5337 103.459L93.3696 100.033C93.4603 99.6615 93.7904 99.4018 94.1731 99.4018H131.627C132.01 99.4018 132.34 99.6615 132.431 100.033L133.267 103.459H92.5337V103.459Z" fill="url(#paint0_linear)"/>
<path d="M117.865 127.991H92.1353C90.436 127.991 89.0591 129.369 89.0591 131.068C89.0591 132.766 90.436 134.144 92.1353 134.144H117.865C119.564 134.144 120.941 132.766 120.941 131.068C120.941 129.369 119.564 127.991 117.865 127.991Z" fill="url(#paint1_linear)"/>
<defs>
<linearGradient id="paint0_linear" x1="-46.6668" y1="-93.5083" x2="172.928" y2="-75.3571" gradientUnits="userSpaceOnUse">
<stop stop-color="#6A2FE7"/>
<stop offset="1" stop-color="#FF0099"/>
</linearGradient>
<linearGradient id="paint1_linear" x1="81.9741" y1="125.135" x2="110.694" y2="136.933" gradientUnits="userSpaceOnUse">
<stop stop-color="#6A2FE7"/>
<stop offset="1" stop-color="#FF0099"/>
</linearGradient>
</defs>
</svg>
