<svg width="16" height="13" viewBox="0 -2 16 14" fill="none" xmlns="http://www.w3.org/2000/svg">
<path d="M13.5938 0.625L5.375 8.84375L2.375 5.8125C2.21875 5.6875 1.96875 5.6875 1.84375 5.8125L0.9375 6.71875C0.8125 6.84375 0.8125 7.09375 0.9375 7.25L5.125 11.4062C5.28125 11.5625 5.5 11.5625 5.65625 11.4062L15.0312 2.03125C15.1562 1.90625 15.1562 1.65625 15.0312 1.5L14.125 0.625C14 0.46875 13.75 0.46875 13.5938 0.625ZM13.5938 32.625L5.375 40.8438L2.375 37.8125C2.21875 37.6875 1.96875 37.6875 1.84375 37.8125L0.9375 38.7188C0.8125 38.8438 0.8125 39.0938 0.9375 39.25L5.125 43.4062C5.28125 43.5625 5.5 43.5625 5.65625 43.4062L15.0312 34.0312C15.1562 33.9062 15.1562 33.6562 15.0312 33.5L14.125 32.625C14 32.4688 13.75 32.4688 13.5938 32.625ZM13.5938 84.625L5.375 92.8438L2.375 89.8125C2.21875 89.6875 1.96875 89.6875 1.84375 89.8125L0.9375 90.7188C0.8125 90.8438 0.8125 91.0938 0.9375 91.25L5.125 95.4062C5.28125 95.5625 5.5 95.5625 5.65625 95.4062L15.0312 86.0312C15.1562 85.9062 15.1562 85.6562 15.0312 85.5L14.125 84.625C14 84.4688 13.75 84.4688 13.5938 84.625ZM13.5938 136.625L5.375 144.844L2.375 141.812C2.21875 141.688 1.96875 141.688 1.84375 141.812L0.9375 142.719C0.8125 142.844 0.8125 143.094 0.9375 143.25L5.125 147.406C5.28125 147.562 5.5 147.562 5.65625 147.406L15.0312 138.031C15.1562 137.906 15.1562 137.656 15.0312 137.5L14.125 136.625C14 136.469 13.75 136.469 13.5938 136.625ZM13.5938 188.625L5.375 196.844L2.375 193.812C2.21875 193.688 1.96875 193.688 1.84375 193.812L0.9375 194.719C0.8125 194.844 0.8125 195.094 0.9375 195.25L5.125 199.406C5.28125 199.562 5.5 199.562 5.65625 199.406L15.0312 190.031C15.1562 189.906 15.1562 189.656 15.0312 189.5L14.125 188.625C14 188.469 13.75 188.469 13.5938 188.625Z" fill="#fff"/>
</svg>
