<svg width="8" height="14" viewBox="0 0 8 14" fill="none" xmlns="http://www.w3.org/2000/svg">
<path d="M2.12773 7.50152C2.07522 7.50152 0.920008 7.50152 0.394911 7.50152C0.11486 7.50152 0.0273438 7.40209 0.0273438 7.15351C0.0273438 6.49064 0.0273438 5.81119 0.0273438 5.14831C0.0273438 4.88316 0.132363 4.8003 0.394911 4.8003H2.12773C2.12773 4.75059 2.12773 3.78941 2.12773 3.34197C2.12773 2.6791 2.25025 2.04936 2.60032 1.46934C2.96788 0.872756 3.49298 0.47503 4.1581 0.243023C4.59568 0.0938755 5.03326 0.0275879 5.50585 0.0275879H7.22116C7.46621 0.0275879 7.57123 0.127019 7.57123 0.359026V2.24823C7.57123 2.48023 7.46621 2.57966 7.22116 2.57966C6.74858 2.57966 6.27599 2.57966 5.8034 2.59624C5.33082 2.59624 5.08577 2.81167 5.08577 3.27568C5.06827 3.77284 5.08577 4.25343 5.08577 4.76716H7.11614C7.3962 4.76716 7.50121 4.86659 7.50121 5.13174V7.13694C7.50121 7.40209 7.4137 7.48495 7.11614 7.48495C6.48603 7.48495 5.13828 7.48495 5.08577 7.48495V12.8874C5.08577 13.1691 4.99826 13.2686 4.6832 13.2686C3.94806 13.2686 3.23043 13.2686 2.4953 13.2686C2.23275 13.2686 2.12773 13.1691 2.12773 12.9205C2.12773 11.1805 2.12773 7.55124 2.12773 7.50152Z" fill="#C4C4C4"/>
</svg>
