<svg width="16" height="16" viewBox="0 0 16 16" fill="none" xmlns="http://www.w3.org/2000/svg">
<path d="M8.20023 15.5491C8.14753 15.5491 8.09484 15.5491 8.04179 15.5488C6.79443 15.5517 5.64188 15.5217 4.52103 15.4569C3.49342 15.3976 2.55541 15.0607 1.80826 14.4827C1.08733 13.9249 0.595013 13.1708 0.345031 12.2414C0.127465 11.4324 0.115931 10.6381 0.104883 9.86995C0.0968696 9.31878 0.0886138 8.66566 0.0869141 8.00148C0.0886138 7.33454 0.0968696 6.68143 0.104883 6.13025C0.115931 5.36218 0.127465 4.56795 0.345031 3.75876C0.595013 2.82942 1.08733 2.07528 1.80826 1.51754C2.55541 0.939527 3.49342 0.602602 4.52115 0.54328C5.64201 0.478659 6.79479 0.44848 8.04482 0.45136C9.29255 0.448826 10.4447 0.478659 11.5656 0.54328C12.5932 0.602602 13.5312 0.939527 14.2783 1.51754C14.9994 2.07528 15.4916 2.82942 15.7416 3.75876C15.9591 4.56784 15.9707 5.36218 15.9817 6.13025C15.9897 6.68143 15.9981 7.33454 15.9997 7.99872V8.00148C15.9981 8.66566 15.9897 9.31878 15.9817 9.86995C15.9707 10.638 15.9593 11.4322 15.7416 12.2414C15.4916 13.1708 14.9994 13.9249 14.2783 14.4827C13.5312 15.0607 12.5932 15.3976 11.5656 15.4569C10.4922 15.5189 9.38955 15.5491 8.20023 15.5491ZM8.04179 14.3693C9.26887 14.3721 10.3956 14.3427 11.4901 14.2796C12.2671 14.2348 12.9408 13.9955 13.4927 13.5685C14.0029 13.1738 14.3542 12.6292 14.537 11.9498C14.7181 11.2763 14.7285 10.5531 14.7386 9.85382C14.7465 9.30634 14.7548 8.65783 14.7565 8.0001C14.7548 7.34226 14.7465 6.69387 14.7386 6.14638C14.7285 5.44707 14.7181 4.72392 14.537 4.0503C14.3542 3.37092 14.0029 2.82631 13.4927 2.43156C12.9408 2.00467 12.2671 1.76543 11.4901 1.72062C10.3956 1.65738 9.26887 1.62824 8.0447 1.63077C6.81786 1.62801 5.69106 1.65738 4.59655 1.72062C3.81953 1.76543 3.14583 2.00467 2.5939 2.43156C2.08374 2.82631 1.73238 3.37092 1.54966 4.0503C1.36851 4.72392 1.35807 5.44696 1.34799 6.14638C1.3401 6.69433 1.33185 7.34318 1.33015 8.00148C1.33185 8.6569 1.3401 9.30587 1.34799 9.85382C1.35807 10.5531 1.36851 11.2763 1.54966 11.9498C1.73238 12.6292 2.08374 13.1738 2.5939 13.5685C3.14583 13.9954 3.81953 14.2347 4.59655 14.2795C5.69106 14.3427 6.8181 14.3722 8.04179 14.3693ZM8.01216 11.6861C5.87001 11.6861 4.12706 10.0326 4.12706 8.0001C4.12706 5.96761 5.87001 4.31408 8.01216 4.31408C10.1544 4.31408 11.8973 5.96761 11.8973 8.0001C11.8973 10.0326 10.1544 11.6861 8.01216 11.6861ZM8.01216 5.49361C6.55549 5.49361 5.37029 6.61807 5.37029 8.0001C5.37029 9.38213 6.55549 10.5066 8.01216 10.5066C9.46896 10.5066 10.654 9.38213 10.654 8.0001C10.654 6.61807 9.46896 5.49361 8.01216 5.49361ZM12.3324 3.13455C11.8175 3.13455 11.4 3.53057 11.4 4.0192C11.4 4.50783 11.8175 4.90384 12.3324 4.90384C12.8474 4.90384 13.2648 4.50783 13.2648 4.0192C13.2648 3.53057 12.8474 3.13455 12.3324 3.13455Z" fill="#C4C4C4"/>
</svg>
