<svg width="15" height="13" viewBox="0 0 15 13" fill="none" xmlns="http://www.w3.org/2000/svg">
<path d="M14.5291 2.16298C13.9888 2.40021 13.413 2.55745 12.8128 2.6338C13.4303 2.26478 13.9016 1.68489 14.1231 0.985936C13.5474 1.32951 12.9118 1.57219 12.2344 1.70762C11.6877 1.125 10.9086 0.76416 10.0586 0.76416C8.4096 0.76416 7.082 2.1039 7.082 3.74632C7.082 3.98263 7.10198 4.20986 7.15102 4.42619C4.67472 4.3053 2.48356 3.11735 1.01159 1.30769C0.754603 1.75397 0.603864 2.26478 0.603864 2.81468C0.603864 3.84721 1.13508 4.76249 1.92692 5.29238C1.44836 5.28329 0.978895 5.14423 0.581162 4.92518C0.581162 4.93427 0.581162 4.94609 0.581162 4.9579C0.581162 6.40672 1.61363 7.61012 2.96756 7.88734C2.72511 7.95369 2.46086 7.9855 2.18662 7.9855C1.99593 7.9855 1.80342 7.9746 1.62271 7.9346C2.00864 9.11529 3.10377 9.9833 4.40594 10.0115C3.39253 10.805 2.1058 11.2831 0.712832 11.2831C0.468562 11.2831 0.234281 11.2721 0 11.2422C1.31942 12.0938 2.88311 12.5801 4.56939 12.5801C10.0505 12.5801 13.0471 8.03549 13.0471 4.09625C13.0471 3.96446 13.0425 3.83721 13.0362 3.71087C13.6273 3.29095 14.1241 2.7665 14.5291 2.16298Z" fill="#C4C4C4"/>
</svg>
