<svg width="17" height="13" viewBox="0 0 17 13" fill="none" xmlns="http://www.w3.org/2000/svg">
<path d="M8.66794 12.5801C8.66655 12.5801 8.66503 12.5801 8.66351 12.5801C8.16248 12.5767 3.73311 12.5369 2.47818 12.2027C1.60115 11.9706 0.908828 11.2896 0.672437 10.4258C0.344073 9.21187 0.364976 6.87471 0.367256 6.68809C0.365102 6.50234 0.343946 4.14584 0.671423 2.92193C0.671803 2.92081 0.672057 2.91956 0.672437 2.91844C0.906168 2.06454 1.61408 1.36245 2.47603 1.12967C2.47818 1.12905 2.48047 1.12855 2.48262 1.12793C3.72336 0.806824 8.16146 0.767528 8.66351 0.76416H8.67251C9.17481 0.767528 13.616 0.807323 14.8594 1.14202C15.7341 1.37356 16.4259 2.05368 16.6629 2.91632C17.0036 4.1411 16.9721 6.50271 16.9686 6.70206C16.971 6.89841 16.9909 9.21462 16.6645 10.4347C16.6642 10.4359 16.6638 10.437 16.6636 10.4381C16.4271 11.3019 15.7349 11.9829 14.8568 12.2153C14.8557 12.2157 14.8544 12.2159 14.8533 12.2163C13.6127 12.5373 9.17443 12.5766 8.67251 12.5801C8.67099 12.5801 8.66947 12.5801 8.66794 12.5801ZM1.92534 3.24952C1.63701 4.32984 1.66424 6.65628 1.6645 6.67973V6.69657C1.65588 7.34177 1.68616 9.21025 1.92546 10.0952C2.04151 10.519 2.38292 10.8547 2.81592 10.9693C3.74185 11.216 7.34942 11.2935 8.66794 11.3027C9.98989 11.2935 13.6028 11.2181 14.5219 10.9813C14.9535 10.8663 15.2938 10.5317 15.4106 10.1074C15.6501 9.2095 15.6801 7.35013 15.6714 6.70904C15.6714 6.70231 15.6714 6.69557 15.6715 6.68884C15.6834 6.0359 15.66 4.14559 15.4117 3.25351C15.4114 3.25264 15.4112 3.25177 15.4111 3.25089C15.2945 2.82525 14.953 2.48956 14.52 2.37491C13.603 2.12803 9.98963 2.05069 8.66794 2.04158C7.34689 2.05069 3.73755 2.12604 2.81567 2.36256C2.3909 2.47858 2.04176 2.82625 1.92534 3.24952ZM7.0146 9.25878V4.08534L11.5549 6.67212L7.0146 9.25878Z" fill="#C4C4C4"/>
</svg>
