<svg width="13" height="13" viewBox="0 0 13 13" fill="none" xmlns="http://www.w3.org/2000/svg">
    <path d="M11.9823 5.01012C11.7728 4.78555 11.6763 4.47944 11.719 4.16905L11.7576 3.88583C11.8734 3.0376 11.3275 2.25661 10.5141 2.10927L10.2425 2.05921C9.94612 2.00485 9.69384 1.81604 9.55322 1.53998L9.42363 1.28823C9.03624 0.531545 8.15256 0.232592 7.41087 0.610217L7.16272 0.734661C6.89252 0.87198 6.58095 0.87198 6.31075 0.734661L6.06398 0.608786C5.32229 0.232592 4.43861 0.530114 4.05122 1.2868L3.92163 1.53855C3.77964 1.81461 3.52873 2.00485 3.23233 2.05778L2.96075 2.10784C2.14737 2.25517 1.60144 3.03617 1.71725 3.8844L1.75585 4.16762C1.79858 4.47801 1.70208 4.78412 1.49253 5.00869L1.30091 5.21324C0.726032 5.82831 0.726032 6.79383 1.30091 7.4089L1.49253 7.61488C1.70208 7.83945 1.79858 8.14556 1.75585 8.45595L1.71725 8.73917C1.60144 9.5874 2.14737 10.3684 2.96075 10.5157L3.23233 10.5658C3.52873 10.6201 3.78101 10.809 3.92163 11.085L4.05122 11.3368C4.32556 11.8717 4.84667 12.1778 5.3926 12.1778C5.61731 12.1778 5.84754 12.1249 6.06398 12.0148L6.31075 11.8918C6.58095 11.7544 6.89252 11.7544 7.16272 11.8918L7.40949 12.0176C8.15118 12.3938 9.03487 12.0963 9.42225 11.3396L9.55184 11.0879C9.69384 10.8118 9.94474 10.6216 10.2411 10.5686L10.5127 10.5186C11.3261 10.3713 11.872 9.59026 11.7562 8.74203L11.7176 8.45881C11.6749 8.14842 11.7714 7.84231 11.9809 7.61774L12.1726 7.41319C12.7474 6.79812 12.7474 5.8326 12.1726 5.21753L11.9823 5.01012ZM11.7769 7.01411L11.5853 7.21866C11.2572 7.57054 11.1055 8.05258 11.1717 8.53748L11.2103 8.8207C11.2847 9.36139 10.936 9.85917 10.4176 9.95358L10.146 10.0036C9.68005 10.088 9.28577 10.3856 9.0652 10.819L8.93561 11.0707C8.68884 11.5528 8.12499 11.7444 7.65213 11.5041L7.40536 11.3783C6.98075 11.1623 6.49272 11.1623 6.06811 11.3783L5.82135 11.5041C5.34848 11.7444 4.78464 11.5542 4.53787 11.0707L4.40828 10.819C4.18632 10.3856 3.79204 10.088 3.32745 10.0036L3.05587 9.95358C2.53751 9.85917 2.18873 9.36139 2.26317 8.8207L2.30177 8.53748C2.36795 8.05115 2.21768 7.57054 1.88819 7.21866L1.69657 7.01268C1.32986 6.61932 1.32986 6.00568 1.69657 5.61232L1.88819 5.40777C2.2163 5.05589 2.36795 4.57385 2.30177 4.08895L2.26317 3.80573C2.18873 3.26504 2.53751 2.76726 3.05587 2.67285L3.32745 2.62279C3.79342 2.53839 4.1877 2.24087 4.40828 1.80746L4.53787 1.55571C4.71295 1.21384 5.04519 1.01931 5.3926 1.01931C5.53597 1.01931 5.68211 1.05221 5.82135 1.1223L6.06811 1.24817C6.49272 1.46416 6.98075 1.46416 7.40536 1.24817L7.65213 1.1223C8.12499 0.881992 8.68884 1.07224 8.93561 1.55571L9.0652 1.80746C9.28715 2.24087 9.68143 2.53839 10.146 2.62279L10.4176 2.67285C10.936 2.76726 11.2847 3.26504 11.2103 3.80573L11.1717 4.08895C11.1055 4.57528 11.2558 5.05589 11.5853 5.40777L11.7769 5.61375C12.1436 6.00568 12.1436 6.62075 11.7769 7.01411Z"
          fill="#6A2FE7"/>
    <path d="M4.63881 5.90848L4.30349 6.22784C4.22097 6.30642 4.22069 6.43796 4.30287 6.5169L5.89071 8.04218C5.96756 8.116 6.0888 8.11661 6.16638 8.04355L9.16804 5.21687C9.25151 5.13827 9.25195 5.00573 9.169 4.92657L8.80786 4.58196C8.73138 4.50897 8.61131 4.50812 8.5338 4.58L6.16143 6.7799C6.08574 6.85008 5.96908 6.85114 5.89213 6.78234L4.91005 5.90421C4.83234 5.83473 4.7143 5.83659 4.63881 5.90848Z"
          fill="#6A2FE7"/>
</svg>
