<svg width="14" height="13" viewBox="0 0 14 13" fill="none" xmlns="http://www.w3.org/2000/svg">
    <path d="M5.85156 3.73438L6.0625 3.92188C6.17969 4.03906 6.34375 4.03906 6.46094 3.92188L8.38281 2C9.25 1.13281 10.6328 1.13281 11.5 2C12.3672 2.86719 12.3672 4.25 11.5 5.11719L9.57812 7.03906C9.46094 7.15625 9.46094 7.32031 9.57812 7.4375L9.76562 7.64844C9.88281 7.74219 10.0703 7.74219 10.1641 7.64844L12.0859 5.70312C13.2812 4.53125 13.2812 2.58594 12.0859 1.41406C10.9141 0.21875 8.96875 0.21875 7.79688 1.41406L5.85156 3.33594C5.75781 3.42969 5.75781 3.61719 5.85156 3.73438ZM5.59375 11.0234C4.72656 11.8906 3.34375 11.8906 2.47656 11.0234C1.60938 10.1562 1.60938 8.77344 2.47656 7.90625L4.39844 5.98438C4.51562 5.86719 4.51562 5.70312 4.39844 5.58594L4.21094 5.375C4.09375 5.28125 3.90625 5.28125 3.8125 5.375L1.89062 7.32031C0.695312 8.49219 0.695312 10.4375 1.89062 11.6094C3.0625 12.8047 5.00781 12.8047 6.17969 11.6094L8.125 9.6875C8.21875 9.59375 8.21875 9.40625 8.125 9.28906L7.91406 9.10156C7.79688 8.98438 7.63281 8.98438 7.51562 9.10156L5.59375 11.0234ZM1.25781 0.59375L1.07031 0.78125C0.953125 0.898438 0.953125 1.08594 1.07031 1.17969L12.3203 12.4297C12.4141 12.5469 12.6016 12.5469 12.7188 12.4297L12.9062 12.2188C13.0234 12.125 13.0234 11.9375 12.9062 11.8438L1.65625 0.59375C1.5625 0.476562 1.375 0.476562 1.25781 0.59375Z" fill="#7E7E7E"/>
    <path d="M5.85156 3.73438L5.69539 3.85931L5.706 3.87257L5.71869 3.88386L5.85156 3.73438ZM6.0625 3.92188L6.20417 3.78021L6.19537 3.77239L6.0625 3.92188ZM9.57812 7.4375L9.72787 7.3044L9.71955 7.29608L9.57812 7.4375ZM9.76562 7.64844L9.61614 7.78131L9.62743 7.794L9.64069 7.80461L9.76562 7.64844ZM10.1641 7.64844L10.3055 7.78986L10.3063 7.789L10.1641 7.64844ZM12.0859 5.70312L11.9459 5.56029L11.9437 5.56256L12.0859 5.70312ZM12.0859 1.41406L11.9431 1.5541L11.9459 1.55688L12.0859 1.41406ZM7.79688 1.41406L7.93745 1.55636L7.93969 1.55408L7.79688 1.41406ZM5.85156 3.33594L5.711 3.19366L5.71014 3.19452L5.85156 3.33594ZM4.39844 5.58594L4.2487 5.71904L4.25702 5.72736L4.39844 5.58594ZM4.21094 5.375L4.36042 5.24213L4.34914 5.22943L4.33588 5.21883L4.21094 5.375ZM3.8125 5.375L3.67108 5.23358L3.67022 5.23444L3.8125 5.375ZM1.89062 7.32031L2.03066 7.46315L2.0329 7.46087L1.89062 7.32031ZM1.89062 11.6094L2.03347 11.4693L2.03064 11.4666L1.89062 11.6094ZM6.17969 11.6094L6.03911 11.4671L6.03687 11.4694L6.17969 11.6094ZM8.125 9.6875L8.26556 9.82978L8.26642 9.82892L8.125 9.6875ZM8.125 9.28906L8.28117 9.16412L8.27057 9.15086L8.25787 9.13958L8.125 9.28906ZM7.91406 9.10156L7.7724 9.24323L7.78119 9.25104L7.91406 9.10156ZM1.07031 1.17969L1.21173 1.03827L1.2039 1.03043L1.19525 1.02351L1.07031 1.17969ZM12.3203 12.4297L12.4765 12.3047L12.4696 12.2961L12.4617 12.2883L12.3203 12.4297ZM12.7188 12.4297L12.8604 12.5714L12.8682 12.5626L12.7188 12.4297ZM12.9062 12.2188L12.7813 12.0626L12.7681 12.0732L12.7568 12.0859L12.9062 12.2188ZM12.9062 11.8438L12.7648 11.9852L12.7727 11.993L12.7813 11.9999L12.9062 11.8438ZM1.65625 0.59375L1.50008 0.718689L1.507 0.727339L1.51483 0.735171L1.65625 0.59375ZM5.71869 3.88386L5.92963 4.07136L6.19537 3.77239L5.98444 3.58489L5.71869 3.88386ZM5.92108 4.0633C6.01355 4.15577 6.13344 4.20977 6.26172 4.20977C6.39 4.20977 6.50989 4.15577 6.60236 4.0633L6.31952 3.78045C6.2948 3.80517 6.27406 3.80977 6.26172 3.80977C6.24937 3.80977 6.22864 3.80517 6.20392 3.78045L5.92108 4.0633ZM6.60236 4.0633L8.52423 2.14142L8.24139 1.85858L6.31952 3.78045L6.60236 4.0633ZM8.52423 2.14142C9.31332 1.35234 10.5695 1.35234 11.3586 2.14142L11.6414 1.85858C10.6961 0.913286 9.18668 0.913286 8.24139 1.85858L8.52423 2.14142ZM11.3586 2.14142C12.1477 2.9305 12.1477 4.18668 11.3586 4.97577L11.6414 5.25861C12.5867 4.31332 12.5867 2.80387 11.6414 1.85858L11.3586 2.14142ZM11.3586 4.97577L9.4367 6.89764L9.71955 7.18048L11.6414 5.25861L11.3586 4.97577ZM9.4367 6.89764C9.34423 6.99011 9.29023 7.11 9.29023 7.23828C9.29023 7.36656 9.34423 7.48645 9.4367 7.57892L9.71955 7.29608C9.69483 7.27136 9.69023 7.25063 9.69023 7.23828C9.69023 7.22594 9.69483 7.2052 9.71955 7.18048L9.4367 6.89764ZM9.42864 7.57037L9.61614 7.78131L9.91511 7.51556L9.72761 7.30463L9.42864 7.57037ZM9.64069 7.80461C9.73876 7.88307 9.86041 7.91875 9.97363 7.91875C10.0854 7.91875 10.212 7.88338 10.3055 7.78986L10.0226 7.50702C10.0229 7.50681 10.0199 7.50978 10.0111 7.51297C10.0021 7.51618 9.98936 7.51875 9.97363 7.51875C9.94038 7.51875 9.90968 7.50755 9.89056 7.49226L9.64069 7.80461ZM10.3063 7.789L12.2282 5.84369L11.9437 5.56256L10.0218 7.50788L10.3063 7.789ZM12.226 5.84594C13.5012 4.59565 13.5012 2.52154 12.226 1.27125L11.9459 1.55688C13.0613 2.65034 13.0613 4.46685 11.9459 5.56031L12.226 5.84594ZM12.2288 1.27405C10.9785 -0.00124524 8.90435 -0.00124524 7.65406 1.27405L7.93969 1.55408C9.03315 0.438745 10.8497 0.438745 11.9431 1.55408L12.2288 1.27405ZM7.65631 1.27179L5.711 3.19366L5.99212 3.47821L7.93744 1.55634L7.65631 1.27179ZM5.71014 3.19452C5.61662 3.28804 5.58125 3.41459 5.58125 3.52637C5.58125 3.63959 5.61693 3.76124 5.69539 3.85931L6.00774 3.60944C5.99245 3.59032 5.98125 3.55962 5.98125 3.52637C5.98125 3.51064 5.98382 3.49786 5.98703 3.48893C5.99022 3.48007 5.99319 3.47715 5.99298 3.47736L5.71014 3.19452ZM5.45233 10.882C4.66325 11.6711 3.40707 11.6711 2.61798 10.882L2.33514 11.1649C3.28043 12.1102 4.78988 12.1102 5.73517 11.1649L5.45233 10.882ZM2.61798 10.882C1.8289 10.0929 1.8289 8.83675 2.61798 8.04767L2.33514 7.76483C1.38985 8.71012 1.38985 10.2196 2.33514 11.1649L2.61798 10.882ZM2.61798 8.04767L4.53986 6.1258L4.25702 5.84295L2.33514 7.76483L2.61798 8.04767ZM4.53986 6.1258C4.63233 6.03333 4.68633 5.91344 4.68633 5.78516C4.68633 5.65688 4.63233 5.53699 4.53986 5.44452L4.25702 5.72736C4.28173 5.75208 4.28633 5.77281 4.28633 5.78516C4.28633 5.7975 4.28173 5.81824 4.25702 5.84295L4.53986 6.1258ZM4.54792 5.45306L4.36042 5.24213L4.06146 5.50787L4.24896 5.71881L4.54792 5.45306ZM4.33588 5.21883C4.2378 5.14037 4.11616 5.10469 4.00293 5.10469C3.89115 5.10469 3.7646 5.14005 3.67108 5.23358L3.95392 5.51642C3.95371 5.51663 3.95663 5.51366 3.9655 5.51047C3.97443 5.50726 3.9872 5.50469 4.00293 5.50469C4.03619 5.50469 4.06689 5.51588 4.086 5.53117L4.33588 5.21883ZM3.67022 5.23444L1.74835 7.17975L2.0329 7.46087L3.95478 5.51556L3.67022 5.23444ZM1.75061 7.1775C0.475317 8.42779 0.475317 10.5019 1.75061 11.7522L2.03064 11.4666C0.915308 10.3731 0.915308 8.55659 2.03064 7.46313L1.75061 7.1775ZM1.74781 11.7494C2.9981 13.0247 5.07221 13.0247 6.3225 11.7494L6.03687 11.4694C4.94341 12.5847 3.1269 12.5847 2.03344 11.4694L1.74781 11.7494ZM6.32025 11.7517L8.26556 9.82978L7.98444 9.54522L6.03913 11.4671L6.32025 11.7517ZM8.26642 9.82892C8.35995 9.7354 8.39531 9.60885 8.39531 9.49707C8.39531 9.38384 8.35963 9.2622 8.28117 9.16412L7.96883 9.414C7.98412 9.43311 7.99531 9.46381 7.99531 9.49707C7.99531 9.5128 7.99274 9.52557 7.98953 9.5345C7.98634 9.54337 7.98337 9.54629 7.98358 9.54608L8.26642 9.82892ZM8.25787 9.13958L8.04694 8.95208L7.78119 9.25104L7.99213 9.43854L8.25787 9.13958ZM8.05548 8.96014C7.96301 8.86767 7.84312 8.81367 7.71484 8.81367C7.58656 8.81367 7.46667 8.86767 7.3742 8.96014L7.65705 9.24298C7.68176 9.21827 7.7025 9.21367 7.71484 9.21367C7.72719 9.21367 7.74792 9.21827 7.77264 9.24298L8.05548 8.96014ZM7.3742 8.96014L5.45233 10.882L5.73517 11.1649L7.65705 9.24298L7.3742 8.96014ZM1.11639 0.452329L0.928891 0.639829L1.21173 0.922671L1.39923 0.735171L1.11639 0.452329ZM0.928891 0.639829C0.743437 0.825282 0.718266 1.15418 0.945373 1.33586L1.19525 1.02351C1.18987 1.01921 1.18242 1.00953 1.18242 0.989258C1.18242 0.968604 1.19097 0.943437 1.21173 0.922671L0.928891 0.639829ZM0.928891 1.32111L12.1789 12.5711L12.4617 12.2883L1.21173 1.03827L0.928891 1.32111ZM12.1641 12.5546C12.3458 12.7817 12.6747 12.7566 12.8602 12.5711L12.5773 12.2883C12.5566 12.309 12.5314 12.3176 12.5107 12.3176C12.4905 12.3176 12.4808 12.3101 12.4765 12.3047L12.1641 12.5546ZM12.8682 12.5626L13.0557 12.3516L12.7568 12.0859L12.5693 12.2968L12.8682 12.5626ZM13.0312 12.3749C13.2485 12.2011 13.2485 11.8614 13.0312 11.6876L12.7813 11.9999C12.7876 12.005 12.7941 12.0152 12.7941 12.0312C12.7941 12.0473 12.7876 12.0575 12.7813 12.0626L13.0312 12.3749ZM13.0477 11.7023L1.79767 0.452329L1.51483 0.735171L12.7648 11.9852L13.0477 11.7023ZM1.81242 0.468811C1.63074 0.241703 1.30184 0.266875 1.11639 0.452329L1.39923 0.735171C1.42 0.714405 1.44517 0.705859 1.46582 0.705859C1.48609 0.705859 1.49577 0.713304 1.50008 0.718689L1.81242 0.468811Z" fill="#7E7E7E"/>
</svg>
