<svg width="23" height="19" viewBox="0 0 23 19" fill="none" xmlns="http://www.w3.org/2000/svg">
<path d="M4.123 11.8802L10.9003 18.7887C11.0296 18.9203 11.208 18.9965 11.3968 19C11.4318 19 11.4668 18.9965 11.5017 18.9931C11.5332 18.9965 11.5682 19 11.5997 19H11.6067C11.792 19 11.9704 18.9238 12.1032 18.7887L18.87 11.8871L21.3739 9.40645C23.542 7.25839 23.542 3.76258 21.3739 1.61451C20.3248 0.575128 18.926 0 17.4432 0C15.957 0 14.5617 0.571663 13.5125 1.61451L11.4983 3.60667L9.48746 1.61451C8.43835 0.575128 7.03953 0 5.55679 0C4.07055 0 2.67523 0.571663 1.62612 1.61451C-0.54204 3.76258 -0.54204 7.25839 1.62612 9.40645L4.123 11.8802ZM2.61228 2.595C3.4236 1.79121 4.49019 1.38931 5.55679 1.38931C6.62338 1.38931 7.68998 1.79121 8.50129 2.595L11.0052 5.07567C11.2779 5.34592 11.7221 5.34592 11.9948 5.07567L14.4987 2.595C16.1213 0.987418 18.7616 0.987418 20.3842 2.595C22.0068 4.20259 22.0068 6.81838 20.3842 8.42597L17.8733 10.9136L11.4983 17.4132L5.11966 10.9066L2.61578 8.42597C0.989661 6.81838 0.989661 4.20259 2.61228 2.595Z" fill="#000000"/>
</svg>
