<svg width="15" height="13" viewBox="0 0 15 13" fill="none" xmlns="http://www.w3.org/2000/svg">
    <path d="M11.8516 0.5H3.625C3.53125 0.5 3.4375 0.570312 3.39062 0.640625L1.02344 4.46094C0.976562 4.55469 0.976562 4.69531 1.04688 4.78906L7.51562 12.4062C7.63281 12.5469 7.84375 12.5469 7.96094 12.4062L14.4297 4.78906C14.5 4.69531 14.5 4.55469 14.4531 4.46094L12.1094 0.640625C12.0391 0.570312 11.9453 0.5 11.8516 0.5ZM11.5469 1.34375L13.2812 4.25H11.3359L10 1.34375H11.5469ZM9.08594 1.34375L10.3984 4.25H5.07812L6.41406 1.34375H9.08594ZM3.92969 1.34375H5.47656L4.14062 4.25H2.19531L3.92969 1.34375ZM2.42969 5H4.14062L6.0625 9.5L2.42969 5ZM5.05469 5H10.4219L7.75 11.1875L5.05469 5ZM9.4375 9.5L11.3359 5H13.0469L9.4375 9.5Z" fill="#7E7E7E"/>
</svg>
