<svg width="130" height="21" viewBox="0 0 130 21" fill="none" xmlns="http://www.w3.org/2000/svg">
<rect width="21" height="21" rx="4" fill="#FF0099"/>
<path d="M37.1808 17C36.0517 17 35.0996 16.8262 34.3247 16.4787C33.5609 16.1312 32.9797 15.6587 32.5812 15.0614C32.1937 14.4532 32 13.7581 32 12.9762H34.9889C34.9889 13.4106 35.1661 13.7744 35.5203 14.0677C35.8856 14.35 36.4391 14.4912 37.1808 14.4912C37.8229 14.4912 38.321 14.3718 38.6753 14.1328C39.0406 13.8939 39.2233 13.5735 39.2233 13.1717C39.2233 12.8241 39.0738 12.5581 38.7749 12.3734C38.476 12.1779 37.9723 12.0531 37.2638 11.9987L36.4834 11.9336C35.2325 11.825 34.2362 11.4394 33.4945 10.7769C32.7528 10.1145 32.3819 9.23475 32.3819 8.13784C32.3819 6.97577 32.7915 6.06892 33.6107 5.41729C34.4299 4.7548 35.5258 4.42356 36.8985 4.42356C37.8948 4.42356 38.7362 4.58647 39.4225 4.91228C40.1199 5.2381 40.6513 5.69967 41.0166 6.29699C41.3819 6.88346 41.5646 7.56767 41.5646 8.34962H38.5757C38.5757 7.95865 38.4262 7.6274 38.1273 7.35589C37.8395 7.07352 37.4299 6.93233 36.8985 6.93233C36.3893 6.93233 36.0074 7.04637 35.7528 7.27444C35.4982 7.50251 35.3709 7.79031 35.3709 8.13784C35.3709 8.44194 35.476 8.70259 35.6863 8.9198C35.8967 9.13701 36.262 9.26733 36.7823 9.31078L37.5627 9.37594C38.4705 9.45196 39.2731 9.64745 39.9705 9.96241C40.6679 10.2665 41.2159 10.6846 41.6144 11.2168C42.0129 11.749 42.2122 12.4006 42.2122 13.1717C42.2122 13.9428 42.0074 14.6161 41.5978 15.1917C41.1993 15.7673 40.6236 16.2126 39.8709 16.5276C39.1292 16.8425 38.2325 17 37.1808 17Z" fill="white"/>
<path d="M45.6524 16.9023C44.6783 16.9023 43.8812 16.6525 43.2613 16.1529C42.6524 15.6424 42.348 14.9365 42.348 14.0351C42.348 13.3617 42.5307 12.8187 42.896 12.406C43.2613 11.9825 43.765 11.6729 44.4071 11.4774C45.0491 11.282 45.7853 11.1842 46.6155 11.1842H48.0602C48.0491 10.7715 47.944 10.4728 47.7447 10.2882C47.5565 10.0927 47.2465 9.99499 46.8148 9.99499C46.6045 9.99499 46.2945 10.0004 45.8849 10.0113C45.4753 10.0221 45.0436 10.0384 44.5897 10.0602C44.1358 10.0819 43.7207 10.1036 43.3443 10.1253V7.64912C43.61 7.6274 43.9255 7.60568 44.2908 7.58396C44.6561 7.56224 45.0325 7.54595 45.42 7.53509C45.8185 7.52423 46.1838 7.5188 46.5159 7.5188C47.9329 7.5188 49.0233 7.82289 49.7871 8.43108C50.562 9.03926 50.9495 9.96784 50.9495 11.2168V16.6742H48.5583V15.0125C48.3591 15.6207 48.0159 16.0877 47.5288 16.4135C47.0417 16.7393 46.4163 16.9023 45.6524 16.9023ZM46.6155 14.9148C47.003 14.9148 47.3296 14.8062 47.5952 14.589C47.872 14.3609 48.027 13.9482 48.0602 13.3509V12.7155H46.6155C46.2059 12.7155 45.8904 12.8187 45.669 13.0251C45.4476 13.2206 45.3369 13.4866 45.3369 13.8233C45.3369 14.1491 45.4476 14.4152 45.669 14.6216C45.8904 14.817 46.2059 14.9148 46.6155 14.9148Z" fill="white"/>
<path d="M56.6718 16.8045C55.6755 16.8045 54.8784 16.685 54.2806 16.4461C53.6939 16.2072 53.2677 15.8108 53.002 15.2569C52.7364 14.703 52.6035 13.9536 52.6035 13.0088V9.83208H51.2751V7.6817H52.6201V5.33584H55.4098V7.6817H57.9172V9.83208H55.3932V13.0902C55.3932 13.9156 55.8139 14.3283 56.6552 14.3283H57.9172V16.8045H56.6718Z" fill="white"/>
<path d="M63.4067 17C62.3329 17 61.4141 16.7937 60.6503 16.381C59.8864 15.9574 59.3053 15.3981 58.9067 14.703C58.5082 14.0079 58.309 13.2423 58.309 12.406V12.015C58.309 11.1353 58.5138 10.348 58.9233 9.65288C59.344 8.94695 59.9363 8.38764 60.7001 7.97494C61.4639 7.56224 62.3662 7.35589 63.4067 7.35589C64.4473 7.35589 65.3496 7.56224 66.1134 7.97494C66.8772 8.38764 67.4639 8.94695 67.8735 9.65288C68.2942 10.348 68.5045 11.1353 68.5045 12.015V12.406C68.5045 13.2423 68.3053 14.0079 67.9067 14.703C67.5082 15.3981 66.927 15.9574 66.1632 16.381C65.4104 16.7937 64.4916 17 63.4067 17ZM63.4067 14.5238C64.0931 14.5238 64.6079 14.3066 64.951 13.8722C65.3053 13.4378 65.4824 12.8839 65.4824 12.2105C65.4824 11.5155 65.2997 10.9453 64.9344 10.5C64.5802 10.0547 64.071 9.83208 63.4067 9.83208C62.7425 9.83208 62.2278 10.0547 61.8625 10.5C61.5082 10.9453 61.3311 11.5155 61.3311 12.2105C61.3311 12.8839 61.5027 13.4378 61.8459 13.8722C62.2001 14.3066 62.7204 14.5238 63.4067 14.5238Z" fill="white"/>
<path d="M73.1314 16.9674C71.803 16.9674 70.7569 16.7013 69.993 16.1692C69.2292 15.6261 68.8196 14.8659 68.7643 13.8885H71.4211C71.4654 14.16 71.6369 14.3935 71.9358 14.589C72.2347 14.7845 72.6554 14.8822 73.1978 14.8822C73.5853 14.8822 73.9174 14.8279 74.1941 14.7193C74.482 14.5998 74.6259 14.4098 74.6259 14.1491C74.6259 13.9211 74.5152 13.7364 74.2938 13.5952C74.0724 13.4432 73.6683 13.34 73.0816 13.2857L72.4506 13.2206C71.2772 13.1011 70.4137 12.7861 69.8602 12.2757C69.3067 11.7652 69.0299 11.1245 69.0299 10.3534C69.0299 9.69089 69.196 9.14787 69.5281 8.72431C69.8602 8.28989 70.3196 7.96408 70.9063 7.74687C71.493 7.52966 72.1628 7.42105 72.9155 7.42105C74.1443 7.42105 75.1351 7.68713 75.8879 8.2193C76.6406 8.7406 77.0392 9.49541 77.0834 10.4837H74.4266C74.3823 10.2122 74.2329 9.98413 73.9783 9.7995C73.7237 9.60401 73.3584 9.50627 72.8823 9.50627C72.5392 9.50627 72.2569 9.566 72.0355 9.68546C71.8251 9.80493 71.72 9.97327 71.72 10.1905C71.72 10.4185 71.8196 10.5869 72.0189 10.6955C72.2292 10.8041 72.5613 10.8855 73.0152 10.9398L73.6462 11.005C74.8196 11.1245 75.7218 11.4449 76.3528 11.9662C76.9949 12.4766 77.3159 13.15 77.3159 13.9862C77.3159 14.9094 76.9395 15.637 76.1868 16.1692C75.4451 16.7013 74.4266 16.9674 73.1314 16.9674Z" fill="white"/>
<path d="M78.1549 16.6742V4.78196H81.177V9.13158C81.653 7.96951 82.5331 7.38847 83.8172 7.38847H83.9501C84.9464 7.38847 85.7047 7.74144 86.225 8.44737C86.7564 9.1533 87.022 10.1905 87.022 11.5589V16.6742H83.9999V11.4449C83.9999 11.0322 83.8726 10.6955 83.618 10.4348C83.3634 10.1633 83.0257 10.0276 82.6051 10.0276C82.1844 10.0276 81.8412 10.1633 81.5755 10.4348C81.3099 10.6955 81.177 11.043 81.177 11.4774V16.6742H78.1549Z" fill="white"/>
<path d="M90.0483 6.96491C89.5059 6.96491 89.1018 6.82916 88.8362 6.55764C88.5815 6.27527 88.4542 5.91688 88.4542 5.48246C88.4542 5.04804 88.5815 4.69507 88.8362 4.42356C89.1018 4.14119 89.5059 4 90.0483 4C90.6018 4 91.0059 4.14119 91.2605 4.42356C91.5151 4.69507 91.6424 5.04804 91.6424 5.48246C91.6424 5.91688 91.5151 6.27527 91.2605 6.55764C91.0059 6.82916 90.6018 6.96491 90.0483 6.96491ZM88.8195 16.6742V9.83208H87.6572V7.6817H91.8417V16.6742H88.8195Z" fill="white"/>
<path d="M92.9675 16.6742V13.4486H96.2221V16.6742H92.9675Z" fill="white"/>
<path d="M96.361 16.6742L100.247 4.78196H105.195L109.213 16.6742H106.025L105.145 13.9211H100.313L99.4496 16.6742H96.361ZM101.077 11.4449H104.348L103.003 7.22556H102.389L101.077 11.4449Z" fill="white"/>
<path d="M109.911 16.6742V4.68421H114.943C116.526 4.68421 117.771 5.03175 118.679 5.72682C119.587 6.41103 120.041 7.42105 120.041 8.75689V9.01754C120.041 9.87552 119.847 10.5977 119.459 11.1842C119.072 11.7707 118.519 12.216 117.799 12.5201L120.771 16.6742H117.218L114.76 13.0251H113V16.6742H109.911ZM115.126 7.22556H113V10.6955H115.126C115.668 10.6955 116.1 10.5434 116.421 10.2393C116.753 9.92439 116.919 9.50084 116.919 8.96867C116.919 8.43651 116.753 8.01295 116.421 7.698C116.1 7.38304 115.668 7.22556 115.126 7.22556Z" fill="white"/>
<path d="M123.59 16.6742V7.42105H120.269V4.78196H130V7.42105H126.679V16.6742H123.59Z" fill="white"/>
<path d="M5.58049 18C4.36423 18 3.33875 17.7927 2.50407 17.3782C1.6813 16.9637 1.05528 16.4003 0.626016 15.6878C0.208672 14.9624 0 14.1334 0 13.2008H3.21951C3.21951 13.7189 3.4103 14.1528 3.79187 14.5026C4.18537 14.8394 4.78157 15.0078 5.58049 15.0078C6.27209 15.0078 6.80867 14.8653 7.19024 14.5803C7.58374 14.2953 7.78049 13.9132 7.78049 13.4339C7.78049 13.0194 7.61951 12.7021 7.29756 12.4819C6.97561 12.2487 6.43306 12.0997 5.66992 12.035L4.82927 11.9573C3.48184 11.8277 2.40867 11.3679 1.60976 10.5777C0.81084 9.78756 0.411382 8.73834 0.411382 7.43005C0.411382 6.04404 0.852575 4.96243 1.73496 4.18523C2.61734 3.39508 3.79783 3 5.27642 3C6.34959 3 7.25583 3.1943 7.99512 3.5829C8.74634 3.9715 9.3187 4.52202 9.7122 5.23446C10.1057 5.93394 10.3024 6.75 10.3024 7.68264H7.08293C7.08293 7.21632 6.92195 6.82124 6.6 6.49741C6.28997 6.16062 5.84878 5.99223 5.27642 5.99223C4.72791 5.99223 4.31653 6.12824 4.04228 6.40026C3.76802 6.67228 3.63089 7.01554 3.63089 7.43005C3.63089 7.79275 3.74417 8.10363 3.97073 8.36269C4.19729 8.62176 4.59079 8.7772 5.15122 8.82902L5.99187 8.90674C6.96965 8.99741 7.83415 9.23057 8.58537 9.60622C9.33659 9.96891 9.92683 10.4676 10.3561 11.1023C10.7854 11.737 11 12.5142 11 13.4339C11 14.3536 10.7794 15.1567 10.3382 15.8433C9.90894 16.5298 9.28889 17.0609 8.47805 17.4365C7.67913 17.8122 6.71328 18 5.58049 18Z" fill="url(#paint0_linear)"/>
<defs>
<linearGradient id="paint0_linear" x1="5.5" y1="3" x2="5.5" y2="18" gradientUnits="userSpaceOnUse">
<stop stop-color="#6A2FE7"/>
<stop offset="1" stop-color="#4D0ED2"/>
</linearGradient>
</defs>
</svg>
