<svg width="22" height="18" viewBox="0 0 22 18" fill="none" xmlns="http://www.w3.org/2000/svg">
    <path d="M4.09065 11.1297L10.2786 17.3109C10.3967 17.4287 10.5596 17.4969 10.732 17.5C10.7639 17.5 10.7958 17.4969 10.8278 17.4938C10.8565 17.4969 10.8884 17.5 10.9172 17.5H10.9236C11.0928 17.5 11.2556 17.4318 11.377 17.3109L17.5553 11.1358L19.8415 8.9163C21.8211 6.99435 21.8211 3.86652 19.8415 1.94457C18.8836 1.01459 17.6064 0.5 16.2526 0.5C14.8956 0.5 13.6216 1.01149 12.6637 1.94457L10.8246 3.72702L8.98863 1.94457C8.03075 1.01459 6.75357 0.5 5.39976 0.5C4.04276 0.5 2.76877 1.01149 1.81089 1.94457C-0.168735 3.86652 -0.168735 6.99435 1.81089 8.9163L4.09065 11.1297ZM2.7113 2.82185C3.45206 2.10266 4.42591 1.74307 5.39976 1.74307C6.37361 1.74307 7.34746 2.10266 8.08822 2.82185L10.3744 5.04139C10.6234 5.28319 11.0289 5.28319 11.278 5.04139L13.5641 2.82185C15.0456 1.38348 17.4563 1.38348 18.9379 2.82185C20.4194 4.26021 20.4194 6.60066 18.9379 8.03902L16.6453 10.2648L10.8246 16.0802L5.00064 10.2586L2.71449 8.03902C1.22978 6.60066 1.22978 4.26021 2.7113 2.82185Z"
          fill="white"/>
</svg>
