<svg width="16" height="9" viewBox="0 0 16 9" fill="none" xmlns="http://www.w3.org/2000/svg">
<path d="M7.99999 8.59658C7.83152 8.59507 8.12012 8.71805 7.99999 8.59658L0.999994 1.71939C0.884075 1.59599 0.998544 1.89095 0.999994 1.71939C1.00144 1.54784 0.882007 0.858249 0.999994 0.736937C1.11798 0.615624 1.83314 0.738427 1.99999 0.736937C2.16685 0.735446 1.87997 0.61775 1.99999 0.736937L7.99999 6.63167L14 0.736937C14.0587 0.674444 13.9224 0.771228 14 0.736937C14.0776 0.702645 13.9155 0.737692 14 0.736937C14.0845 0.736182 14.9218 0.704038 15 0.736937C15.0782 0.769835 14.9402 0.675503 15 0.736937C15.0597 0.798371 14.968 0.656525 15 0.736937C15.032 0.817348 15.0007 1.63252 15 1.71939C14.9993 1.80627 15.0333 1.63957 15 1.71939C14.9666 1.79922 15.0608 1.65904 15 1.71939L7.99999 8.59658C8.16847 8.59507 7.87987 8.71805 7.99999 8.59658Z" fill="#C4C4C4"/>
</svg>
