<svg width="18" height="18" viewBox="0 0 18 18" fill="none" xmlns="http://www.w3.org/2000/svg">
<path d="M4.33333 16H13.6667C14.2855 16 14.879 15.7671 15.3166 15.3526C15.7542 14.938 16 14.3757 16 13.7895V4.94737C16 4.3611 15.7542 3.79884 15.3166 3.38429C14.879 2.96974 14.2855 2.73684 13.6667 2.73684H12.8889C12.8889 2.54142 12.8069 2.354 12.6611 2.21582C12.5152 2.07763 12.3174 2 12.1111 2C11.9048 2 11.707 2.07763 11.5611 2.21582C11.4153 2.354 11.3333 2.54142 11.3333 2.73684H6.66667C6.66667 2.54142 6.58472 2.354 6.43886 2.21582C6.293 2.07763 6.09517 2 5.88889 2C5.68261 2 5.48478 2.07763 5.33892 2.21582C5.19306 2.354 5.11111 2.54142 5.11111 2.73684H4.33333C3.71449 2.73684 3.121 2.96974 2.68342 3.38429C2.24583 3.79884 2 4.3611 2 4.94737V13.7895C2 14.3757 2.24583 14.938 2.68342 15.3526C3.121 15.7671 3.71449 16 4.33333 16ZM3.55556 4.94737C3.55556 4.75195 3.6375 4.56453 3.78336 4.42634C3.92922 4.28816 4.12705 4.21053 4.33333 4.21053H5.11111V4.94737C5.11111 5.14279 5.19306 5.33021 5.33892 5.46839C5.48478 5.60658 5.68261 5.68421 5.88889 5.68421C6.09517 5.68421 6.293 5.60658 6.43886 5.46839C6.58472 5.33021 6.66667 5.14279 6.66667 4.94737V4.21053H11.3333V4.94737C11.3333 5.14279 11.4153 5.33021 11.5611 5.46839C11.707 5.60658 11.9048 5.68421 12.1111 5.68421C12.3174 5.68421 12.5152 5.60658 12.6611 5.46839C12.8069 5.33021 12.8889 5.14279 12.8889 4.94737V4.21053H13.6667C13.8729 4.21053 14.0708 4.28816 14.2166 4.42634C14.3625 4.56453 14.4444 4.75195 14.4444 4.94737V7.15789H3.55556V4.94737ZM3.55556 8.63158H14.4444V13.7895C14.4444 13.9849 14.3625 14.1723 14.2166 14.3105C14.0708 14.4487 13.8729 14.5263 13.6667 14.5263H4.33333C4.12705 14.5263 3.92922 14.4487 3.78336 14.3105C3.6375 14.1723 3.55556 13.9849 3.55556 13.7895V8.63158Z" fill="#4D0ED2"/>
</svg>
