<svg width="18" height="18" viewBox="0 0 18 18" fill="none" xmlns="http://www.w3.org/2000/svg">
<path d="M5.00001 8.41981V11.284C5.00001 11.4739 5.07528 11.656 5.20927 11.7903C5.34325 11.9245 5.52497 12 5.71445 12H8.57222C8.66624 12.0005 8.75945 11.9825 8.8465 11.9468C8.93354 11.9112 9.01271 11.8587 9.07947 11.7923L14.2878 6.5796C14.7441 6.11598 15 5.4909 15 4.83963C15 4.18836 14.7441 3.56328 14.2878 3.09966L13.8805 2.69152C13.4111 2.2474 12.79 2 12.1444 2C11.4989 2 10.8778 2.2474 10.4083 2.69152L5.2072 7.91142C5.14098 7.97833 5.0886 8.05768 5.05304 8.14492C5.01749 8.23216 4.99947 8.32557 5.00001 8.41981ZM6.42889 8.71338L11.43 3.70113C11.6234 3.51888 11.8789 3.41741 12.1444 3.41741C12.4099 3.41741 12.6654 3.51888 12.8589 3.70113L13.259 4.10211C13.4474 4.29255 13.5532 4.54992 13.5532 4.81815C13.5532 5.08638 13.4474 5.34374 13.259 5.53418L8.25786 10.5464H6.42889V8.71338Z" fill="#4D0ED2"/>
<path d="M15.2222 9C15.0159 9 14.8181 9.08194 14.6722 9.22781C14.5264 9.37367 14.4444 9.5715 14.4444 9.77778V13.6667C14.4444 13.8729 14.3625 14.0708 14.2166 14.2166C14.0708 14.3625 13.8729 14.4444 13.6667 14.4444H4.33333C4.12705 14.4444 3.92922 14.3625 3.78336 14.2166C3.6375 14.0708 3.55556 13.8729 3.55556 13.6667V4.33333C3.55556 4.12705 3.6375 3.92922 3.78336 3.78336C3.92922 3.6375 4.12705 3.55556 4.33333 3.55556H8.22222C8.4285 3.55556 8.62633 3.47361 8.77219 3.32775C8.91806 3.18189 9 2.98406 9 2.77778C9 2.5715 8.91806 2.37367 8.77219 2.22781C8.62633 2.08194 8.4285 2 8.22222 2H4.33333C3.71449 2 3.121 2.24583 2.68342 2.68342C2.24583 3.121 2 3.71449 2 4.33333V13.6667C2 14.2855 2.24583 14.879 2.68342 15.3166C3.121 15.7542 3.71449 16 4.33333 16H13.6667C14.2855 16 14.879 15.7542 15.3166 15.3166C15.7542 14.879 16 14.2855 16 13.6667V9.77778C16 9.5715 15.9181 9.37367 15.7722 9.22781C15.6263 9.08194 15.4285 9 15.2222 9Z" fill="#4D0ED2"/>
</svg>
