<svg width="16" height="14" viewBox="0 0 16 14" fill="none" xmlns="http://www.w3.org/2000/svg">
<path d="M14.8783 6.48148H7.78013C7.71049 6.48148 7.64621 6.49444 7.5846 6.51778C7.3596 5.60778 6.51317 4.92593 5.50335 4.92593C4.50156 4.92593 3.66317 5.59482 3.42746 6.49444C3.39263 6.48667 3.35513 6.48148 3.31496 6.48148H0.949777C0.655134 6.48148 0.414062 6.71482 0.414062 7C0.414062 7.28519 0.655134 7.51852 0.949777 7.51852H3.31496C3.35246 7.51852 3.38996 7.51333 3.42746 7.50556C3.66317 8.40519 4.50156 9.07408 5.50335 9.07408C6.51317 9.07408 7.3596 8.39222 7.5846 7.48222C7.64621 7.50556 7.71049 7.51852 7.78013 7.51852H14.8783C15.173 7.51852 15.4141 7.28519 15.4141 7C15.4141 6.71482 15.173 6.48148 14.8783 6.48148ZM5.50335 8.03704C4.91138 8.03704 4.43192 7.57296 4.43192 7C4.43192 6.42704 4.91138 5.96296 5.50335 5.96296C6.09531 5.96296 6.57478 6.42704 6.57478 7C6.57478 7.57296 6.09531 8.03704 5.50335 8.03704Z" fill="#FF0099"/>
<path d="M14.8783 11.4074H12.0658C11.9962 11.4074 11.9319 11.4204 11.8703 11.4437C11.6453 10.5337 10.7989 9.85185 9.78906 9.85185C8.78728 9.85185 7.94353 10.5233 7.71317 11.4256C7.67031 11.4152 7.62746 11.4074 7.57924 11.4074H0.949777C0.655134 11.4074 0.414062 11.6407 0.414062 11.9259C0.414062 12.2111 0.655134 12.4444 0.949777 12.4444H7.57924C7.62478 12.4444 7.67031 12.4367 7.71317 12.4263C7.94353 13.3285 8.78728 14 9.78906 14C10.7989 14 11.6453 13.3207 11.8703 12.4081C11.9319 12.4315 11.9962 12.4444 12.0658 12.4444H14.8783C15.173 12.4444 15.4141 12.2111 15.4141 11.9259C15.4141 11.6407 15.173 11.4074 14.8783 11.4074ZM9.78906 12.963C9.1971 12.963 8.71763 12.4989 8.71763 11.9259C8.71763 11.353 9.1971 10.8889 9.78906 10.8889C10.381 10.8889 10.8605 11.353 10.8605 11.9259C10.8605 12.4989 10.381 12.963 9.78906 12.963Z" fill="#FF0099"/>
<path d="M14.8783 1.55556H12.1301C11.8917 0.663704 11.0533 0 10.0569 0C9.05781 0 8.21942 0.666296 7.98371 1.56333C7.9596 1.55815 7.93817 1.55556 7.91406 1.55556H0.949777C0.655134 1.55556 0.414062 1.78889 0.414062 2.07407C0.414062 2.35926 0.655134 2.59259 0.949777 2.59259H7.91406C7.93817 2.59259 7.9596 2.59 7.98371 2.58482C8.21942 3.48185 9.05781 4.14815 10.0569 4.14815C11.0533 4.14815 11.8917 3.48444 12.1301 2.59259H14.8783C15.173 2.59259 15.4141 2.35926 15.4141 2.07407C15.4141 1.78889 15.173 1.55556 14.8783 1.55556ZM10.0569 3.11111C9.46496 3.11111 8.98549 2.64704 8.98549 2.07407C8.98549 1.50111 9.46496 1.03704 10.0569 1.03704C10.6489 1.03704 11.1283 1.50111 11.1283 2.07407C11.1283 2.64704 10.6489 3.11111 10.0569 3.11111Z" fill="#FF0099"/>
</svg>
