<svg width="12" height="13" viewBox="0 0 12 13" fill="none" xmlns="http://www.w3.org/2000/svg">
<path d="M0.545898 4.37689V11.7981C0.545898 11.9621 0.611055 12.1194 0.727033 12.2354C0.843012 12.3514 1.00031 12.4165 1.16433 12.4165H4.2565C4.42052 12.4165 4.57782 12.3514 4.6938 12.2354C4.80978 12.1194 4.87493 11.9621 4.87493 11.7981V7.46906H7.34867V11.7981C7.34867 11.9621 7.41383 12.1194 7.5298 12.2354C7.64578 12.3514 7.80308 12.4165 7.9671 12.4165H11.0593C11.2233 12.4165 11.3806 12.3514 11.4966 12.2354C11.6125 12.1194 11.6777 11.9621 11.6777 11.7981V4.37689C11.6777 4.28088 11.6554 4.18619 11.6124 4.10032C11.5695 4.01444 11.5071 3.93975 11.4303 3.88214L6.48286 0.171538C6.37581 0.091252 6.24561 0.0478516 6.1118 0.0478516C5.97799 0.0478516 5.84779 0.091252 5.74074 0.171538L0.793272 3.88214C0.716465 3.93975 0.654125 4.01444 0.611188 4.10032C0.568252 4.18619 0.545898 4.28088 0.545898 4.37689ZM1.78277 4.68611L6.1118 1.43933L10.4408 4.68611V11.1797H8.58554V6.85062C8.58554 6.6866 8.52038 6.5293 8.4044 6.41333C8.28842 6.29735 8.13112 6.23219 7.9671 6.23219H4.2565C4.09248 6.23219 3.93518 6.29735 3.8192 6.41333C3.70322 6.5293 3.63807 6.6866 3.63807 6.85062V11.1797H1.78277V4.68611Z" fill="black"/>
</svg>
