<svg width="19" height="19" viewBox="0 0 19 19" fill="none" xmlns="http://www.w3.org/2000/svg">
<path d="M9.94531 18.0156L10.7266 17.2734C10.9219 17.0781 10.9219 16.7656 10.7266 16.6094L4.67188 10.5156H18.0312C18.2656 10.5156 18.5 10.3203 18.5 10.0469V8.95312C18.5 8.71875 18.2656 8.48438 18.0312 8.48438H4.67188L10.7266 2.42969C10.9219 2.27344 10.9219 1.96094 10.7266 1.76562L9.94531 1.02344C9.78906 0.828125 9.47656 0.828125 9.28125 1.02344L1.11719 9.1875C0.921875 9.38281 0.921875 9.65625 1.11719 9.85156L9.28125 18.0156C9.47656 18.2109 9.78906 18.2109 9.94531 18.0156Z" fill="black"/>
</svg>
