<svg width="21" height="19" viewBox="0 0 21 19" fill="none" xmlns="http://www.w3.org/2000/svg">
    <path d="M12.2437 6.54715C11.348 6.54715 10.4716 5.71029 10.4716 4.85476V3.20282C10.4716 1.56955 9.20533 0.175821 7.58788 0.0264926C6.71471 -0.0543934 5.8802 0.210042 5.24224 0.773133C4.57206 1.36111 4.18864 2.21664 4.18864 3.12194C4.18864 3.14683 4.17575 5.68229 4.18864 7.79466C4.19186 8.31731 3.95665 8.84929 3.54101 9.25061C3.13826 9.63948 2.60984 9.86347 2.0911 9.86347H1.84944C0.828061 9.86347 0 10.6661 0 11.6492V17.2023C0 18.1885 0.831283 18.988 1.84944 18.988H14.4025C16.2132 18.988 17.8275 17.8805 18.4203 16.2286L20.8626 9.44349C21.1139 8.74974 21.0173 8.02487 20.5984 7.45867C20.1731 6.88003 19.4772 6.54715 18.6878 6.54715H12.2437ZM19.5513 8.18353C19.7253 8.42308 19.7607 8.72485 19.6479 9.03906L17.2056 15.8242C16.79 16.9752 15.6655 17.7467 14.4025 17.7467H1.84944C1.54013 17.7467 1.28881 17.5041 1.28881 17.2054V11.6523C1.28881 11.3536 1.54013 11.111 1.84944 11.111H2.0911C2.95138 11.111 3.81488 10.7532 4.45607 10.131C5.11014 9.49638 5.48067 8.64396 5.47745 7.79155C5.46456 5.68851 5.47745 3.15616 5.47745 3.12816C5.47745 2.57129 5.70621 2.04864 6.10896 1.6971C6.47628 1.37356 6.95636 1.22112 7.46544 1.27089C8.42882 1.36111 9.18278 2.21041 9.18278 3.20905V4.86099C9.18278 6.3916 10.6424 7.79155 12.2437 7.79155H18.6878C19.0519 7.79155 19.3676 7.93465 19.5513 8.18353Z"
          fill="#7E7E7E"/>
</svg>
