<svg width="20" height="16" viewBox="0 0 20 16" fill="none" xmlns="http://www.w3.org/2000/svg">
<path d="M9 9C9.40625 9 9.75 8.5625 9.75 8C9.75 7.46875 9.40625 7 9 7C8.5625 7 8.25 7.46875 8.25 8C8.25 8.5625 8.5625 9 9 9ZM19.5 14.5H16V3.5625C16 2.71875 15.3125 2 14.5 2H12V1.0625C12 0.46875 11.5312 0 11 0C10.9062 0 10.8125 0.03125 10.75 0.0625L4.75 1.59375C4.28125 1.71875 4 2.125 4 2.59375V14.5H0.5C0.21875 14.5 0 14.75 0 15V15.5C0 15.7812 0.21875 16 0.5 16H19.5C19.75 16 20 15.7812 20 15.5V15C20 14.75 19.75 14.5 19.5 14.5ZM10.5 14.5H5.5V2.96875L10.5 1.65625V14.5ZM14.5 14.5H12V3.5H14.5V14.5Z" fill="black"/>
</svg>
