<svg width="45" height="45" viewBox="0 0 45 45" fill="none" xmlns="http://www.w3.org/2000/svg">
    <circle cx="22.5" cy="22.5" r="22.5" fill="#FF0099"/>
    <path d="M14.6829 39C11.9187 39 9.58808 38.5302 7.69106 37.5907C5.82114 36.6511 4.39837 35.3739 3.42276 33.7591C2.47425 32.1149 2 30.2358 2 28.1218H9.31707C9.31707 29.2962 9.75068 30.2798 10.6179 31.0725C11.5122 31.8359 12.8672 32.2176 14.6829 32.2176C16.2547 32.2176 17.4743 31.8946 18.3415 31.2487C19.2358 30.6028 19.6829 29.7366 19.6829 28.6503C19.6829 27.7107 19.3171 26.9914 18.5854 26.4922C17.8537 25.9637 16.6206 25.6261 14.8862 25.4793L12.9756 25.3031C9.91328 25.0095 7.47425 23.9672 5.65854 22.1762C3.84282 20.3851 2.93496 18.0069 2.93496 15.0414C2.93496 11.8998 3.93767 9.44819 5.94309 7.68653C7.94851 5.89551 10.6314 5 13.9919 5C16.4309 5 18.4905 5.44041 20.1707 6.32124C21.878 7.20207 23.1789 8.44991 24.0732 10.0648C24.9675 11.6503 25.4146 13.5 25.4146 15.614H18.0976C18.0976 14.557 17.7317 13.6615 17 12.9275C16.2954 12.1641 15.2927 11.7824 13.9919 11.7824C12.7453 11.7824 11.8103 12.0907 11.187 12.7073C10.5637 13.3238 10.252 14.1019 10.252 15.0414C10.252 15.8636 10.5095 16.5682 11.0244 17.1554C11.5393 17.7427 12.4336 18.095 13.7073 18.2124L15.6179 18.3886C17.8401 18.5941 19.8049 19.1226 21.5122 19.9741C23.2195 20.7962 24.561 21.9266 25.5366 23.3653C26.5122 24.804 27 26.5656 27 28.6503C27 30.7349 26.4986 32.5553 25.4959 34.1114C24.5203 35.6675 23.1111 36.8713 21.2683 37.7228C19.4526 38.5743 17.2575 39 14.6829 39Z" fill="url(#paint0_linear)"/>
    <defs>
        <linearGradient id="paint0_linear" x1="14.5" y1="5" x2="14.5" y2="39" gradientUnits="userSpaceOnUse">
            <stop stop-color="#6A2FE7"/>
            <stop offset="1" stop-color="#4D0ED2"/>
        </linearGradient>
    </defs>
</svg>
