<svg width="17" height="15" viewBox="0 0 17 15" fill="none" xmlns="http://www.w3.org/2000/svg">
<path d="M16.4883 13.7109L14.2461 11.4688C14.6016 10.9766 14.8477 10.1016 14.8477 9.5C14.8477 7.58594 13.2891 6 11.3477 6C9.43359 6 7.84766 7.58594 7.84766 9.5C7.84766 11.4414 9.43359 13 11.3477 13C11.9492 13 12.8242 12.7539 13.3164 12.3984L15.5586 14.6406C15.6133 14.6953 15.7773 14.7773 15.8594 14.7773C15.9688 14.7773 16.1055 14.6953 16.1875 14.6406L16.4883 14.3125C16.543 14.2578 16.5977 14.1211 16.5977 14.0117C16.5977 13.9297 16.543 13.7656 16.4883 13.7109ZM11.375 11.6875C10.1445 11.6875 9.1875 10.7305 9.1875 9.5C9.1875 8.29688 10.1445 7.3125 11.375 7.3125C12.5781 7.3125 13.5625 8.29688 13.5625 9.5C13.5352 10.7305 12.5781 11.6875 11.375 11.6875ZM2.1875 13.4375V2.08984H6.5625V4.93359C6.5625 5.28906 6.83594 5.58984 7.19141 5.58984H7.21875H9.48828C10.0625 5.31641 10.6914 5.15234 11.375 5.15234V4.35938C11.3477 4.08594 11.1836 3.64844 10.9648 3.42969L8.69531 1.16016C8.47656 0.941406 8.06641 0.777344 7.76562 0.75H2.1875C1.44922 0.777344 0.875 1.35156 0.875 2.08984V13.4375C0.875 14.1758 1.44922 14.75 2.1875 14.75H10.0625C10.5547 14.75 11.1289 14.3672 11.293 13.875C10.7734 13.875 9.95312 13.6836 9.48828 13.4375H2.1875ZM7.875 2.17188L9.95312 4.27734H7.875V2.17188Z" fill="black"/>
</svg>
