<svg width="45" height="45" viewBox="0 0 45 45" fill="none" xmlns="http://www.w3.org/2000/svg">
    <circle cx="22.5" cy="22.5" r="22.5" fill="#FFB800"/>
    <path d="M33.0312 22.3438H23.6562V12.9688C23.6562 12.7344 23.4219 12.5 23.1875 12.5H21.3125C21.0195 12.5 20.8438 12.7344 20.8438 12.9688V22.3438H11.4688C11.1758 22.3438 11 22.5781 11 22.8125V24.6875C11 24.9805 11.1758 25.1562 11.4688 25.1562H20.8438V34.5312C20.8438 34.8242 21.0195 35 21.3125 35H23.1875C23.4219 35 23.6562 34.8242 23.6562 34.5312V25.1562H33.0312C33.2656 25.1562 33.5 24.9805 33.5 24.6875V22.8125C33.5 22.5781 33.2656 22.3438 33.0312 22.3438Z" fill="white"/>
</svg>
