<svg width="12" height="13" viewBox="0 0 12 13" fill="none" xmlns="http://www.w3.org/2000/svg">
    <path d="M7.87367 6.6108C8.37016 6.18717 8.72481 5.62149 8.88982 4.99004C9.05484 4.35858 9.02227 3.69172 8.79652 3.07935C8.57077 2.46698 8.16268 1.93855 7.62729 1.5653C7.09189 1.19206 6.45492 0.991943 5.80226 0.991943C5.1496 0.991943 4.51264 1.19206 3.97724 1.5653C3.44184 1.93855 3.03376 2.46698 2.80801 3.07935C2.58225 3.69172 2.54969 4.35858 2.7147 4.99004C2.87971 5.62149 3.23437 6.18717 3.73086 6.6108C2.63438 7.02986 1.69079 7.77162 1.02469 8.73814C0.358586 9.70466 0.00129663 10.8505 0 12.0243C0 12.1782 0.0611308 12.3258 0.169944 12.4346C0.278758 12.5434 0.426341 12.6045 0.580226 12.6045C0.734112 12.6045 0.881695 12.5434 0.990508 12.4346C1.09932 12.3258 1.16045 12.1782 1.16045 12.0243C1.16045 10.7932 1.6495 9.61256 2.52001 8.74206C3.39052 7.87155 4.57118 7.3825 5.80226 7.3825C7.03335 7.3825 8.21401 7.87155 9.08452 8.74206C9.95503 9.61256 10.4441 10.7932 10.4441 12.0243C10.4441 12.1782 10.5052 12.3258 10.614 12.4346C10.7228 12.5434 10.8704 12.6045 11.0243 12.6045C11.1782 12.6045 11.3258 12.5434 11.4346 12.4346C11.5434 12.3258 11.6045 12.1782 11.6045 12.0243C11.6032 10.8505 11.2459 9.70466 10.5798 8.73814C9.91373 7.77162 8.97014 7.02986 7.87367 6.6108ZM5.80226 6.22205C5.40061 6.22205 5.00798 6.10295 4.67402 5.8798C4.34005 5.65665 4.07976 5.33949 3.92606 4.96841C3.77235 4.59733 3.73213 4.18901 3.81049 3.79507C3.88885 3.40114 4.08226 3.03928 4.36628 2.75527C4.65029 2.47126 5.01214 2.27785 5.40608 2.19949C5.80001 2.12113 6.20833 2.16135 6.57941 2.31505C6.95049 2.46876 7.26766 2.72905 7.49081 3.06301C7.71395 3.39697 7.83306 3.78961 7.83306 4.19126C7.83306 4.72986 7.6191 5.2464 7.23825 5.62724C6.8574 6.00809 6.34086 6.22205 5.80226 6.22205Z" fill="#7E7E7E"/>
</svg>
