<svg width="196" height="27" viewBox="0 0 196 27" fill="none" xmlns="http://www.w3.org/2000/svg">
<path d="M10.3616 26.998C8.10333 26.998 6.19927 26.6505 4.64945 25.9554C3.12177 25.2604 1.95941 24.3155 1.16236 23.1209C0.387454 21.9045 0 20.5143 0 18.9504H5.97786C5.97786 19.8193 6.33211 20.5469 7.0406 21.1334C7.77122 21.6981 8.87824 21.9805 10.3616 21.9805C11.6458 21.9805 12.6421 21.7416 13.3506 21.2637C14.0812 20.7859 14.4465 20.1451 14.4465 19.3414C14.4465 18.6463 14.1476 18.1142 13.5498 17.7449C12.952 17.3539 11.9447 17.1041 10.5277 16.9955L8.9668 16.8652C6.46495 16.648 4.47233 15.8769 2.98893 14.5519C1.50554 13.227 0.763838 11.4676 0.763838 9.27374C0.763838 6.94959 1.58303 5.13589 3.2214 3.83263C4.85978 2.50765 7.05167 1.84517 9.79705 1.84517C11.7897 1.84517 13.4723 2.17098 14.845 2.82261C16.2399 3.47424 17.3026 4.39738 18.0332 5.59203C18.7639 6.76497 19.1292 8.13339 19.1292 9.6973H13.1513C13.1513 8.91534 12.8524 8.25285 12.2546 7.70983C11.679 7.14508 10.8598 6.86271 9.79705 6.86271C8.7786 6.86271 8.01477 7.09078 7.50554 7.54692C6.99632 8.00306 6.7417 8.57866 6.7417 9.27374C6.7417 9.88192 6.95203 10.4032 7.3727 10.8376C7.79336 11.2721 8.52399 11.5327 9.56458 11.6196L11.1255 11.7499C12.941 11.902 14.5461 12.293 15.941 12.9229C17.3358 13.531 18.4317 14.3673 19.2288 15.4316C20.0258 16.496 20.4244 17.7992 20.4244 19.3414C20.4244 20.8836 20.0148 22.2303 19.1956 23.3815C18.3985 24.5327 17.2472 25.4233 15.7417 26.0532C14.2583 26.6831 12.465 26.998 10.3616 26.998Z" fill="white"/>
<path d="M27.3049 26.8026C25.3565 26.8026 23.7624 26.303 22.5226 25.3038C21.3049 24.2829 20.696 22.8711 20.696 21.0682C20.696 19.7215 21.0613 18.6355 21.792 17.8101C22.5226 16.963 23.53 16.3439 24.8141 15.9529C26.0982 15.562 27.5706 15.3665 29.2311 15.3665H32.1204C32.0982 14.5411 31.8879 13.9437 31.4894 13.5745C31.113 13.1835 30.4931 12.988 29.6296 12.988C29.2089 12.988 28.589 12.9989 27.7698 13.0206C26.9506 13.0423 26.0872 13.0749 25.1794 13.1183C24.2717 13.1618 23.4414 13.2052 22.6886 13.2487V8.29629C23.22 8.25285 23.851 8.20941 24.5816 8.16597C25.3123 8.12253 26.065 8.08994 26.8399 8.06822C27.637 8.0465 28.3676 8.03564 29.0318 8.03564C31.8658 8.03564 34.0466 8.64383 35.5743 9.8602C37.1241 11.0766 37.899 12.9337 37.899 15.4316V26.3464H33.1167V23.0231C32.7182 24.2395 32.0318 25.1735 31.0577 25.8251C30.0835 26.4767 28.8326 26.8026 27.3049 26.8026ZM29.2311 22.8276C30.006 22.8276 30.6591 22.6104 31.1905 22.176C31.744 21.7199 32.054 20.8945 32.1204 19.6998V18.4291H29.2311C28.4119 18.4291 27.7809 18.6355 27.3381 19.0482C26.8953 19.4391 26.6739 19.9713 26.6739 20.6447C26.6739 21.2963 26.8953 21.8285 27.3381 22.2412C27.7809 22.6321 28.4119 22.8276 29.2311 22.8276Z" fill="white"/>
<path d="M49.3436 26.6071C47.351 26.6071 45.7569 26.3681 44.5613 25.8903C43.3879 25.4124 42.5355 24.6196 42.0041 23.5118C41.4727 22.4041 41.207 20.9053 41.207 19.0156V12.6622H38.5502V8.36145H41.2403V3.66973H46.8196V8.36145H51.8344V12.6622H46.7864V19.1785C46.7864 20.8293 47.6277 21.6547 49.3104 21.6547H51.8344V26.6071H49.3436Z" fill="white"/>
<path d="M62.8135 26.998C60.6659 26.998 58.8283 26.5854 57.3006 25.76C55.7729 24.9128 54.6105 23.7942 53.8135 22.4041C53.0164 21.0139 52.6179 19.4826 52.6179 17.8101V17.0281C52.6179 15.2687 53.0275 13.694 53.8467 12.3038C54.688 10.8919 55.8725 9.77332 57.4002 8.94792C58.9279 8.12253 60.7323 7.70983 62.8135 7.70983C64.8947 7.70983 66.6991 8.12253 68.2268 8.94792C69.7545 9.77332 70.9279 10.8919 71.7471 12.3038C72.5884 13.694 73.0091 15.2687 73.0091 17.0281V17.8101C73.0091 19.4826 72.6105 21.0139 71.8135 22.4041C71.0164 23.7942 69.8541 24.9128 68.3264 25.76C66.8209 26.5854 64.9832 26.998 62.8135 26.998ZM62.8135 22.0457C64.1862 22.0457 65.2157 21.6112 65.9021 20.7424C66.6105 19.8736 66.9648 18.7658 66.9648 17.4191C66.9648 16.029 66.5995 14.8886 65.8689 13.998C65.1604 13.1075 64.1419 12.6622 62.8135 12.6622C61.4851 12.6622 60.4556 13.1075 59.7249 13.998C59.0164 14.8886 58.6622 16.029 58.6622 17.4191C58.6622 18.7658 59.0054 19.8736 59.6917 20.7424C60.4002 21.6112 61.4408 22.0457 62.8135 22.0457Z" fill="white"/>
<path d="M82.2628 26.9329C79.606 26.9329 77.5137 26.4007 75.9861 25.3364C74.4584 24.2503 73.6392 22.7299 73.5285 20.775H78.8422C78.9307 21.318 79.2739 21.785 79.8717 22.176C80.4695 22.567 81.3108 22.7625 82.3957 22.7625C83.1706 22.7625 83.8348 22.6539 84.3883 22.4366C84.9639 22.1977 85.2518 21.8176 85.2518 21.2963C85.2518 20.8402 85.0304 20.4709 84.5876 20.1885C84.1448 19.8844 83.3366 19.6781 82.1632 19.5695L80.9012 19.4391C78.5543 19.2002 76.8274 18.5703 75.7204 17.5494C74.6134 16.5285 74.0599 15.247 74.0599 13.7048C74.0599 12.3798 74.392 11.2938 75.0562 10.4467C75.7204 9.57783 76.6392 8.9262 77.8126 8.49178C78.9861 8.05736 80.3256 7.84015 81.8311 7.84015C84.2887 7.84015 86.2702 8.37232 87.7757 9.43664C89.2813 10.4792 90.0783 11.9889 90.1669 13.9655H84.8532C84.7647 13.4224 84.4658 12.9663 83.9566 12.597C83.4473 12.2061 82.7167 12.0106 81.7647 12.0106C81.0783 12.0106 80.5137 12.13 80.0709 12.369C79.6503 12.6079 79.4399 12.9446 79.4399 13.379C79.4399 13.8351 79.6392 14.1718 80.0377 14.389C80.4584 14.6062 81.1226 14.7691 82.0304 14.8777L83.2923 15.0081C85.6392 15.247 87.4436 15.8878 88.7056 16.9304C89.9898 17.9513 90.6318 19.298 90.6318 20.9705C90.6318 22.8168 89.8791 24.2721 88.3735 25.3364C86.8901 26.4007 84.8532 26.9329 82.2628 26.9329Z" fill="white"/>
<path d="M92.3097 26.3464V2.56196H98.354V11.2612C99.3061 8.93706 101.066 7.77499 103.634 7.77499H103.9C105.893 7.77499 107.409 8.48092 108.45 9.89279C109.513 11.3046 110.044 13.379 110.044 16.1158V26.3464H104V15.8878C104 15.0624 103.745 14.389 103.236 13.8677C102.727 13.3247 102.051 13.0532 101.21 13.0532C100.369 13.0532 99.6824 13.3247 99.1511 13.8677C98.6197 14.389 98.354 15.0841 98.354 15.9529V26.3464H92.3097Z" fill="white"/>
<path d="M116.097 6.92787C115.012 6.92787 114.204 6.65636 113.672 6.11334C113.163 5.54859 112.908 4.8318 112.908 3.96296C112.908 3.09412 113.163 2.38819 113.672 1.84517C114.204 1.28042 115.012 0.998047 116.097 0.998047C117.204 0.998047 118.012 1.28042 118.521 1.84517C119.03 2.38819 119.285 3.09412 119.285 3.96296C119.285 4.8318 119.03 5.54859 118.521 6.11334C118.012 6.65636 117.204 6.92787 116.097 6.92787ZM113.639 26.3464V12.6622H111.314V8.36145H119.683V26.3464H113.639Z" fill="white"/>
<path d="M121.935 26.3464V19.8953H128.444V26.3464H121.935Z" fill="white"/>
<path d="M128.722 26.3464L136.493 2.56196H146.39L154.427 26.3464H148.05L146.29 20.8402H136.626L134.899 26.3464H128.722ZM138.154 15.8878H144.696L142.006 7.44917H140.777L138.154 15.8878Z" fill="white"/>
<path d="M155.823 26.3464V2.36647H165.886C169.052 2.36647 171.543 3.06154 173.358 4.45168C175.174 5.8201 176.081 7.84015 176.081 10.5118V11.0331C176.081 12.7491 175.694 14.1935 174.919 15.3665C174.144 16.5394 173.037 17.43 171.598 18.0381L177.543 26.3464H170.436L165.52 19.0482H162V26.3464H155.823ZM166.251 7.44917H162V14.389H166.251C167.336 14.389 168.199 14.0849 168.841 13.4767C169.506 12.8468 169.838 11.9997 169.838 10.9354C169.838 9.87106 169.506 9.02395 168.841 8.39404C168.199 7.76413 167.336 7.44917 166.251 7.44917Z" fill="white"/>
<path d="M183.181 26.3464V7.84015H176.539V2.56196H196V7.84015H189.358V26.3464H183.181Z" fill="white"/>
</svg>
