<svg width="14" height="14" viewBox="0 0 14 14" fill="none" xmlns="http://www.w3.org/2000/svg">
<path d="M6.43547 12.7493C7.99002 12.7493 9.41783 12.1983 10.5327 11.286L13.1193 13.8487C13.2201 13.9486 13.3521 13.9999 13.484 13.9999C13.6159 13.9999 13.7478 13.9486 13.8487 13.8487C14.0504 13.6488 14.0504 13.3233 13.8487 13.1234L11.2724 10.571C12.2657 9.44853 12.8684 7.98011 12.8684 6.37586C12.8684 2.85984 9.98171 -0.00012207 6.43289 -0.00012207C2.88406 -0.00012207 0 2.85728 0 6.3733C0 9.88932 2.88665 12.7493 6.43547 12.7493ZM6.43547 1.02239C9.41266 1.02239 11.8363 3.42107 11.8363 6.3733C11.8363 9.32552 9.41266 11.7242 6.43547 11.7242C3.45829 11.7242 1.03464 9.32296 1.03464 6.3733C1.03464 3.42364 3.45829 1.02239 6.43547 1.02239Z" fill="#7E7E7E"/>
</svg>
