<svg width="8" height="11" viewBox="0 0 8 11" fill="none" xmlns="http://www.w3.org/2000/svg">
<path d="M0.500038 4H7.49994C7.63536 4 7.75258 3.95605 7.8515 3.86807C7.95036 3.78012 8 3.67597 8 3.55559C8 3.43522 7.95039 3.33111 7.8515 3.24304L4.35154 0.131929C4.25265 0.0440736 4.1355 0 4 0C3.8645 0 3.74735 0.0440736 3.64838 0.131929L0.148419 3.24304C0.0494455 3.33101 0 3.43522 0 3.55559C0 3.67594 0.0494455 3.78012 0.148419 3.86807C0.247501 3.95605 0.364644 4 0.500038 4Z" fill="#D0D6DE"/>
<path d="M7.49994 7H0.500038C0.364534 7 0.247392 7.04398 0.148419 7.13186C0.0494455 7.21984 0 7.32397 0 7.44434C0 7.56472 0.0494455 7.66893 0.148419 7.75686L3.64838 10.868C3.74746 10.956 3.86461 11 4 11C4.13539 11 4.25265 10.956 4.35154 10.868L7.8515 7.75683C7.95036 7.66892 8 7.56472 8 7.44432C8 7.32397 7.95039 7.21984 7.8515 7.13183C7.75261 7.04388 7.63536 7 7.49994 7Z" fill="#fff"/>
</svg>
