<svg width="402" height="25" viewBox="0 0 402 25" fill="none" xmlns="http://www.w3.org/2000/svg">
<path d="M10.02 24.598C7.98 24.598 6.26 24.278 4.86 23.638C3.48 22.998 2.43 22.128 1.71 21.028C1.01 19.908 0.66 18.628 0.66 17.188H6.06C6.06 17.988 6.38 18.658 7.02 19.198C7.68 19.718 8.68 19.978 10.02 19.978C11.18 19.978 12.08 19.758 12.72 19.318C13.38 18.878 13.71 18.288 13.71 17.548C13.71 16.908 13.44 16.418 12.9 16.078C12.36 15.718 11.45 15.488 10.17 15.388L8.76 15.268C6.5 15.068 4.7 14.358 3.36 13.138C2.02 11.918 1.35 10.298 1.35 8.27805C1.35 6.13805 2.09 4.46805 3.57 3.26805C5.05 2.04805 7.03 1.43805 9.51 1.43805C11.31 1.43805 12.83 1.73805 14.07 2.33805C15.33 2.93805 16.29 3.78805 16.95 4.88805C17.61 5.96805 17.94 7.22805 17.94 8.66805H12.54C12.54 7.94805 12.27 7.33805 11.73 6.83805C11.21 6.31805 10.47 6.05805 9.51 6.05805C8.59 6.05805 7.9 6.26805 7.44 6.68805C6.98 7.10805 6.75 7.63805 6.75 8.27805C6.75 8.83805 6.94 9.31805 7.32 9.71805C7.7 10.118 8.36 10.358 9.3 10.438L10.71 10.558C12.35 10.698 13.8 11.058 15.06 11.638C16.32 12.198 17.31 12.968 18.03 13.948C18.75 14.928 19.11 16.128 19.11 17.548C19.11 18.968 18.74 20.208 18 21.268C17.28 22.328 16.24 23.148 14.88 23.728C13.54 24.308 11.92 24.598 10.02 24.598ZM26.1054 24.538C24.2254 24.538 22.7654 23.928 21.7254 22.708C20.7054 21.468 20.1954 19.578 20.1954 17.038V7.43805H25.6554V17.188C25.6554 17.928 25.8754 18.528 26.3154 18.988C26.7554 19.448 27.3454 19.678 28.0854 19.678C28.8254 19.678 29.4254 19.448 29.8854 18.988C30.3454 18.528 30.5754 17.908 30.5754 17.128V7.43805H36.0354V23.998H31.7154V20.098C31.3754 21.618 30.7554 22.738 29.8554 23.458C28.9554 24.178 27.7854 24.538 26.3454 24.538H26.1054ZM49.5471 24.538C47.9871 24.538 46.6571 24.168 45.5571 23.428C44.4571 22.688 43.6671 21.608 43.1871 20.188V23.998H38.8671V2.09805H44.3271V9.95805C45.5071 7.95805 47.3371 6.95805 49.8171 6.95805C51.3171 6.95805 52.6071 7.31805 53.6871 8.03805C54.7871 8.75805 55.6271 9.74805 56.2071 11.008C56.8071 12.268 57.1071 13.708 57.1071 15.328V16.048C57.1071 17.668 56.7971 19.118 56.1771 20.398C55.5771 21.678 54.7171 22.688 53.5971 23.428C52.4771 24.168 51.1271 24.538 49.5471 24.538ZM47.9871 20.038C49.0671 20.038 49.9471 19.638 50.6271 18.838C51.3071 18.018 51.6471 16.968 51.6471 15.688C51.6471 14.408 51.3071 13.388 50.6271 12.628C49.9671 11.848 49.0871 11.458 47.9871 11.458C47.3271 11.458 46.7071 11.608 46.1271 11.908C45.5671 12.208 45.1071 12.648 44.7471 13.228C44.3871 13.808 44.2071 14.508 44.2071 15.328V16.348C44.2071 17.128 44.3971 17.798 44.7771 18.358C45.1571 18.898 45.6371 19.318 46.2171 19.618C46.7971 19.898 47.3871 20.038 47.9871 20.038ZM65.4773 24.538C63.0773 24.538 61.1873 24.048 59.8073 23.068C58.4273 22.068 57.6873 20.668 57.5873 18.868H62.3873C62.4673 19.368 62.7773 19.798 63.3173 20.158C63.8573 20.518 64.6173 20.698 65.5973 20.698C66.2973 20.698 66.8973 20.598 67.3973 20.398C67.9173 20.178 68.1773 19.828 68.1773 19.348C68.1773 18.928 67.9773 18.588 67.5773 18.328C67.1773 18.048 66.4473 17.858 65.3873 17.758L64.2473 17.638C62.1273 17.418 60.5673 16.838 59.5673 15.898C58.5673 14.958 58.0673 13.778 58.0673 12.358C58.0673 11.138 58.3673 10.138 58.9673 9.35805C59.5673 8.55805 60.3973 7.95805 61.4573 7.55805C62.5173 7.15805 63.7273 6.95805 65.0873 6.95805C67.3073 6.95805 69.0973 7.44805 70.4573 8.42805C71.8173 9.38805 72.5373 10.778 72.6173 12.598H67.8173C67.7373 12.098 67.4673 11.678 67.0073 11.338C66.5473 10.978 65.8873 10.798 65.0273 10.798C64.4073 10.798 63.8973 10.908 63.4973 11.128C63.1173 11.348 62.9273 11.658 62.9273 12.058C62.9273 12.478 63.1073 12.788 63.4673 12.988C63.8473 13.188 64.4473 13.338 65.2673 13.438L66.4073 13.558C68.5273 13.778 70.1573 14.368 71.2973 15.328C72.4573 16.268 73.0373 17.508 73.0373 19.048C73.0373 20.748 72.3573 22.088 70.9973 23.068C69.6573 24.048 67.8173 24.538 65.4773 24.538ZM82.113 24.598C80.673 24.598 79.423 24.368 78.363 23.908C77.303 23.428 76.413 22.788 75.693 21.988C74.993 21.188 74.463 20.278 74.103 19.258C73.763 18.238 73.593 17.178 73.593 16.078V15.478C73.593 13.938 73.913 12.518 74.553 11.218C75.213 9.89805 76.173 8.83805 77.433 8.03805C78.713 7.23805 80.273 6.83805 82.113 6.83805C83.633 6.83805 84.973 7.13805 86.133 7.73805C87.293 8.33805 88.213 9.16805 88.893 10.228C89.593 11.268 89.983 12.468 90.063 13.828H84.723C84.663 13.168 84.413 12.608 83.973 12.148C83.553 11.688 82.933 11.458 82.113 11.458C81.073 11.458 80.303 11.858 79.803 12.658C79.303 13.438 79.053 14.478 79.053 15.778C79.053 17.018 79.273 18.028 79.713 18.808C80.173 19.588 80.973 19.978 82.113 19.978C82.953 19.978 83.593 19.758 84.033 19.318C84.493 18.878 84.763 18.278 84.843 17.518H90.183C90.103 18.918 89.703 20.148 88.983 21.208C88.283 22.268 87.343 23.098 86.163 23.698C84.983 24.298 83.633 24.598 82.113 24.598ZM91.7515 23.998V7.43805H96.0715V13.288C96.2515 11.388 96.8115 9.89805 97.7515 8.81805C98.7115 7.73805 100.011 7.19805 101.651 7.19805H102.311V11.878H101.051C99.8315 11.878 98.8815 12.208 98.2015 12.868C97.5415 13.528 97.2115 14.478 97.2115 15.718V23.998H91.7515ZM106.266 6.11805C105.286 6.11805 104.556 5.86805 104.076 5.36805C103.616 4.84805 103.386 4.18805 103.386 3.38805C103.386 2.58805 103.616 1.93805 104.076 1.43805C104.556 0.918045 105.286 0.658045 106.266 0.658045C107.266 0.658045 107.996 0.918045 108.456 1.43805C108.916 1.93805 109.146 2.58805 109.146 3.38805C109.146 4.18805 108.916 4.84805 108.456 5.36805C107.996 5.86805 107.266 6.11805 106.266 6.11805ZM104.046 23.998V11.398H101.946V7.43805H109.506V23.998H104.046ZM123 24.538C121.44 24.538 120.11 24.168 119.01 23.428C117.91 22.688 117.12 21.608 116.64 20.188V23.998H112.32V2.09805H117.78V9.95805C118.96 7.95805 120.79 6.95805 123.27 6.95805C124.77 6.95805 126.06 7.31805 127.14 8.03805C128.24 8.75805 129.08 9.74805 129.66 11.008C130.26 12.268 130.56 13.708 130.56 15.328V16.048C130.56 17.668 130.25 19.118 129.63 20.398C129.03 21.678 128.17 22.688 127.05 23.428C125.93 24.168 124.58 24.538 123 24.538ZM121.44 20.038C122.52 20.038 123.4 19.638 124.08 18.838C124.76 18.018 125.1 16.968 125.1 15.688C125.1 14.408 124.76 13.388 124.08 12.628C123.42 11.848 122.54 11.458 121.44 11.458C120.78 11.458 120.16 11.608 119.58 11.908C119.02 12.208 118.56 12.648 118.2 13.228C117.84 13.808 117.66 14.508 117.66 15.328V16.348C117.66 17.128 117.85 17.798 118.23 18.358C118.61 18.898 119.09 19.318 119.67 19.618C120.25 19.898 120.84 20.038 121.44 20.038ZM140.13 24.598C138.73 24.598 137.49 24.358 136.41 23.878C135.33 23.398 134.42 22.748 133.68 21.928C132.94 21.108 132.37 20.188 131.97 19.168C131.59 18.148 131.4 17.098 131.4 16.018V15.418C131.4 14.298 131.59 13.228 131.97 12.208C132.37 11.168 132.93 10.248 133.65 9.44805C134.39 8.64805 135.29 8.01805 136.35 7.55805C137.41 7.07805 138.61 6.83805 139.95 6.83805C141.73 6.83805 143.24 7.23805 144.48 8.03805C145.72 8.83805 146.67 9.89805 147.33 11.218C147.99 12.518 148.32 13.938 148.32 15.478V17.218H136.56C136.74 18.158 137.12 18.898 137.7 19.438C138.28 19.958 139.09 20.218 140.13 20.218C141.65 20.218 142.62 19.738 143.04 18.778H148.02C147.78 19.898 147.3 20.898 146.58 21.778C145.88 22.658 144.98 23.348 143.88 23.848C142.8 24.348 141.55 24.598 140.13 24.598ZM139.95 11.218C139.05 11.218 138.3 11.478 137.7 11.998C137.12 12.498 136.74 13.258 136.56 14.278H143.19C142.85 12.238 141.77 11.218 139.95 11.218ZM162.811 24.238C161.011 24.238 159.571 24.018 158.491 23.578C157.431 23.138 156.661 22.408 156.181 21.388C155.701 20.368 155.461 18.988 155.461 17.248V11.398H153.061V7.43805H155.491V3.11805H160.531V7.43805H165.061V11.398H160.501V17.398C160.501 18.918 161.261 19.678 162.781 19.678H165.061V24.238H162.811ZM174.979 24.598C173.039 24.598 171.379 24.218 169.999 23.458C168.619 22.678 167.569 21.648 166.849 20.368C166.129 19.088 165.769 17.678 165.769 16.138V15.418C165.769 13.798 166.139 12.348 166.879 11.068C167.639 9.76805 168.709 8.73805 170.089 7.97805C171.469 7.21805 173.099 6.83805 174.979 6.83805C176.859 6.83805 178.489 7.21805 179.869 7.97805C181.249 8.73805 182.309 9.76805 183.049 11.068C183.809 12.348 184.189 13.798 184.189 15.418V16.138C184.189 17.678 183.829 19.088 183.109 20.368C182.389 21.648 181.339 22.678 179.959 23.458C178.599 24.218 176.939 24.598 174.979 24.598ZM174.979 20.038C176.219 20.038 177.149 19.638 177.769 18.838C178.409 18.038 178.729 17.018 178.729 15.778C178.729 14.498 178.399 13.448 177.739 12.628C177.099 11.808 176.179 11.398 174.979 11.398C173.779 11.398 172.849 11.808 172.189 12.628C171.549 13.448 171.229 14.498 171.229 15.778C171.229 17.018 171.539 18.038 172.159 18.838C172.799 19.638 173.739 20.038 174.979 20.038ZM199.151 24.598C197.211 24.598 195.551 24.218 194.171 23.458C192.791 22.678 191.741 21.648 191.021 20.368C190.301 19.088 189.941 17.678 189.941 16.138V15.418C189.941 13.798 190.311 12.348 191.051 11.068C191.811 9.76805 192.881 8.73805 194.261 7.97805C195.641 7.21805 197.271 6.83805 199.151 6.83805C201.031 6.83805 202.661 7.21805 204.041 7.97805C205.421 8.73805 206.481 9.76805 207.221 11.068C207.981 12.348 208.361 13.798 208.361 15.418V16.138C208.361 17.678 208.001 19.088 207.281 20.368C206.561 21.648 205.511 22.678 204.131 23.458C202.771 24.218 201.111 24.598 199.151 24.598ZM199.151 20.038C200.391 20.038 201.321 19.638 201.941 18.838C202.581 18.038 202.901 17.018 202.901 15.778C202.901 14.498 202.571 13.448 201.911 12.628C201.271 11.808 200.351 11.398 199.151 11.398C197.951 11.398 197.021 11.808 196.361 12.628C195.721 13.448 195.401 14.498 195.401 15.778C195.401 17.018 195.711 18.038 196.331 18.838C196.971 19.638 197.911 20.038 199.151 20.038ZM215.701 24.538C213.821 24.538 212.361 23.928 211.321 22.708C210.301 21.468 209.791 19.578 209.791 17.038V7.43805H215.251V17.188C215.251 17.928 215.471 18.528 215.911 18.988C216.351 19.448 216.941 19.678 217.681 19.678C218.421 19.678 219.021 19.448 219.481 18.988C219.941 18.528 220.171 17.908 220.171 17.128V7.43805H225.631V23.998H221.311V20.098C220.971 21.618 220.351 22.738 219.451 23.458C218.551 24.178 217.381 24.538 215.941 24.538H215.701ZM228.462 23.998V7.43805H232.782V13.288C232.962 11.388 233.522 9.89805 234.462 8.81805C235.422 7.73805 236.722 7.19805 238.362 7.19805H239.022V11.878H237.762C236.542 11.878 235.592 12.208 234.912 12.868C234.252 13.528 233.922 14.478 233.922 15.718V23.998H228.462ZM244.9 23.998V7.43805H249.22V11.788C249.54 10.148 250.17 8.92805 251.11 8.12805C252.05 7.30805 253.27 6.89805 254.77 6.89805H255.01C256.89 6.89805 258.34 7.52805 259.36 8.78805C260.4 10.028 260.92 11.938 260.92 14.518V23.998H255.46V14.368C255.46 13.608 255.23 12.988 254.77 12.508C254.33 12.008 253.72 11.758 252.94 11.758C252.16 11.758 251.53 12.008 251.05 12.508C250.59 12.988 250.36 13.628 250.36 14.428V23.998H244.9ZM271.158 24.598C269.758 24.598 268.518 24.358 267.438 23.878C266.358 23.398 265.448 22.748 264.708 21.928C263.968 21.108 263.398 20.188 262.998 19.168C262.618 18.148 262.428 17.098 262.428 16.018V15.418C262.428 14.298 262.618 13.228 262.998 12.208C263.398 11.168 263.958 10.248 264.678 9.44805C265.418 8.64805 266.318 8.01805 267.378 7.55805C268.438 7.07805 269.638 6.83805 270.978 6.83805C272.758 6.83805 274.268 7.23805 275.508 8.03805C276.748 8.83805 277.698 9.89805 278.358 11.218C279.018 12.518 279.348 13.938 279.348 15.478V17.218H267.588C267.768 18.158 268.148 18.898 268.728 19.438C269.308 19.958 270.118 20.218 271.158 20.218C272.678 20.218 273.648 19.738 274.068 18.778H279.048C278.808 19.898 278.328 20.898 277.608 21.778C276.908 22.658 276.008 23.348 274.908 23.848C273.828 24.348 272.578 24.598 271.158 24.598ZM270.978 11.218C270.078 11.218 269.328 11.478 268.728 11.998C268.148 12.498 267.768 13.258 267.588 14.278H274.218C273.878 12.238 272.798 11.218 270.978 11.218ZM283.64 23.998L279.29 7.43805H284.63L287.54 19.438H288.17L290.27 7.97805H295.97L298.37 19.438H298.97L301.61 7.43805H306.59L302.63 23.998H295.19L293.03 14.128L291.05 23.998H283.64ZM314.433 24.538C312.033 24.538 310.143 24.048 308.763 23.068C307.383 22.068 306.643 20.668 306.543 18.868H311.343C311.423 19.368 311.733 19.798 312.273 20.158C312.813 20.518 313.573 20.698 314.553 20.698C315.253 20.698 315.853 20.598 316.353 20.398C316.873 20.178 317.133 19.828 317.133 19.348C317.133 18.928 316.933 18.588 316.533 18.328C316.133 18.048 315.403 17.858 314.343 17.758L313.203 17.638C311.083 17.418 309.523 16.838 308.523 15.898C307.523 14.958 307.023 13.778 307.023 12.358C307.023 11.138 307.323 10.138 307.923 9.35805C308.523 8.55805 309.353 7.95805 310.413 7.55805C311.473 7.15805 312.683 6.95805 314.043 6.95805C316.263 6.95805 318.053 7.44805 319.413 8.42805C320.773 9.38805 321.493 10.778 321.573 12.598H316.773C316.693 12.098 316.423 11.678 315.963 11.338C315.503 10.978 314.843 10.798 313.983 10.798C313.363 10.798 312.853 10.908 312.453 11.128C312.073 11.348 311.883 11.658 311.883 12.058C311.883 12.478 312.063 12.788 312.423 12.988C312.803 13.188 313.403 13.338 314.223 13.438L315.363 13.558C317.483 13.778 319.113 14.368 320.253 15.328C321.413 16.268 321.993 17.508 321.993 19.048C321.993 20.748 321.313 22.088 319.953 23.068C318.613 24.048 316.773 24.538 314.433 24.538ZM323.749 23.998V6.05805H321.889V2.09805H329.209V23.998H323.749ZM339.805 24.598C338.405 24.598 337.165 24.358 336.085 23.878C335.005 23.398 334.095 22.748 333.355 21.928C332.615 21.108 332.045 20.188 331.645 19.168C331.265 18.148 331.075 17.098 331.075 16.018V15.418C331.075 14.298 331.265 13.228 331.645 12.208C332.045 11.168 332.605 10.248 333.325 9.44805C334.065 8.64805 334.965 8.01805 336.025 7.55805C337.085 7.07805 338.285 6.83805 339.625 6.83805C341.405 6.83805 342.915 7.23805 344.155 8.03805C345.395 8.83805 346.345 9.89805 347.005 11.218C347.665 12.518 347.995 13.938 347.995 15.478V17.218H336.235C336.415 18.158 336.795 18.898 337.375 19.438C337.955 19.958 338.765 20.218 339.805 20.218C341.325 20.218 342.295 19.738 342.715 18.778H347.695C347.455 19.898 346.975 20.898 346.255 21.778C345.555 22.658 344.655 23.348 343.555 23.848C342.475 24.348 341.225 24.598 339.805 24.598ZM339.625 11.218C338.725 11.218 337.975 11.478 337.375 11.998C336.795 12.498 336.415 13.258 336.235 14.278H342.865C342.525 12.238 341.445 11.218 339.625 11.218ZM357.563 24.238C355.763 24.238 354.323 24.018 353.243 23.578C352.183 23.138 351.413 22.408 350.933 21.388C350.453 20.368 350.213 18.988 350.213 17.248V11.398H347.813V7.43805H350.243V3.11805H355.283V7.43805H359.813V11.398H355.253V17.398C355.253 18.918 356.013 19.678 357.533 19.678H359.813V24.238H357.563ZM369.429 24.238C367.629 24.238 366.189 24.018 365.109 23.578C364.049 23.138 363.279 22.408 362.799 21.388C362.319 20.368 362.079 18.988 362.079 17.248V11.398H359.679V7.43805H362.109V3.11805H367.149V7.43805H371.679V11.398H367.119V17.398C367.119 18.918 367.879 19.678 369.399 19.678H371.679V24.238H369.429ZM381.117 24.598C379.717 24.598 378.477 24.358 377.397 23.878C376.317 23.398 375.407 22.748 374.667 21.928C373.927 21.108 373.357 20.188 372.957 19.168C372.577 18.148 372.387 17.098 372.387 16.018V15.418C372.387 14.298 372.577 13.228 372.957 12.208C373.357 11.168 373.917 10.248 374.637 9.44805C375.377 8.64805 376.277 8.01805 377.337 7.55805C378.397 7.07805 379.597 6.83805 380.937 6.83805C382.717 6.83805 384.227 7.23805 385.467 8.03805C386.707 8.83805 387.657 9.89805 388.317 11.218C388.977 12.518 389.307 13.938 389.307 15.478V17.218H377.547C377.727 18.158 378.107 18.898 378.687 19.438C379.267 19.958 380.077 20.218 381.117 20.218C382.637 20.218 383.607 19.738 384.027 18.778H389.007C388.767 19.898 388.287 20.898 387.567 21.778C386.867 22.658 385.967 23.348 384.867 23.848C383.787 24.348 382.537 24.598 381.117 24.598ZM380.937 11.218C380.037 11.218 379.287 11.478 378.687 11.998C378.107 12.498 377.727 13.258 377.547 14.278H384.177C383.837 12.238 382.757 11.218 380.937 11.218ZM390.985 23.998V7.43805H395.305V13.288C395.485 11.388 396.045 9.89805 396.985 8.81805C397.945 7.73805 399.245 7.19805 400.885 7.19805H401.545V11.878H400.285C399.065 11.878 398.115 12.208 397.435 12.868C396.775 13.528 396.445 14.478 396.445 15.718V23.998H390.985Z" fill="url(#paint0_linear)"/>
<defs>
<linearGradient id="paint0_linear" x1="-20" y1="-5.00192" x2="342" y2="41.9981" gradientUnits="userSpaceOnUse">
<stop stop-color="#FF0099"/>
<stop offset="1" stop-color="#6A2FE7"/>
</linearGradient>
</defs>
</svg>
