<svg width="24" height="5" viewBox="0 0 24 5" fill="none" xmlns="http://www.w3.org/2000/svg">
<path d="M2 4.5C3.10457 4.5 4 3.60457 4 2.5C4 1.39543 3.10457 0.5 2 0.5C0.89543 0.5 0 1.39543 0 2.5C0 3.60457 0.89543 4.5 2 4.5Z" fill="#7E7E7E"/>
<path d="M12 4.5C13.1046 4.5 14 3.60457 14 2.5C14 1.39543 13.1046 0.5 12 0.5C10.8954 0.5 10 1.39543 10 2.5C10 3.60457 10.8954 4.5 12 4.5Z" fill="#7E7E7E"/>
<path d="M22 4.5C23.1046 4.5 24 3.60457 24 2.5C24 1.39543 23.1046 0.5 22 0.5C20.8954 0.5 20 1.39543 20 2.5C20 3.60457 20.8954 4.5 22 4.5Z" fill="#7E7E7E"/>
</svg>
