<svg width="19" height="19" viewBox="0 0 19 19" fill="none" xmlns="http://www.w3.org/2000/svg">
<path d="M3.00412 5.76376V14.7766C3.00412 15.3742 3.24152 15.9473 3.66408 16.3699C4.08664 16.7925 4.65975 17.0299 5.25734 17.0299H12.7681C13.3657 17.0299 13.9388 16.7925 14.3613 16.3699C14.7839 15.9473 15.0213 15.3742 15.0213 14.7766V5.76376C15.2205 5.76376 15.4115 5.68463 15.5524 5.54378C15.6932 5.40292 15.7724 5.21189 15.7724 5.01269C15.7724 4.81349 15.6932 4.62245 15.5524 4.4816C15.4115 4.34075 15.2205 4.26162 15.0213 4.26162H12.017V3.51054C12.017 2.91295 11.7796 2.33984 11.357 1.91728C10.9345 1.49472 10.3614 1.25732 9.76378 1.25732H8.26164C7.66404 1.25732 7.09093 1.49472 6.66837 1.91728C6.24581 2.33984 6.00842 2.91295 6.00842 3.51054V4.26162H3.00412C2.80493 4.26162 2.61389 4.34075 2.47304 4.4816C2.33218 4.62245 2.25305 4.81349 2.25305 5.01269C2.25305 5.21189 2.33218 5.40292 2.47304 5.54378C2.61389 5.68463 2.80493 5.76376 3.00412 5.76376ZM7.51056 3.51054C7.51056 3.31135 7.58969 3.12031 7.73055 2.97945C7.8714 2.8386 8.06244 2.75947 8.26164 2.75947H9.76378C9.96298 2.75947 10.154 2.8386 10.2949 2.97945C10.4357 3.12031 10.5149 3.31135 10.5149 3.51054V4.26162H7.51056V3.51054ZM4.50627 5.76376H13.5191V14.7766C13.5191 14.9758 13.44 15.1669 13.2992 15.3077C13.1583 15.4486 12.9673 15.5277 12.7681 15.5277H5.25734C5.05815 15.5277 4.86711 15.4486 4.72626 15.3077C4.5854 15.1669 4.50627 14.9758 4.50627 14.7766V5.76376Z" fill="#FFB800"/>
<path d="M6.75962 14.0258C6.95881 14.0258 7.14985 13.9466 7.29071 13.8058C7.43156 13.6649 7.51069 13.4739 7.51069 13.2747V8.01719C7.51069 7.81799 7.43156 7.62695 7.29071 7.4861C7.14985 7.34524 6.95881 7.26611 6.75962 7.26611C6.56042 7.26611 6.36938 7.34524 6.22853 7.4861C6.08768 7.62695 6.00854 7.81799 6.00854 8.01719V13.2747C6.00854 13.4739 6.08768 13.6649 6.22853 13.8058C6.36938 13.9466 6.56042 14.0258 6.75962 14.0258Z" fill="#FFB800"/>
<path d="M11.266 14.0258C11.4652 14.0258 11.6562 13.9466 11.7971 13.8058C11.9379 13.6649 12.017 13.4739 12.017 13.2747V8.01719C12.017 7.81799 11.9379 7.62695 11.7971 7.4861C11.6562 7.34524 11.4652 7.26611 11.266 7.26611C11.0668 7.26611 10.8757 7.34524 10.7349 7.4861C10.594 7.62695 10.5149 7.81799 10.5149 8.01719V13.2747C10.5149 13.4739 10.594 13.6649 10.7349 13.8058C10.8757 13.9466 11.0668 14.0258 11.266 14.0258Z" fill="#FFB800"/>
</svg>
