<svg width="14" height="13" viewBox="0 0 14 13" fill="none" xmlns="http://www.w3.org/2000/svg">
<path d="M9.31842 6.00741C9.84759 5.55588 10.2256 4.95295 10.4015 4.27992C10.5774 3.60689 10.5427 2.89611 10.302 2.24341C10.0614 1.59072 9.62646 1.02749 9.05581 0.629667C8.48515 0.231844 7.80624 0.0185547 7.11061 0.0185547C6.41497 0.0185547 5.73606 0.231844 5.16541 0.629667C4.59475 1.02749 4.1598 1.59072 3.91918 2.24341C3.67856 2.89611 3.64385 3.60689 3.81973 4.27992C3.99561 4.95295 4.37362 5.55588 4.9028 6.00741C3.73412 6.45406 2.7284 7.24467 2.01843 8.27483C1.30847 9.305 0.927652 10.5263 0.92627 11.7774C0.92627 11.9414 0.991426 12.0987 1.1074 12.2147C1.22338 12.3307 1.38068 12.3958 1.5447 12.3958C1.70872 12.3958 1.86602 12.3307 1.982 12.2147C2.09798 12.0987 2.16314 11.9414 2.16314 11.7774C2.16314 10.4652 2.68439 9.20684 3.61222 8.27901C4.54005 7.35118 5.79846 6.82993 7.11061 6.82993C8.42276 6.82993 9.68117 7.35118 10.609 8.27901C11.5368 9.20684 12.0581 10.4652 12.0581 11.7774C12.0581 11.9414 12.1232 12.0987 12.2392 12.2147C12.3552 12.3307 12.5125 12.3958 12.6765 12.3958C12.8405 12.3958 12.9978 12.3307 13.1138 12.2147C13.2298 12.0987 13.2949 11.9414 13.2949 11.7774C13.2936 10.5263 12.9127 9.305 12.2028 8.27483C11.4928 7.24467 10.4871 6.45406 9.31842 6.00741ZM7.11061 5.59306C6.68251 5.59306 6.26402 5.46611 5.90807 5.22827C5.55211 4.99043 5.27468 4.65238 5.11085 4.25687C4.94703 3.86135 4.90416 3.42614 4.98768 3.00627C5.0712 2.58639 5.27735 2.20071 5.58006 1.898C5.88278 1.59528 6.26846 1.38913 6.68833 1.30561C7.10821 1.2221 7.54342 1.26496 7.93893 1.42879C8.33445 1.59262 8.6725 1.87005 8.91034 2.226C9.14818 2.58195 9.27513 3.00044 9.27513 3.42854C9.27513 4.00261 9.04708 4.55316 8.64115 4.95909C8.23523 5.36501 7.68467 5.59306 7.11061 5.59306Z" fill="black"/>
</svg>
