<svg width="29" height="19" viewBox="0 0 29 19" fill="none" xmlns="http://www.w3.org/2000/svg">
    <path d="M14.5 0.960938C8.31425 0.960938 2.79064 4.10101 0.0865066 9.16238C-0.0288355 9.37586 -0.0288355 9.62815 0.0865066 9.84163C2.79064 14.8991 8.31425 18.0392 14.5 18.0392C20.6858 18.0392 26.2094 14.8991 28.9135 9.83774C29.0288 9.62427 29.0288 9.37197 28.9135 9.1585C26.2094 4.10101 20.6858 0.960938 14.5 0.960938ZM14.5 16.4866C9.1131 16.4866 4.29009 13.8201 1.81237 9.50006C4.29009 5.18004 9.11737 2.51351 14.5 2.51351C19.8826 2.51351 24.7099 5.18004 27.1876 9.50006C24.7099 13.8201 19.8869 16.4866 14.5 16.4866Z"
          fill="#7E7E7E"/>
    <path d="M14.5 4.64829C11.5566 4.64829 9.16009 6.82576 9.16009 9.50006C9.16009 12.1744 11.5566 14.3518 14.5 14.3518C17.4434 14.3518 19.8399 12.1744 19.8399 9.50006C19.8399 6.82576 17.4434 4.64829 14.5 4.64829ZM14.5 12.7993C12.4965 12.7993 10.8689 11.3204 10.8689 9.50006C10.8689 7.67968 12.4965 6.20085 14.5 6.20085C16.5035 6.20085 18.1311 7.67968 18.1311 9.50006C18.1311 11.3204 16.5035 12.7993 14.5 12.7993Z"
          fill="#7E7E7E"/>
</svg>
